<?xml version="1.0" encoding="UTF-8" standalone="no"?>
<!DOCTYPE svg  PUBLIC '-//W3C//DTD SVG 1.1//EN'  'http://www.w3.org/Graphics/SVG/1.1/DTD/svg11.dtd'>
<svg version="1.1" xmlns="http://www.w3.org/2000/svg">
<defs>
<font id="Roboto-Light" horiz-adv-x="1140">
<font-face units-per-em="2048" cap-height="1456" x-height="1082" underline-position="-200" bbox="-971 -555 2348 2146" ascent="1536" panose-1="0 0 0 0 0 0 0 0 0 0" font-weight="300" unicode-range="U+0009-FFFD" descent="-512" underline-thickness="100" font-family="o"/>
<missing-glyph/>
<glyph d="M228 0v984h-180v98h180v138q0 172 95 266.5t264 94.5q67 0 136 -15t140 -44l-20 -103q-61 25 -118 39t-130 14q-122 0 -184.5 -65t-62.5 -187v-138h253v-98h-253v-984h-120zM928 0h-120v1082h120v-1082z" unicode="fi" glyph-name="fi" horiz-adv-x="1100"/>
<glyph horiz-adv-x="498" glyph-name="NULL"/>
<glyph horiz-adv-x="0" glyph-name="uni0002"/>
<glyph horiz-adv-x="0" glyph-name="uni0002"/>
<glyph unicode="" glyph-name="nonmarkingreturn" horiz-adv-x="498"/>
<glyph unicode=" " glyph-name="space" horiz-adv-x="498"/>
<glyph d="M288 478h-119v978h119v-978zM300 0h-142v167h142v-167z" unicode="!" glyph-name="exclam" horiz-adv-x="462"/>
<glyph d="M287 1240l-73 -261h-72l25 255v222h120v-216zM526 1240l-73 -261h-72l26 258v219h119v-216z" unicode='&quot;' glyph-name="quotedbl" horiz-adv-x="666"/>
<glyph d="M735 410h-313l-77 -410h-100l77 410h-255v93h272l83 441h-279v96h297l79 416h100l-79 -416h314l79 416h100l-79 -416h229v-96h-247l-83 -441h255v-93h-273l-77 -410h-100zM439 503h314l83 441h-314z" unicode="#" glyph-name="numbersign" horiz-adv-x="1270"/>
<glyph d="M909 359q0 110 -72 180t-254 135q-208 66 -308 159t-100 262q0 162 100 264t272 116v202h102v-202q175 -16 271.5 -129t93.5 -304l-2 -5h-113q0 147 -80 240t-223 93q-148 0 -225 -77t-77 -196q0 -114 68 -183.5t262 -133.5q206 -69 305.5 -160.5t99.5 -258.5 q0 -166 -103.5 -265t-279.5 -114v-190h-102v189q-181 11 -300.5 115.5t-115.5 315.5l3 6h112q0 -177 101 -255t244 -78q148 0 234.5 77.5t86.5 196.5z" unicode="$" glyph-name="dollar" horiz-adv-x="1154"/>
<glyph d="M110 1176q0 127 78.5 214t206.5 87q127 0 205.5 -87t78.5 -214v-77q0 -126 -78 -212.5t-204 -86.5q-129 0 -208 86.5t-79 212.5v77zM206 1099q0 -88 49.5 -150t141.5 -62q89 0 137.5 62t48.5 150v77q0 88 -49 151t-139 63t-139.5 -63t-49.5 -151v-77zM842 357 q0 126 78.5 213t206.5 87q127 0 206 -87t79 -213v-78q0 -127 -78.5 -213.5t-204.5 -86.5q-129 0 -208 86.5t-79 213.5v78zM939 279q0 -89 49 -151t141 -62q89 0 137.5 62t48.5 151v78q0 91 -49 152t-139 61t-139 -61.5t-49 -151.5v-78zM426 121l-74 48l711 1138l74 -48z" unicode="%" glyph-name="percent" horiz-adv-x="1514"/>
<glyph d="M388 795q-81 100 -120 182.5t-39 169.5q0 158 89 244t244 86q144 0 228.5 -81t84.5 -204q0 -90 -45 -155t-130 -130l-159 -122l412 -481q49 71 76 159t27 188h110q0 -128 -36.5 -235.5t-105.5 -194.5l185 -216l-2 -5h-137l-122 141q-85 -78 -186 -120t-218 -42 q-209 0 -331 107t-122 285q0 120 72.5 216.5t209.5 196.5zM544 80q92 0 179.5 36t157.5 103l-414 482l-8.5 8.5t-5.5 7.5l-47 -36q-116 -94 -155.5 -170t-39.5 -140q0 -124 85.5 -207.5t247.5 -83.5zM349 1149q0 -66 31.5 -137t96.5 -151l177 132q58 45 82.5 94t24.5 105 q0 79 -52.5 131t-146.5 52q-102 0 -157.5 -65t-55.5 -161z" unicode="&amp;" glyph-name="ampersand" horiz-adv-x="1260"/>
<glyph d="M287 1261l-73 -275h-72l25 266v204h120v-195z" unicode="&apos;" glyph-name="quotesingle" horiz-adv-x="423"/>
<glyph d="M140 588q0 363 139 651t310 386l6 -1l26 -73q-145 -103 -253 -366t-108 -594v-20q0 -331 108 -594t253 -370l-26 -70h-6q-173 100 -311 382t-138 654v15z" unicode="(" glyph-name="parenleft" horiz-adv-x="640"/>
<glyph d="M498 573q0 -372 -138 -654t-310 -382h-6l-26 70q144 102 252.5 367t108.5 597v20q0 329 -110.5 595.5t-250.5 368.5l26 70h6q170 -98 309 -386t139 -651v-15z" unicode=")" glyph-name="parenright" horiz-adv-x="652"/>
<glyph d="M361 706l-272 76l32 101l272 -92l-8 291l104 -1l-4 -294l264 97l33 -101l-273 -84l172 -230l-85 -62l-163 241l-159 -239l-85 60z" unicode="*" glyph-name="asterisk" horiz-adv-x="869"/>
<glyph d="M630 740h443v-112h-443v-482h-121v482h-434v112h434v466h121v-466z" unicode="+" glyph-name="plus" horiz-adv-x="1156"/>
<glyph d="M271 18l-106 -276h-82l69 279v167h119v-170z" unicode="," glyph-name="comma" horiz-adv-x="392"/>
<glyph d="M720 570h-590v101h590v-101z" unicode="-" glyph-name="hyphen" horiz-adv-x="860"/>
<glyph d="M304 0h-137v164h137v-164z" unicode="." glyph-name="period" horiz-adv-x="489"/>
<glyph d="M139 -125h-109l608 1581h108z" unicode="/" glyph-name="slash" horiz-adv-x="813"/>
<glyph d="M1020 514q0 -249 -120.5 -392t-330.5 -143t-332 143.5t-122 391.5v428q0 247 121 391t331 144t331.5 -144t121.5 -391v-428zM900 961q0 191 -86.5 302.5t-246.5 111.5t-246.5 -112t-86.5 -302v-465q0 -189 87.5 -302.5t247.5 -113.5q159 0 245 113t86 303v465z" unicode="0" glyph-name="zero" horiz-adv-x="1135"/>
<glyph d="M659 0h-120v1353l-345 -42v96l465 70v-1477z" unicode="1" glyph-name="one" horiz-adv-x="1135"/>
<glyph d="M1039 0h-886v92l479 559q128 151 177 247.5t49 190.5q0 133 -71.5 209.5t-211.5 76.5q-156 0 -240 -92.5t-84 -236.5h-112l-2 6q-5 178 115 301.5t323 123.5q187 0 295 -105t108 -284q0 -118 -71 -236t-209 -286l-394 -460l2 -5h733v-101z" unicode="2" glyph-name="two" horiz-adv-x="1135"/>
<glyph d="M551 798q159 0 241 79t82 204q0 130 -76 212t-225 82q-140 0 -232 -83.5t-92 -216.5h-112l-2 6q-5 170 121 283t317 113q194 0 307.5 -105t113.5 -295q0 -108 -62.5 -196t-171.5 -131q126 -40 193.5 -131t67.5 -224q0 -195 -123 -305.5t-320 -110.5q-185 0 -327.5 109.5 t-137.5 300.5l2 6h112q0 -135 99 -225t252 -90q152 0 238 84t86 227q0 154 -91.5 229.5t-259.5 75.5h-134v102h134z" unicode="3" glyph-name="three" horiz-adv-x="1135"/>
<glyph d="M860 469h228v-101h-228v-368h-119v368h-669v68l657 1020h131v-987zM214 469h527v830l-6 2l-51 -109z" unicode="4" glyph-name="four" horiz-adv-x="1135"/>
<glyph d="M187 655l80 801h708v-111h-605l-54 -524q55 49 121.5 77t178.5 31q187 3 300.5 -123t113.5 -342q0 -221 -111 -353t-333 -132q-180 0 -300 100.5t-115 297.5l2 6h108q0 -147 83 -225t222 -78q163 0 243.5 98t80.5 284q0 163 -80.5 259t-226.5 96q-139 0 -212.5 -44.5 t-106.5 -134.5z" unicode="5" glyph-name="five" horiz-adv-x="1135"/>
<glyph d="M626 1477q81 0 161.5 -17t139.5 -49l-31 -98q-60 31 -122.5 46.5t-147.5 15.5q-153 0 -252.5 -122t-99.5 -317v-200q60 84 155 134.5t210 50.5q193 0 301 -126t108 -341q0 -213 -121.5 -344t-319.5 -131q-196 0 -324 149t-128 403v394q0 242 135.5 397t335.5 155z M606 823q-118 0 -208.5 -63.5t-123.5 -161.5v-76q0 -201 94 -321.5t239 -120.5q148 0 234.5 106t86.5 268q0 176 -81.5 272.5t-240.5 96.5z" unicode="6" glyph-name="six" horiz-adv-x="1135"/>
<glyph d="M1038 1354q-245 -286 -368.5 -572.5t-123.5 -637.5v-144h-120v144q0 347 128.5 642t359.5 568h-823v102h947v-102z" unicode="7" glyph-name="seven" horiz-adv-x="1135"/>
<glyph d="M996 1090q0 -118 -68.5 -207t-181.5 -129q130 -41 210.5 -137t80.5 -223q0 -196 -130.5 -305.5t-327.5 -109.5q-210 0 -344.5 109t-134.5 306q0 128 82 224t218 137q-119 40 -189 128.5t-70 206.5q0 186 122 286.5t314 100.5q181 0 300 -100.5t119 -286.5zM917 393 q0 137 -99 224t-241 87q-153 0 -255.5 -87t-102.5 -224q0 -143 102 -228t258 -85q143 0 240.5 85.5t97.5 227.5zM876 1091q0 125 -87 204.5t-212 79.5q-138 0 -227.5 -76.5t-89.5 -207.5q0 -129 91 -207.5t228 -78.5q125 0 211 79t86 207z" unicode="8" glyph-name="eight" horiz-adv-x="1135"/>
<glyph d="M518 80q160 0 255 106t95 296v212q-53 -89 -141.5 -137t-195.5 -48q-198 0 -317.5 131.5t-119.5 342.5q0 213 125 353.5t313 140.5q206 0 333 -135t127 -384v-474q0 -237 -131.5 -371t-342.5 -134q-75 0 -151.5 16t-148.5 47l22 97q66 -32 129.5 -45.5t148.5 -13.5z M531 610q127 0 214 64t123 158v139q0 194 -90 299t-241 105q-141 0 -230 -113t-89 -279q0 -160 83.5 -266.5t229.5 -106.5z" unicode="9" glyph-name="nine" horiz-adv-x="1135"/>
<glyph d="M304 0h-137v164h137v-164zM304 876h-137v164h137v-164z" unicode=":" glyph-name="colon" horiz-adv-x="434"/>
<glyph d="M305 876h-137v164h137v-164zM322 18l-106 -276h-82l69 279v167h119v-170z" unicode=";" glyph-name="semicolon" horiz-adv-x="438"/>
<glyph d="M290 578l-108 -28v-6l108 -28l614 -268v-126l-827 379v97l827 378v-126z" unicode="&lt;" glyph-name="less" horiz-adv-x="1047"/>
<glyph d="M983 833h-834v106h834v-106zM983 422h-834v106h834v-106z" unicode="=" glyph-name="equal" horiz-adv-x="1147"/>
<glyph d="M124 844v123l845 -378v-97l-845 -379v124l632 274l108 27v6l-108 29z" unicode="&gt;" glyph-name="greater" horiz-adv-x="1061"/>
<glyph d="M377 404q1 131 22 182.5t114 136.5q108 112 157.5 187.5t49.5 191.5q0 128 -68 198t-194 70q-118 0 -190 -68.5t-73 -185.5h-112l-2 6q-3 165 104 260t273 95q179 0 280.5 -101t101.5 -273q0 -135 -66.5 -239.5t-188.5 -218.5q-62 -53 -75.5 -99t-13.5 -142h-119zM512 0 h-139v154h139v-154z" unicode="?" glyph-name="question" horiz-adv-x="930"/>
<glyph d="M1751 513q-10 -216 -117 -375t-313 -159q-78 0 -130.5 51t-69.5 142q-53 -96 -131 -144.5t-180 -48.5q-131 0 -199 120t-49 317q23 254 141 407.5t286 153.5q94 0 151 -26.5t126 -81.5l-2 -2h3l-50 -574q-10 -132 30 -180t95 -48q142 0 224.5 124.5t93.5 323.5 q18 389 -150 604.5t-530 215.5q-323 0 -533 -235.5t-227 -619.5q-19 -379 163.5 -612.5t519.5 -233.5q88 0 178 22t152 57l31 -75q-64 -41 -167 -65t-198 -24q-380 0 -588 249.5t-189 681.5q18 424 252.5 683t609.5 259q391 0 587.5 -241.5t179.5 -665.5zM672 416 q-16 -155 26 -247t138 -92q86 0 156.5 43t122.5 157v8.5t1 7.5l47 544q-32 23 -71 36t-87 13q-134 0 -222 -119t-111 -351z" unicode="@" glyph-name="at" horiz-adv-x="1870"/>
<glyph d="M948 406h-639l-147 -406h-124l535 1456h113l531 -1456h-124zM347 513h562l-276 772h-6z" unicode="A" glyph-name="A" horiz-adv-x="1256"/>
<glyph d="M186 0v1456h425q227 0 354 -95.5t127 -287.5q0 -109 -61.5 -191t-165.5 -116q138 -17 225.5 -120t87.5 -241q0 -195 -126.5 -300t-338.5 -105h-527zM306 702v-601h407q161 0 253 79.5t92 222.5q0 131 -90.5 212.5t-242.5 86.5h-16h-403zM306 803h350q151 3 233.5 72.5 t82.5 201.5q0 138 -92 207.5t-269 69.5h-305v-551z" unicode="B" glyph-name="B" horiz-adv-x="1263"/>
<glyph d="M1189 455l2 -6q4 -214 -140 -342t-378 -128q-243 0 -392 175.5t-149 454.5v237q0 278 149 454.5t392 176.5q237 0 379.5 -125t138.5 -344l-2 -6h-112q0 176 -107.5 274.5t-296.5 98.5q-191 0 -306.5 -148t-115.5 -379v-239q0 -234 115.5 -381.5t306.5 -147.5 q189 0 296.5 96t107.5 279h112z" unicode="C" glyph-name="C" horiz-adv-x="1313"/>
<glyph d="M186 0v1456h444q267 0 441.5 -178t174.5 -457v-187q0 -279 -174.5 -456.5t-441.5 -177.5h-444zM306 1354v-1253h324q216 0 356 151t140 382v190q0 228 -140.5 379t-355.5 151h-324z" unicode="D" glyph-name="D" horiz-adv-x="1378"/>
<glyph d="M959 705h-653v-604h755v-101h-875v1456h870v-102h-750v-547h653v-102z" unicode="E" glyph-name="E" horiz-adv-x="1129"/>
<glyph d="M975 682h-669v-682h-120v1456h891v-102h-771v-569h669v-103z" unicode="F" glyph-name="F" horiz-adv-x="1128"/>
<glyph d="M1221 196q-48 -79 -177.5 -148t-326.5 -69q-251 0 -411 173t-160 448v267q0 270 155 440t401 170q237 0 376.5 -125t135.5 -318l-3 -6h-110q0 151 -104 249t-295 98q-196 0 -316 -142t-120 -364v-269q0 -228 125 -374t326 -146q153 0 250 46t135 107v373h-392v102h511 v-512z" unicode="G" glyph-name="G" horiz-adv-x="1410"/>
<glyph d="M1253 0h-120v670h-827v-670h-120v1456h120v-684h827v684h120v-1456z" unicode="H" glyph-name="H" horiz-adv-x="1439"/>
<glyph d="M337 0h-120v1456h120v-1456z" unicode="I" glyph-name="I" horiz-adv-x="554"/>
<glyph d="M820 1456h120v-1034q0 -203 -118.5 -323t-306.5 -120q-200 0 -317 106t-112 310l2 6h112q0 -164 80.5 -242.5t234.5 -78.5q133 0 219 92.5t86 249.5v1034z" unicode="J" glyph-name="J" horiz-adv-x="1122"/>
<glyph d="M463 691h-157v-691h-120v1456h120v-664h156l572 664h136l2 -5l-604 -700l664 -746l-2 -5h-144z" unicode="K" glyph-name="K" horiz-adv-x="1261"/>
<glyph d="M306 101h752v-101h-872v1456h120v-1355z" unicode="L" glyph-name="L" horiz-adv-x="1128"/>
<glyph d="M886 174h6l542 1282h146v-1456h-120v1223l-6 1l-522 -1224h-86l-534 1254l-6 -1v-1253h-120v1456h160z" unicode="M" glyph-name="M" horiz-adv-x="1766"/>
<glyph d="M1259 0h-120l-827 1246l-6 -1v-1245h-120v1456h120l827 -1243l6 1v1242h120v-1456z" unicode="N" glyph-name="N" horiz-adv-x="1445"/>
<glyph d="M1254 609q0 -282 -154.5 -456t-414.5 -174q-256 0 -408.5 174t-152.5 456v237q0 281 152 456t408 175q260 0 415 -175t155 -456v-237zM1135 848q0 236 -119.5 380t-331.5 144q-208 0 -324 -144t-116 -380v-239q0 -238 116.5 -382t324.5 -144q213 0 331.5 143.5 t118.5 382.5v239z" unicode="O" glyph-name="O" horiz-adv-x="1378"/>
<glyph d="M306 605v-605h-120v1456h502q229 0 354.5 -117t125.5 -308q0 -194 -125.5 -310t-354.5 -116h-382zM306 707h382q180 0 270 91.5t90 230.5q0 140 -90 232.5t-270 92.5h-382v-647z" unicode="P" glyph-name="P" horiz-adv-x="1263"/>
<glyph d="M1254 609q0 -133 -36.5 -245t-104.5 -195l232 -227l-83 -80l-235 225q-70 -53 -156.5 -80.5t-185.5 -27.5q-256 0 -408.5 174t-152.5 456v237q0 281 152 456t408 175q260 0 415 -175t155 -456v-237zM1135 848q0 236 -119.5 380t-331.5 144q-208 0 -324 -144t-116 -380 v-239q0 -238 116.5 -382t324.5 -144q213 0 331.5 143.5t118.5 382.5v239z" unicode="Q" glyph-name="Q" horiz-adv-x="1393"/>
<glyph d="M303 658v-658h-120v1455h485q234 0 359 -102.5t125 -299.5q0 -116 -66.5 -207.5t-188.5 -133.5q135 -34 194.5 -121.5t59.5 -219.5v-137q0 -68 16 -122t53 -88v-24h-122q-37 36 -52 101t-15 135v133q0 134 -86.5 211.5t-241.5 77.5h-400zM303 760h351q197 0 288 79.5 t91 214.5q0 144 -90.5 221.5t-274.5 77.5h-365v-593z" unicode="R" glyph-name="R" horiz-adv-x="1336"/>
<glyph d="M1007 354q0 112 -89 185t-302 137q-233 64 -354.5 159.5t-121.5 259.5q0 167 136 274.5t347 107.5q222 0 357 -121.5t131 -308.5l-2 -6h-112q0 144 -104.5 239t-269.5 95q-170 0 -266.5 -80.5t-96.5 -197.5q0 -111 87.5 -182.5t308.5 -133.5q230 -67 351 -165t121 -260 q0 -170 -141.5 -273.5t-356.5 -103.5t-375 109.5t-155 319.5l2 6h111q0 -169 127 -251.5t290 -82.5q167 0 272 76.5t105 197.5z" unicode="S" glyph-name="S" horiz-adv-x="1236"/>
<glyph d="M1176 1354h-496v-1354h-119v1354h-513v102h1128v-102z" unicode="T" glyph-name="T" horiz-adv-x="1224"/>
<glyph d="M1209 1456v-967q0 -240 -147 -375t-378 -135q-228 0 -372.5 135.5t-144.5 374.5v967h120v-967q0 -188 111.5 -298.5t285.5 -110.5q178 0 292 110t114 299v967h119z" unicode="U" glyph-name="U" horiz-adv-x="1374"/>
<glyph d="M596 255l29 -102h6l29 102l438 1201h129l-542 -1456h-114l-542 1456h130z" unicode="V" glyph-name="V" horiz-adv-x="1256"/>
<glyph d="M440 418l45 -235h6l51 235l304 1038h121l305 -1038l49 -236h6l48 236l257 1038h130l-373 -1456h-114l-329 1117l-36 157h-6l-34 -157l-333 -1117h-114l-373 1456h130z" unicode="W" glyph-name="W" horiz-adv-x="1813"/>
<glyph d="M628 834l411 622h145l-484 -718l500 -738h-143l-427 642l-426 -642h-145l500 738l-485 718h145z" unicode="X" glyph-name="X" horiz-adv-x="1256"/>
<glyph d="M625 647l451 809h139l-531 -924v-532h-119v537l-527 919h139z" unicode="Y" glyph-name="Y" horiz-adv-x="1256"/>
<glyph d="M238 101h893v-101h-1036v92l858 1262h-831v102h977v-87z" unicode="Z" glyph-name="Z" horiz-adv-x="1224"/>
<glyph d="M493 1562h-210v-1772h210v-102h-330v1976h330v-102z" unicode="[" glyph-name="bracketleft" horiz-adv-x="491"/>
<glyph d="M48 1456h117l608 -1581h-117z" unicode="\" glyph-name="backslash" horiz-adv-x="807"/>
<glyph d="M0 1664h331v-1976h-331v102h211v1772h-211v102z" unicode="]" glyph-name="bracketright" horiz-adv-x="491"/>
<glyph d="M193 729h-116l299 727h90l298 -727h-116l-196 484l-30 106h-6l-30 -106z" unicode="^" glyph-name="asciicircum" horiz-adv-x="852"/>
<glyph d="M882 -101h-881v101h881v-101z" unicode="_" glyph-name="underscore" horiz-adv-x="884"/>
<glyph d="M451 1252h-117l-241 261l2 5h154z" unicode="`" glyph-name="grave" horiz-adv-x="585"/>
<glyph d="M843 0q-11 57 -16.5 98t-5.5 84q-56 -88 -157 -145.5t-232 -57.5q-159 0 -246.5 84.5t-87.5 229.5t127 235t330 90h266v134q0 116 -73.5 182t-207.5 66q-123 0 -198.5 -60t-75.5 -151h-111l-2 6q-6 122 104.5 214.5t288.5 92.5t286 -91t108 -261v-532q0 -57 6.5 -111 t21.5 -107h-125zM445 85q138 0 239 65.5t137 168.5v207h-267q-146 0 -241 -69.5t-95 -167.5q0 -92 60.5 -148t166.5 -56z" unicode="a" glyph-name="a" horiz-adv-x="1101"/>
<glyph d="M1030 511q0 -243 -110 -387.5t-303 -144.5q-118 0 -204.5 47.5t-140.5 135.5l-20 -162h-94v1560h120v-644q54 89 138 137.5t199 48.5q195 0 305 -155.5t110 -414.5v-21zM909 532q0 207 -80 336.5t-237 129.5q-124 0 -200 -60.5t-114 -156.5v-495q40 -94 118.5 -148.5 t197.5 -54.5q157 0 236 116t79 312v21z" unicode="b" glyph-name="b"/>
<glyph d="M554 80q115 0 203.5 68t88.5 189h107l2 -6q4 -150 -118 -251t-283 -101q-216 0 -336.5 152t-120.5 389v42q0 236 120 388t336 152q174 0 290 -105t112 -276l-2 -6h-107q0 130 -85 207.5t-208 77.5q-170 0 -253 -125t-83 -313v-42q0 -191 83 -315.5t254 -124.5z" unicode="c" glyph-name="c" horiz-adv-x="1054"/>
<glyph d="M111 532q0 259 109.5 414.5t305.5 155.5q111 0 194.5 -47t138.5 -133v638h120v-1560h-98l-17 157q-55 -86 -140 -132t-200 -46q-194 0 -303.5 144.5t-109.5 387.5v21zM231 511q0 -196 78.5 -312t236.5 -116q116 0 193 51.5t120 142.5v513q-41 92 -116 150t-195 58 q-158 0 -237.5 -129.5t-79.5 -336.5v-21z" unicode="d" glyph-name="d"/>
<glyph d="M569 -21q-210 0 -341 148.5t-131 381.5v55q0 234 132.5 386t328.5 152q197 0 304.5 -126.5t107.5 -340.5v-93h-753v-33q0 -185 93.5 -307t258.5 -122q99 0 182 32.5t138 87.5l51 -82q-57 -60 -149.5 -99.5t-221.5 -39.5zM558 1000q-138 0 -227 -99t-104 -251l3 -6h620v25 q0 144 -75.5 237.5t-216.5 93.5z" unicode="e" glyph-name="e" horiz-adv-x="1054"/>
<glyph d="M240 0v984h-179v98h179v158q0 163 82 252t229 89q32 0 66 -5t70 -14l-16 -99q-24 6 -49 9.5t-59 3.5q-98 0 -150.5 -62t-52.5 -174v-158h245v-98h-245v-984h-120z" unicode="f" glyph-name="f" horiz-adv-x="658"/>
<glyph d="M115 532q0 259 109.5 414.5t305.5 155.5q115 0 200 -49.5t140 -140.5l17 170h97v-1088q0 -207 -114 -319t-323 -112q-78 0 -166.5 19t-154.5 52l23 101q65 -32 138.5 -48.5t157.5 -16.5q160 0 239 82t79 242v153q-55 -81 -139.5 -124.5t-195.5 -43.5q-194 0 -303.5 145 t-109.5 387v21zM235 511q0 -196 79 -312t237 -116q114 0 191.5 51.5t120.5 141.5v516q-41 91 -116.5 148.5t-193.5 57.5q-158 0 -238 -130t-80 -336v-21z" unicode="g" glyph-name="g"/>
<glyph d="M278 898q55 97 144.5 150.5t209.5 53.5q171 0 262.5 -106t91.5 -329v-667h-120v669q0 176 -69.5 252.5t-191.5 76.5q-126 0 -207.5 -61.5t-119.5 -164.5v-772h-120v1560h120v-662z" unicode="h" glyph-name="h"/>
<glyph d="M292 0h-119v1082h119v-1082zM292 1392h-119v168h119v-168z" unicode="i" glyph-name="i" horiz-adv-x="465"/>
<glyph d="M299 1082v-1171q0 -167 -80 -257.5t-222 -90.5q-30 0 -56.5 5t-55.5 14l13 101q16 -5 44 -10t49 -5q89 0 139 61.5t50 181.5v1171h119zM293 1396h-119v164h119v-164z" unicode="j" glyph-name="j" horiz-adv-x="484"/>
<glyph d="M405 527h-126v-527h-120v1560h120v-930h114l415 452h140l2 -5l-444 -491l480 -581l-3 -5h-137z" unicode="k" glyph-name="k" horiz-adv-x="1006"/>
<glyph d="M292 0h-119v1560h119v-1560z" unicode="l" glyph-name="l" horiz-adv-x="465"/>
<glyph d="M260 1082l11 -178q52 94 138.5 146t205.5 52q124 0 207 -59.5t119 -181.5q49 113 139.5 177t218.5 64q173 0 267.5 -115t94.5 -356v-631h-120v633q0 200 -71 282.5t-196 82.5q-137 0 -212 -83.5t-95 -215.5q0 -11 0.5 -22t0.5 -28v-649h-121v633q0 196 -71.5 280.5 t-196.5 84.5q-126 0 -200.5 -63.5t-104.5 -171.5v-763h-120v1082h106z" unicode="m" glyph-name="m" horiz-adv-x="1815"/>
<glyph d="M264 1082l11 -188q53 99 141 153.5t209 54.5q176 0 268 -107.5t92 -335.5v-659h-120v658q0 186 -69.5 263t-197.5 77t-206.5 -63t-113.5 -169v-766h-120v1082h106z" unicode="n" glyph-name="n"/>
<glyph d="M91 557q0 239 131 392t347 153q217 0 348 -153t131 -392v-33q0 -240 -130.5 -392.5t-346.5 -152.5q-218 0 -349 152.5t-131 392.5v33zM211 524q0 -188 95 -316t265 -128q167 0 262.5 128t95.5 316v33q0 185 -96 314t-264 129t-263 -129t-95 -314v-33z" unicode="o" glyph-name="o"/>
<glyph d="M1029 511q0 -243 -110 -387.5t-303 -144.5q-113 0 -198.5 43t-139.5 122v-560h-120v1498h92l22 -169q54 90 140 139.5t202 49.5q195 0 305 -155.5t110 -414.5v-21zM909 532q0 206 -82 336t-240 130q-119 0 -194.5 -57t-114.5 -148v-524q42 -88 119 -138.5t192 -50.5 q157 0 238.5 118t81.5 313v21z" unicode="p" glyph-name="p"/>
<glyph d="M111 532q0 259 109.5 414.5t305.5 155.5q112 0 195.5 -47t137.5 -134l19 161h96v-1498h-120v557q-55 -78 -138 -120t-192 -42q-194 0 -303.5 144.5t-109.5 387.5v21zM231 511q0 -196 78.5 -313.5t236.5 -117.5q111 0 187.5 49.5t120.5 136.5v535q-41 89 -115.5 144 t-190.5 55q-158 0 -237.5 -130.5t-79.5 -337.5v-21z" unicode="q" glyph-name="q"/>
<glyph d="M652 979l-85 6q-113 0 -185.5 -63.5t-103.5 -174.5v-747h-120v1082h105l15 -180v-12q47 100 126 156t188 56q22 0 42 -3.5t33 -7.5z" unicode="r" glyph-name="r" horiz-adv-x="699"/>
<glyph d="M806 277q0 76 -62.5 132.5t-225.5 92.5q-192 40 -285.5 109.5t-93.5 194.5q0 124 104.5 210t276.5 86q181 0 289 -91.5t103 -225.5l-2 -6h-111q0 89 -76.5 155t-202.5 66q-130 0 -196 -57t-66 -133q0 -74 56.5 -122.5t225.5 -85.5q190 -42 287.5 -117t97.5 -202 q0 -135 -109.5 -219.5t-289.5 -84.5q-197 0 -309.5 94t-106.5 224l2 6h110q7 -117 95.5 -170t208.5 -53q130 0 205 58t75 139z" unicode="s" glyph-name="s" horiz-adv-x="1043"/>
<glyph d="M345 1359v-277h238v-98h-238v-705q0 -106 38.5 -150.5t102.5 -44.5q22 0 42.5 2.5t48.5 8.5l18 -89q-24 -12 -59.5 -19.5t-70.5 -7.5q-114 0 -177.5 72t-63.5 228v705h-187v98h187v277h121z" unicode="t" glyph-name="t" horiz-adv-x="659"/>
<glyph d="M866 176q-52 -95 -139.5 -146t-207.5 -51q-171 0 -268 116t-97 360v627h120v-629q0 -198 67.5 -284t191.5 -86q135 0 215.5 60.5t113.5 165.5v773h120v-1082h-106z" unicode="u" glyph-name="u"/>
<glyph d="M466 271l35 -127h6l38 127l294 811h124l-411 -1082h-96l-412 1082h124z" unicode="v" glyph-name="v" horiz-adv-x="1002"/>
<glyph d="M391 351l42 -198h6l50 198l230 731h103l230 -731l50 -204h6l47 204l193 731h128l-315 -1082h-102l-245 740l-43 175h-6l-43 -175l-240 -740h-103l-314 1082h128z" unicode="w" glyph-name="w" horiz-adv-x="1550"/>
<glyph d="M498 640l293 442h142l-367 -531l382 -551h-140l-308 461l-308 -461h-142l383 551l-367 531h141z" unicode="x" glyph-name="x" horiz-adv-x="1002"/>
<glyph d="M465 293l38 -129h6l327 918h134l-470 -1255q-42 -110 -109 -187t-196 -77q-21 0 -51 4.5t-44 9.5l14 100q12 -2 38.5 -4.5t38.5 -2.5q78 0 125 55.5t80 142.5l57 146l-418 1068h133z" unicode="y" glyph-name="y" horiz-adv-x="1002"/>
<glyph d="M238 101h703v-101h-851v88l652 891h-632v103h783v-89z" unicode="z" glyph-name="z" horiz-adv-x="1002"/>
<glyph d="M637 -404q-183 55 -260.5 173.5t-77.5 288.5v226q0 122 -56.5 190.5t-174.5 68.5v104q118 0 174.5 67t56.5 190v228q0 171 77.5 290.5t260.5 174.5l26 -79q-127 -41 -185.5 -142t-58.5 -244v-228q0 -110 -45.5 -191t-138.5 -118q93 -39 138.5 -120.5t45.5 -190.5v-226 q0 -143 59.5 -241.5t187.5 -140.5z" unicode="{" glyph-name="braceleft" horiz-adv-x="676"/>
<glyph d="M284 -270h-120v1726h120v-1726z" unicode="|" glyph-name="bar" horiz-adv-x="452"/>
<glyph d="M9 -324q127 42 187 140.5t60 241.5v226q0 112 47 193t146 117q-99 35 -146 116t-47 194v228q0 144 -58.5 244.5t-185.5 141.5l26 79q182 -55 260 -174.5t78 -290.5v-228q0 -122 56 -189.5t175 -67.5v-104q-119 0 -175 -68.5t-56 -190.5v-226q0 -170 -77.5 -288.5 t-260.5 -173.5z" unicode="}" glyph-name="braceright" horiz-adv-x="676"/>
<glyph d="M1257 740q0 -129 -81 -223t-202 -94q-88 0 -160.5 35.5t-160.5 114.5q-64 54 -118.5 80.5t-110.5 26.5q-79 0 -131.5 -60.5t-52.5 -160.5l-97 15q0 131 79 222t202 91q87 0 160.5 -37t162.5 -113q63 -57 116.5 -82.5t110.5 -25.5q77 0 131 64t54 162z" unicode="~" glyph-name="asciitilde" horiz-adv-x="1402"/>
<glyph unicode=" " glyph-name="nonbreakingspace" horiz-adv-x="498"/>
<glyph d="M276 -374h-120v978h120v-978zM287 898h-142v184h142v-184z" unicode="¡" glyph-name="exclamdown" horiz-adv-x="452"/>
<glyph d="M554 80q115 0 203.5 68t88.5 189h108l2 -5q3 -130 -90 -225t-229 -120v-232h-120v226q-199 14 -309.5 163.5t-110.5 375.5v42q0 225 110.5 374.5t309.5 163.5v218h120v-223q143 -25 232.5 -126t86.5 -249l-2 -5h-108q0 130 -85 207.5t-208 77.5q-170 0 -253 -125 t-83 -313v-42q0 -191 83 -315.5t254 -124.5z" unicode="¢" glyph-name="cent" horiz-adv-x="1115"/>
<glyph d="M393 642l7 -176q0 -107 -25.5 -204t-71.5 -161h769v-101h-941v101h10q70 15 105 130t35 235l-7 176h-207v102h203l-11 296q0 204 106 320.5t284 116.5q187 0 281 -103.5t91 -277.5l-3 -6h-112q0 148 -68.5 216.5t-188.5 68.5q-125 0 -197.5 -88t-72.5 -247l11 -296h450 v-102h-447z" unicode="£" glyph-name="sterling" horiz-adv-x="1170"/>
<glyph d="M1131 133q-80 -74 -180.5 -113.5t-210.5 -39.5q-111 0 -211.5 39.5t-179.5 112.5l-155 -158l-85 86l159 161q-60 81 -92 179t-32 208q0 112 34.5 214t98.5 184l-168 171l85 87l167 -170q78 67 175 103.5t204 36.5q106 0 203 -37.5t176 -104.5l170 173l86 -88l-171 -175 q62 -82 96 -182.5t34 -211.5q0 -108 -32 -206t-90 -178l163 -164l-86 -87zM257 608q0 -215 141.5 -366t341.5 -151q198 0 339.5 151t141.5 366q0 213 -141.5 363.5t-339.5 150.5q-200 0 -341.5 -150.5t-141.5 -363.5z" unicode="¤" glyph-name="currency" horiz-adv-x="1481"/>
<glyph d="M607 733l424 723h139l-455 -751h371v-87h-421v-206h421v-86h-421v-326h-119v326h-416v86h416v206h-416v87h370l-455 751h139z" unicode="¥" glyph-name="yen" horiz-adv-x="1223"/>
<glyph d="M159 -270v771h120v-771h-120zM279 698h-120v758h120v-758z" unicode="¦" glyph-name="brokenbar" horiz-adv-x="444"/>
<glyph d="M1119 431q0 -98 -61 -168.5t-171 -103.5q94 -50 141 -120.5t47 -177.5q0 -166 -127.5 -261t-341.5 -95q-213 0 -358 102.5t-140 322.5l2 6l112 2q0 -173 113 -252t271 -79q163 0 255.5 70.5t92.5 181.5q0 106 -77 166t-292 121q-243 61 -360 149.5t-117 255.5 q0 98 58.5 169t164.5 105q-90 49 -134 119.5t-44 175.5q0 161 128 259t343 98q222 0 346.5 -111.5t120.5 -313.5l-2 -6h-112q0 141 -94 235t-259 94q-173 0 -262 -71t-89 -181q0 -114 74 -173t299 -122q247 -65 360 -148.5t113 -248.5zM596 729q-40 9 -75.5 19.5t-66.5 22.5 q-112 -14 -169 -73t-57 -145q0 -116 79 -175t323 -127q34 -10 65 -19t60 -18q115 13 179.5 71.5t64.5 142.5q0 108 -85 170.5t-318 130.5z" unicode="§" glyph-name="section" horiz-adv-x="1239"/>
<glyph d="M805 1299h-173v157h173v-157zM336 1299h-174v157h174v-157z" unicode="¨" glyph-name="dieresis" horiz-adv-x="959"/>
<glyph d="M1113 596l2 -6q4 -150 -78.5 -229t-229.5 -79q-151 0 -242 106.5t-91 280.5v119q0 172 91 279.5t242 107.5q147 0 230 -79t79 -228l-2 -6h-91q0 113 -55 168t-161 55q-110 0 -172 -83.5t-62 -212.5v-120q0 -132 61.5 -214.5t172.5 -82.5q107 0 161 54t54 170h91zM192 729 q0 -279 182.5 -471.5t442.5 -192.5q257 0 440.5 192.5t183.5 471.5q0 277 -183 468.5t-441 191.5q-260 0 -442.5 -191.5t-182.5 -468.5zM107 729q0 315 207 531t503 216q295 0 502 -216t207 -531q0 -316 -207.5 -533t-501.5 -217q-296 0 -503 217t-207 533z" unicode="©" glyph-name="copyright" horiz-adv-x="1637"/>
<glyph d="M649 706q-9 25 -14.5 52.5t-7.5 55.5q-37 -53 -98.5 -87.5t-144.5 -34.5q-119 0 -184 61t-65 167q0 105 79 163t229 58h182v61q0 85 -41 131.5t-120 46.5q-92 0 -142.5 -37.5t-50.5 -108.5l-99 9l-2 6q-5 98 77 163t217 65q123 0 196.5 -71.5t73.5 -204.5v-314 q0 -48 6 -92.5t20 -88.5h-111zM404 787q70 0 135.5 38t85.5 85v147h-181q-96 0 -148.5 -38.5t-52.5 -94.5q0 -66 39.5 -101.5t121.5 -35.5z" unicode="ª" glyph-name="ordfeminine" horiz-adv-x="906"/>
<glyph d="M221 520l276 -388h-105l-295 379v19l295 379h105zM556 520l276 -388h-105l-295 379v19l295 379h105z" unicode="«" glyph-name="guillemotleft" horiz-adv-x="933"/>
<glyph d="M936 386h-120v284h-692v106h812v-390z" unicode="¬" glyph-name="logicalnot" horiz-adv-x="1117"/>
<glyph d="M720 570h-590v101h590v-101z" unicode="­" glyph-name="uni00AD" horiz-adv-x="860"/>
<glyph d="M102 729q0 315 207 531t503 216q295 0 502.5 -216t207.5 -531q0 -316 -207.5 -533t-502.5 -217q-296 0 -503 217t-207 533zM187 729q0 -279 183 -471.5t442 -192.5q258 0 441 192.5t183 471.5q0 277 -183 468.5t-441 191.5q-259 0 -442 -191.5t-183 -468.5zM650 672v-356 h-98v850h258q147 0 226 -63t79 -185q0 -68 -36.5 -117.5t-104.5 -79.5q68 -25 98 -78t30 -128v-56q0 -40 4 -73t13 -54v-16h-102q-10 21 -12 61.5t-2 82.5v54q0 84 -38 121t-127 37h-188zM650 763h181q79 0 132.5 40.5t53.5 112.5q0 85 -46 122t-161 37h-160v-312z" unicode="®" glyph-name="registered" horiz-adv-x="1642"/>
<glyph d="M776 1359h-670v97h670v-97z" unicode="¯" glyph-name="macron" horiz-adv-x="874"/>
<glyph d="M776 1359h-670v97h670v-97z" unicode="ˉ" glyph-name="macron" horiz-adv-x="874"/>
<glyph d="M143 1227q0 102 72 176t173 74q99 0 170.5 -74t71.5 -176q0 -104 -71 -175.5t-171 -71.5q-101 0 -173 72t-72 175zM233 1227q0 -68 44.5 -112t110.5 -44q65 0 108.5 44t43.5 112t-43.5 113.5t-108.5 45.5q-66 0 -110.5 -46t-44.5 -113z" unicode="°" glyph-name="degree" horiz-adv-x="774"/>
<glyph d="M609 829h392v-101h-392v-439h-110v439h-414v101h414v438h110v-438zM968 42h-835v102h835v-102z" unicode="±" glyph-name="plusminus" horiz-adv-x="1086"/>
<glyph d="M687 667h-569v90l315 282q77 71 104 115.5t27 91.5q0 64 -39 103t-118 39q-87 0 -134 -42t-47 -108h-100l-2 6q-6 97 72.5 166t210.5 69q124 0 195 -60.5t71 -173.5q0 -75 -47 -136t-150 -158l-214 -188l2 -6h423v-90z" unicode="²" glyph-name="twosuperior" horiz-adv-x="835"/>
<glyph d="M695 1253q0 -58 -35.5 -105t-98.5 -72q72 -22 110 -70.5t38 -119.5q0 -109 -83.5 -170t-216.5 -61q-121 0 -207.5 58.5t-81.5 168.5l2 6h101q0 -63 51 -103t135 -40q90 0 140.5 38t50.5 103q0 75 -46.5 109.5t-139.5 34.5h-122v89h122q88 0 130.5 35t42.5 99 q0 59 -45 96.5t-133 37.5q-75 0 -124.5 -35.5t-49.5 -93.5h-99l-2 6q-6 94 74.5 154t200.5 60q132 0 209 -58.5t77 -166.5z" unicode="³" glyph-name="threesuperior" horiz-adv-x="852"/>
<glyph d="M328 1518h147l3 -6l-249 -260h-107z" unicode="´" glyph-name="acute" horiz-adv-x="576"/>
<glyph d="M281 1082v-633q0 -207 71 -288t192 -81q137 0 212 59.5t103 170.5v772h120v-1082h-103l-11 155q-48 -85 -126 -130.5t-187 -45.5q-88 0 -157 30t-114 96v-521h-119v1498h119z" unicode="µ" glyph-name="mu"/>
<glyph d="M680 0v520h-106q-233 0 -362.5 129.5t-129.5 338.5q0 207 129.5 337.5t362.5 130.5h226v-1456h-120z" unicode="¶" glyph-name="paragraph" horiz-adv-x="973"/>
<glyph d="M321 624h-155v180h155v-180z" unicode="·" glyph-name="periodcentered" horiz-adv-x="503"/>
<glyph d="M246 0l-12 -64q79 -9 127.5 -48.5t48.5 -122.5q0 -91 -79 -145.5t-226 -54.5l-7 78q90 0 151.5 30.5t61.5 89.5q0 57 -41.5 79.5t-145.5 30.5l29 127h93z" unicode="¸" glyph-name="cedilla" horiz-adv-x="498"/>
<glyph d="M345 665h-109v703l-148 -7v93l257 23v-812z" unicode="¹" glyph-name="onesuperior" horiz-adv-x="511"/>
<glyph d="M135 1142q0 148 87.5 241.5t235.5 93.5t236 -93.5t88 -241.5v-117q0 -149 -87.5 -241.5t-234.5 -92.5q-149 0 -237 92.5t-88 241.5v117zM243 1025q0 -107 54.5 -173t162.5 -66q103 0 158.5 66.5t55.5 172.5v117q0 104 -56 171t-160 67t-159.5 -67t-55.5 -171v-117z" unicode="º" glyph-name="ordmasculine" horiz-adv-x="922"/>
<glyph d="M261 551l-26 215h123l25 -34h4l93 -128l40 -53l-1 -1l1 -1l-23 -30l-110 -151h-8l-21 -28l-123 -1zM607 551l-26 215h123l25 -34h4l93 -128l40 -53l-1 -1l1 -1l-23 -30l-110 -151h-8l-21 -28l-123 -1z" unicode="»" glyph-name="guillemotright" horiz-adv-x="928"/>
<glyph d="M434 664h-109v703l-148 -7v93l257 23v-812zM416 129l-74 48l711 1138l74 -48zM1324 260h153v-90h-153v-170h-108v170h-430l-4 67l429 564h113v-541zM911 260h305v402l-6 1l-25 -43z" unicode="¼" glyph-name="onequarter" horiz-adv-x="1561"/>
<glyph d="M429 129l-74 48l711 1138l74 -48zM434 664h-109v703l-148 -7v93l257 23v-812zM1498 0h-569v90l315 282q77 71 104 115.5t27 91.5q0 64 -39 103t-118 39q-87 0 -134 -42t-47 -108h-100l-2 6q-6 97 72.5 166t210.5 69q124 0 195 -60.5t71 -173.5q0 -75 -47 -136t-150 -158 l-214 -188l2 -6h423v-90z" unicode="½" glyph-name="onehalf" horiz-adv-x="1567"/>
<glyph d="M599 129l-74 48l711 1138l74 -48zM1513 260h153v-90h-153v-170h-108v170h-430l-4 67l429 564h113v-541zM1100 260h305v402l-6 1l-25 -43zM711 1254q0 -58 -35.5 -105t-98.5 -72q72 -22 110 -70.5t38 -119.5q0 -109 -83.5 -170t-216.5 -61q-121 0 -207.5 58.5t-81.5 168.5 l2 6h101q0 -63 51 -103t135 -40q90 0 140.5 38t50.5 103q0 75 -46.5 109.5t-139.5 34.5h-122v89h122q88 0 130.5 35t42.5 99q0 59 -45 96.5t-133 37.5q-75 0 -124.5 -35.5t-49.5 -93.5h-99l-2 6q-6 94 74.5 154t200.5 60q132 0 209 -58.5t77 -166.5z" unicode="¾" glyph-name="threequarters" horiz-adv-x="1712"/>
<glyph d="M572 678q-2 -131 -23.5 -183t-113.5 -136q-109 -113 -158 -188.5t-49 -189.5q0 -128 67.5 -198t194.5 -70q117 0 189 68.5t74 185.5h112l2 -6q2 -165 -105 -260t-272 -95q-180 0 -281 101t-101 273q0 133 66 237.5t189 219.5q61 52 75 98.5t14 142.5h120zM436 1083h139 v-155h-139v155z" unicode="¿" glyph-name="questiondown" horiz-adv-x="958"/>
<glyph d="M948 406h-639l-147 -406h-124l535 1456h113l531 -1456h-124zM347 513h562l-276 772h-6zM698 1603h-117l-241 261l2 5h154z" unicode="À" glyph-name="Agrave" horiz-adv-x="1256"/>
<glyph d="M948 406h-639l-147 -406h-124l535 1456h113l531 -1456h-124zM347 513h562l-276 772h-6zM765 1863h147l3 -6l-249 -260h-107z" unicode="Á" glyph-name="Aacute" horiz-adv-x="1256"/>
<glyph d="M948 406h-639l-147 -406h-124l535 1456h113l531 -1456h-124zM347 513h562l-276 772h-6zM907 1619v-18h-112l-167 168l-166 -168h-110v21l227 221h98z" unicode="Â" glyph-name="Acircumflex" horiz-adv-x="1256"/>
<glyph d="M948 406h-639l-147 -406h-124l535 1456h113l531 -1456h-124zM347 513h562l-276 772h-6zM948 1822q0 -88 -55 -146t-137 -58q-74 0 -151 55t-131 55q-47 0 -79 -35t-32 -89l-80 18q0 86 54 144.5t137 58.5q65 0 147 -55t135 -55q46 0 79 36t33 91z" unicode="Ã" glyph-name="Atilde" horiz-adv-x="1256"/>
<glyph d="M948 406h-639l-147 -406h-124l535 1456h113l531 -1456h-124zM347 513h562l-276 772h-6zM954 1641h-173v157h173v-157zM485 1641h-174v157h174v-157z" unicode="Ä" glyph-name="Adieresis" horiz-adv-x="1256"/>
<glyph d="M948 406h-639l-147 -406h-124l535 1456h113l531 -1456h-124zM347 513h562l-276 772h-6zM472 1730q0 63 45.5 108t108.5 45q62 0 106.5 -44.5t44.5 -108.5q0 -65 -44 -107t-107 -42q-64 0 -109 42t-45 107zM549 1730q0 -33 22.5 -55t54.5 -22q31 0 53 21.5t22 55.5 t-22 56.5t-53 22.5q-32 0 -54.5 -22.5t-22.5 -56.5z" unicode="Å" glyph-name="Aring" horiz-adv-x="1256"/>
<glyph d="M1839 0h-817l-17 389h-597l-229 -389h-146l881 1456h864v-102h-694l23 -545h589v-102h-585l26 -606h702v-101zM475 502h526l-35 839l-6 1l-15 -44z" unicode="Æ" glyph-name="AE" horiz-adv-x="1900"/>
<glyph d="M1189 455l2 -6q4 -214 -140 -342t-378 -128q-243 0 -392 175.5t-149 454.5v237q0 278 149 454.5t392 176.5q237 0 379.5 -125t138.5 -344l-2 -6h-112q0 176 -107.5 274.5t-296.5 98.5q-191 0 -306.5 -148t-115.5 -379v-239q0 -234 115.5 -381.5t306.5 -147.5 q189 0 296.5 96t107.5 279h112zM714 -9l-12 -64q79 -9 127.5 -48.5t48.5 -122.5q0 -91 -79 -145.5t-226 -54.5l-7 78q90 0 151.5 30.5t61.5 89.5q0 57 -41.5 79.5t-145.5 30.5l29 127h93z" unicode="Ç" glyph-name="Ccedilla" horiz-adv-x="1313"/>
<glyph d="M959 705h-653v-604h755v-101h-875v1456h870v-102h-750v-547h653v-102zM689 1603h-117l-241 261l2 5h154z" unicode="È" glyph-name="Egrave" horiz-adv-x="1129"/>
<glyph d="M959 705h-653v-604h755v-101h-875v1456h870v-102h-750v-547h653v-102zM756 1863h147l3 -6l-249 -260h-107z" unicode="É" glyph-name="Eacute" horiz-adv-x="1129"/>
<glyph d="M959 705h-653v-604h755v-101h-875v1456h870v-102h-750v-547h653v-102zM898 1619v-18h-112l-167 168l-166 -168h-110v21l227 221h98z" unicode="Ê" glyph-name="Ecircumflex" horiz-adv-x="1129"/>
<glyph d="M959 705h-653v-604h755v-101h-875v1456h870v-102h-750v-547h653v-102zM945 1641h-173v157h173v-157zM476 1641h-174v157h174v-157z" unicode="Ë" glyph-name="Edieresis" horiz-adv-x="1129"/>
<glyph d="M337 0h-120v1456h120v-1456zM348 1603h-117l-241 261l2 5h154z" unicode="Ì" glyph-name="Igrave" horiz-adv-x="554"/>
<glyph d="M337 0h-120v1456h120v-1456zM414 1863h147l3 -6l-249 -260h-107z" unicode="Í" glyph-name="Iacute" horiz-adv-x="554"/>
<glyph d="M337 0h-120v1456h120v-1456zM557 1619v-18h-112l-167 168l-166 -168h-110v21l227 221h98z" unicode="Î" glyph-name="Icircumflex" horiz-adv-x="554"/>
<glyph d="M337 0h-120v1456h120v-1456zM604 1641h-173v157h173v-157zM135 1641h-174v157h174v-157z" unicode="Ï" glyph-name="Idieresis" horiz-adv-x="554"/>
<glyph d="M186 0v689h-153v102h153v665h444q267 0 441.5 -178t174.5 -457v-187q0 -279 -174.5 -456.5t-441.5 -177.5h-444zM645 689h-339v-588h324q216 0 356 151t140 382v190q0 228 -140.5 379t-355.5 151h-324v-563h339v-102z" unicode="Ð" glyph-name="Eth" horiz-adv-x="1378"/>
<glyph d="M1259 0h-120l-827 1246l-6 -1v-1245h-120v1456h120l827 -1243l6 1v1242h120v-1456zM1042 1822q0 -88 -55 -146t-137 -58q-74 0 -151 55t-131 55q-47 0 -79 -35t-32 -89l-80 18q0 86 54 144.5t137 58.5q65 0 147 -55t135 -55q46 0 79 36t33 91z" unicode="Ñ" glyph-name="Ntilde" horiz-adv-x="1445"/>
<glyph d="M1254 609q0 -282 -154.5 -456t-414.5 -174q-256 0 -408.5 174t-152.5 456v237q0 281 152 456t408 175q260 0 415 -175t155 -456v-237zM1135 848q0 236 -119.5 380t-331.5 144q-208 0 -324 -144t-116 -380v-239q0 -238 116.5 -382t324.5 -144q213 0 331.5 143.5 t118.5 382.5v239zM756 1624h-117l-241 261l2 5h154z" unicode="Ò" glyph-name="Ograve" horiz-adv-x="1378"/>
<glyph d="M1254 609q0 -282 -154.5 -456t-414.5 -174q-256 0 -408.5 174t-152.5 456v237q0 281 152 456t408 175q260 0 415 -175t155 -456v-237zM1135 848q0 236 -119.5 380t-331.5 144q-208 0 -324 -144t-116 -380v-239q0 -238 116.5 -382t324.5 -144q213 0 331.5 143.5 t118.5 382.5v239zM823 1884h147l3 -6l-249 -260h-107z" unicode="Ó" glyph-name="Oacute" horiz-adv-x="1378"/>
<glyph d="M1254 609q0 -282 -154.5 -456t-414.5 -174q-256 0 -408.5 174t-152.5 456v237q0 281 152 456t408 175q260 0 415 -175t155 -456v-237zM1135 848q0 236 -119.5 380t-331.5 144q-208 0 -324 -144t-116 -380v-239q0 -238 116.5 -382t324.5 -144q213 0 331.5 143.5 t118.5 382.5v239zM965 1640v-18h-112l-167 168l-166 -168h-110v21l227 221h98z" unicode="Ô" glyph-name="Ocircumflex" horiz-adv-x="1378"/>
<glyph d="M1254 609q0 -282 -154.5 -456t-414.5 -174q-256 0 -408.5 174t-152.5 456v237q0 281 152 456t408 175q260 0 415 -175t155 -456v-237zM1135 848q0 236 -119.5 380t-331.5 144q-208 0 -324 -144t-116 -380v-239q0 -238 116.5 -382t324.5 -144q213 0 331.5 143.5 t118.5 382.5v239zM1006 1843q0 -88 -55 -146t-137 -58q-74 0 -151 55t-131 55q-47 0 -79 -35t-32 -89l-80 18q0 86 54 144.5t137 58.5q65 0 147 -55t135 -55q46 0 79 36t33 91z" unicode="Õ" glyph-name="Otilde" horiz-adv-x="1378"/>
<glyph d="M1254 609q0 -282 -154.5 -456t-414.5 -174q-256 0 -408.5 174t-152.5 456v237q0 281 152 456t408 175q260 0 415 -175t155 -456v-237zM1135 848q0 236 -119.5 380t-331.5 144q-208 0 -324 -144t-116 -380v-239q0 -238 116.5 -382t324.5 -144q213 0 331.5 143.5 t118.5 382.5v239zM1012 1662h-173v157h173v-157zM543 1662h-174v157h174v-157z" unicode="Ö" glyph-name="Odieresis" horiz-adv-x="1378"/>
<glyph d="M93 318l358 365l-343 350l79 80l342 -350l343 350l79 -80l-343 -350l358 -365l-79 -79l-358 364l-357 -364z" unicode="×" glyph-name="multiply" horiz-adv-x="1072"/>
<glyph d="M1254 609q0 -282 -154.5 -456t-414.5 -174q-92 0 -171.5 23.5t-144.5 68.5l-96 -155h-104l131 212q-86 84 -131 207.5t-45 273.5v237q0 281 152 456t408 175q109 0 201.5 -33t165.5 -95l96 156h104l-136 -222q67 -84 103 -195.5t36 -241.5v-237zM244 609 q0 -118 29.5 -214.5t85.5 -160.5l6 -1l627 1021q-58 57 -135.5 87.5t-172.5 30.5q-208 0 -324 -144t-116 -380v-239zM1135 848q0 97 -21.5 180.5t-60.5 144.5h-6l-621 -1009q51 -40 116.5 -60.5t142.5 -20.5q213 0 331.5 143.5t118.5 382.5v239z" unicode="Ø" glyph-name="Oslash" horiz-adv-x="1379"/>
<glyph d="M1209 1456v-967q0 -240 -147 -375t-378 -135q-228 0 -372.5 135.5t-144.5 374.5v967h120v-967q0 -188 111.5 -298.5t285.5 -110.5q178 0 292 110t114 299v967h119zM767 1603h-117l-241 261l2 5h154z" unicode="Ù" glyph-name="Ugrave" horiz-adv-x="1374"/>
<glyph d="M1209 1456v-967q0 -240 -147 -375t-378 -135q-228 0 -372.5 135.5t-144.5 374.5v967h120v-967q0 -188 111.5 -298.5t285.5 -110.5q178 0 292 110t114 299v967h119zM834 1863h147l3 -6l-249 -260h-107z" unicode="Ú" glyph-name="Uacute" horiz-adv-x="1374"/>
<glyph d="M1209 1456v-967q0 -240 -147 -375t-378 -135q-228 0 -372.5 135.5t-144.5 374.5v967h120v-967q0 -188 111.5 -298.5t285.5 -110.5q178 0 292 110t114 299v967h119zM976 1619v-18h-112l-167 168l-166 -168h-110v21l227 221h98z" unicode="Û" glyph-name="Ucircumflex" horiz-adv-x="1374"/>
<glyph d="M1209 1456v-967q0 -240 -147 -375t-378 -135q-228 0 -372.5 135.5t-144.5 374.5v967h120v-967q0 -188 111.5 -298.5t285.5 -110.5q178 0 292 110t114 299v967h119zM1023 1641h-173v157h173v-157zM554 1641h-174v157h174v-157z" unicode="Ü" glyph-name="Udieresis" horiz-adv-x="1374"/>
<glyph d="M625 647l451 809h139l-531 -924v-532h-119v537l-527 919h139zM762 1856h147l3 -6l-249 -260h-107z" unicode="Ý" glyph-name="Yacute" horiz-adv-x="1256"/>
<glyph d="M303 1456v-304h324q221 0 345 -115.5t124 -298.5q0 -185 -124 -299.5t-345 -114.5h-324v-324h-120v1456h120zM303 1051v-626h324q173 0 261 92t88 219q0 130 -88 222.5t-261 92.5h-324z" unicode="Þ" glyph-name="Thorn" horiz-adv-x="1214"/>
<glyph d="M271 0h-120v1082q0 204 102.5 317t273.5 113q140 0 232 -79.5t92 -222.5q0 -109 -61.5 -215.5t-61.5 -184.5q0 -86 184 -228t184 -287q0 -153 -110 -234.5t-266 -81.5q-86 0 -176.5 23.5t-129.5 56.5l34 101q41 -31 114.5 -55.5t143.5 -24.5q125 0 197.5 60t72.5 155 q0 99 -184 240.5t-184 276.5q0 93 63 201.5t63 190.5q0 92 -60 149.5t-137 57.5q-121 0 -193.5 -85.5t-72.5 -243.5v-1082z" unicode="ß" glyph-name="germandbls" horiz-adv-x="1200"/>
<glyph d="M843 0q-11 57 -16.5 98t-5.5 84q-56 -88 -157 -145.5t-232 -57.5q-159 0 -246.5 84.5t-87.5 229.5t127 235t330 90h266v134q0 116 -73.5 182t-207.5 66q-123 0 -198.5 -60t-75.5 -151h-111l-2 6q-6 122 104.5 214.5t288.5 92.5t286 -91t108 -261v-532q0 -57 6.5 -111 t21.5 -107h-125zM445 85q138 0 239 65.5t137 168.5v207h-267q-146 0 -241 -69.5t-95 -167.5q0 -92 60.5 -148t166.5 -56zM613 1282h-117l-241 261l2 5h154z" unicode="à" glyph-name="agrave" horiz-adv-x="1101"/>
<glyph d="M843 0q-11 57 -16.5 98t-5.5 84q-56 -88 -157 -145.5t-232 -57.5q-159 0 -246.5 84.5t-87.5 229.5t127 235t330 90h266v134q0 116 -73.5 182t-207.5 66q-123 0 -198.5 -60t-75.5 -151h-111l-2 6q-6 122 104.5 214.5t288.5 92.5t286 -91t108 -261v-532q0 -57 6.5 -111 t21.5 -107h-125zM445 85q138 0 239 65.5t137 168.5v207h-267q-146 0 -241 -69.5t-95 -167.5q0 -92 60.5 -148t166.5 -56zM680 1542h147l3 -6l-249 -260h-107z" unicode="á" glyph-name="aacute" horiz-adv-x="1101"/>
<glyph d="M843 0q-11 57 -16.5 98t-5.5 84q-56 -88 -157 -145.5t-232 -57.5q-159 0 -246.5 84.5t-87.5 229.5t127 235t330 90h266v134q0 116 -73.5 182t-207.5 66q-123 0 -198.5 -60t-75.5 -151h-111l-2 6q-6 122 104.5 214.5t288.5 92.5t286 -91t108 -261v-532q0 -57 6.5 -111 t21.5 -107h-125zM445 85q138 0 239 65.5t137 168.5v207h-267q-146 0 -241 -69.5t-95 -167.5q0 -92 60.5 -148t166.5 -56zM822 1298v-18h-112l-167 168l-166 -168h-110v21l227 221h98z" unicode="â" glyph-name="acircumflex" horiz-adv-x="1101"/>
<glyph d="M843 0q-11 57 -16.5 98t-5.5 84q-56 -88 -157 -145.5t-232 -57.5q-159 0 -246.5 84.5t-87.5 229.5t127 235t330 90h266v134q0 116 -73.5 182t-207.5 66q-123 0 -198.5 -60t-75.5 -151h-111l-2 6q-6 122 104.5 214.5t288.5 92.5t286 -91t108 -261v-532q0 -57 6.5 -111 t21.5 -107h-125zM445 85q138 0 239 65.5t137 168.5v207h-267q-146 0 -241 -69.5t-95 -167.5q0 -92 60.5 -148t166.5 -56zM863 1501q0 -88 -55 -146t-137 -58q-74 0 -151 55t-131 55q-47 0 -79 -35t-32 -89l-80 18q0 86 54 144.5t137 58.5q65 0 147 -55t135 -55q46 0 79 36 t33 91z" unicode="ã" glyph-name="atilde" horiz-adv-x="1101"/>
<glyph d="M843 0q-11 57 -16.5 98t-5.5 84q-56 -88 -157 -145.5t-232 -57.5q-159 0 -246.5 84.5t-87.5 229.5t127 235t330 90h266v134q0 116 -73.5 182t-207.5 66q-123 0 -198.5 -60t-75.5 -151h-111l-2 6q-6 122 104.5 214.5t288.5 92.5t286 -91t108 -261v-532q0 -57 6.5 -111 t21.5 -107h-125zM445 85q138 0 239 65.5t137 168.5v207h-267q-146 0 -241 -69.5t-95 -167.5q0 -92 60.5 -148t166.5 -56zM869 1320h-173v157h173v-157zM400 1320h-174v157h174v-157z" unicode="ä" glyph-name="adieresis" horiz-adv-x="1101"/>
<glyph d="M843 0q-11 57 -16.5 98t-5.5 84q-56 -88 -157 -145.5t-232 -57.5q-159 0 -246.5 84.5t-87.5 229.5t127 235t330 90h266v134q0 116 -73.5 182t-207.5 66q-123 0 -198.5 -60t-75.5 -151h-111l-2 6q-6 122 104.5 214.5t288.5 92.5t286 -91t108 -261v-532q0 -57 6.5 -111 t21.5 -107h-125zM445 85q138 0 239 65.5t137 168.5v207h-267q-146 0 -241 -69.5t-95 -167.5q0 -92 60.5 -148t166.5 -56zM387 1409q0 63 45.5 108t108.5 45q62 0 106.5 -44.5t44.5 -108.5q0 -65 -44 -107t-107 -42q-64 0 -109 42t-45 107zM464 1409q0 -33 22.5 -55t54.5 -22 q31 0 53 21.5t22 55.5t-22 56.5t-53 22.5q-32 0 -54.5 -22.5t-22.5 -56.5z" unicode="å" glyph-name="aring" horiz-adv-x="1101"/>
<glyph d="M1295 -21q-138 0 -241 55.5t-163 157.5q-49 -87 -159.5 -150t-269.5 -63q-170 0 -262.5 84.5t-92.5 229.5q0 147 113 231.5t326 84.5h262v111q0 133 -63 206.5t-182 73.5q-130 0 -205 -67t-75 -168l-111 12l-2 6q-5 138 103.5 228.5t289.5 90.5q121 0 208.5 -54 t127.5 -157q61 99 156.5 155t209.5 56q200 0 311.5 -124t111.5 -340v-100h-754v-29q0 -191 89.5 -310t271.5 -119q103 0 181.5 32.5t142.5 86.5l47 -87q-60 -55 -148.5 -94t-222.5 -39zM479 79q102 0 197.5 53.5t131.5 115.5v264h-260q-156 0 -238.5 -64t-82.5 -159 q0 -97 65 -153.5t187 -56.5zM1265 1000q-138 0 -224 -101.5t-99 -257.5l2 -5h625v31q0 146 -77.5 239.5t-226.5 93.5z" unicode="æ" glyph-name="ae" horiz-adv-x="1796"/>
<glyph d="M554 80q115 0 203.5 68t88.5 189h107l2 -6q4 -150 -118 -251t-283 -101q-216 0 -336.5 152t-120.5 389v42q0 236 120 388t336 152q174 0 290 -105t112 -276l-2 -6h-107q0 130 -85 207.5t-208 77.5q-170 0 -253 -125t-83 -313v-42q0 -191 83 -315.5t254 -124.5zM583 -9 l-12 -64q79 -9 127.5 -48.5t48.5 -122.5q0 -91 -79 -145.5t-226 -54.5l-7 78q90 0 151.5 30.5t61.5 89.5q0 57 -41.5 79.5t-145.5 30.5l29 127h93z" unicode="ç" glyph-name="ccedilla" horiz-adv-x="1054"/>
<glyph d="M569 -21q-210 0 -341 148.5t-131 381.5v55q0 234 132.5 386t328.5 152q197 0 304.5 -126.5t107.5 -340.5v-93h-753v-33q0 -185 93.5 -307t258.5 -122q99 0 182 32.5t138 87.5l51 -82q-57 -60 -149.5 -99.5t-221.5 -39.5zM558 1000q-138 0 -227 -99t-104 -251l3 -6h620v25 q0 144 -75.5 237.5t-216.5 93.5zM618 1282h-117l-241 261l2 5h154z" unicode="è" glyph-name="egrave" horiz-adv-x="1054"/>
<glyph d="M569 -21q-210 0 -341 148.5t-131 381.5v55q0 234 132.5 386t328.5 152q197 0 304.5 -126.5t107.5 -340.5v-93h-753v-33q0 -185 93.5 -307t258.5 -122q99 0 182 32.5t138 87.5l51 -82q-57 -60 -149.5 -99.5t-221.5 -39.5zM558 1000q-138 0 -227 -99t-104 -251l3 -6h620v25 q0 144 -75.5 237.5t-216.5 93.5zM685 1542h147l3 -6l-249 -260h-107z" unicode="é" glyph-name="eacute" horiz-adv-x="1054"/>
<glyph d="M569 -21q-210 0 -341 148.5t-131 381.5v55q0 234 132.5 386t328.5 152q197 0 304.5 -126.5t107.5 -340.5v-93h-753v-33q0 -185 93.5 -307t258.5 -122q99 0 182 32.5t138 87.5l51 -82q-57 -60 -149.5 -99.5t-221.5 -39.5zM558 1000q-138 0 -227 -99t-104 -251l3 -6h620v25 q0 144 -75.5 237.5t-216.5 93.5zM827 1298v-18h-112l-167 168l-166 -168h-110v21l227 221h98z" unicode="ê" glyph-name="ecircumflex" horiz-adv-x="1054"/>
<glyph d="M569 -21q-210 0 -341 148.5t-131 381.5v55q0 234 132.5 386t328.5 152q197 0 304.5 -126.5t107.5 -340.5v-93h-753v-33q0 -185 93.5 -307t258.5 -122q99 0 182 32.5t138 87.5l51 -82q-57 -60 -149.5 -99.5t-221.5 -39.5zM558 1000q-138 0 -227 -99t-104 -251l3 -6h620v25 q0 144 -75.5 237.5t-216.5 93.5zM874 1320h-173v157h173v-157zM405 1320h-174v157h174v-157z" unicode="ë" glyph-name="edieresis" horiz-adv-x="1054"/>
<glyph d="M288 0h-120v1082h120v-1082zM299 1260h-117l-241 261l2 5h154z" unicode="ì" glyph-name="igrave" horiz-adv-x="456"/>
<glyph d="M288 0h-120v1082h120v-1082zM365 1520h147l3 -6l-249 -260h-107z" unicode="í" glyph-name="iacute" horiz-adv-x="456"/>
<glyph d="M288 0h-120v1082h120v-1082zM508 1276v-18h-112l-167 168l-166 -168h-110v21l227 221h98z" unicode="î" glyph-name="icircumflex" horiz-adv-x="456"/>
<glyph d="M288 0h-120v1082h120v-1082zM555 1299h-173v157h173v-157zM86 1299h-174v157h174v-157z" unicode="ï" glyph-name="idieresis" horiz-adv-x="456"/>
<glyph d="M849 1311q101 -102 153.5 -241t52.5 -315v-220q0 -245 -137 -400.5t-344 -155.5q-208 0 -341.5 137t-133.5 339q0 235 127.5 372.5t339.5 137.5q114 0 209.5 -45t150.5 -120l5 5q-5 145 -54 255.5t-135 189.5l-327 -187l-50 74l302 173q-47 31 -100.5 56t-112.5 47 l39 104q82 -27 153.5 -63t131.5 -81l240 138l51 -74zM578 82q158 0 257.5 127.5t99.5 325.5v139q-39 77 -134.5 132t-234.5 55q-167 0 -257 -115t-90 -291q0 -149 97 -261t262 -112z" unicode="ð" glyph-name="eth" horiz-adv-x="1191"/>
<glyph d="M264 1082l11 -188q53 99 141 153.5t209 54.5q176 0 268 -107.5t92 -335.5v-659h-120v658q0 186 -69.5 263t-197.5 77t-206.5 -63t-113.5 -169v-766h-120v1082h106zM898 1500q0 -88 -55 -146t-137 -58q-74 0 -151 55t-131 55q-47 0 -79 -35t-32 -89l-80 18q0 86 54 144.5 t137 58.5q65 0 147 -55t135 -55q46 0 79 36t33 91z" unicode="ñ" glyph-name="ntilde"/>
<glyph d="M91 557q0 239 131 392t347 153q217 0 348 -153t131 -392v-33q0 -240 -130.5 -392.5t-346.5 -152.5q-218 0 -349 152.5t-131 392.5v33zM211 524q0 -188 95 -316t265 -128q167 0 262.5 128t95.5 316v33q0 185 -96 314t-264 129t-263 -129t-95 -314v-33zM652 1281h-117 l-241 261l2 5h154z" unicode="ò" glyph-name="ograve"/>
<glyph d="M91 557q0 239 131 392t347 153q217 0 348 -153t131 -392v-33q0 -240 -130.5 -392.5t-346.5 -152.5q-218 0 -349 152.5t-131 392.5v33zM211 524q0 -188 95 -316t265 -128q167 0 262.5 128t95.5 316v33q0 185 -96 314t-264 129t-263 -129t-95 -314v-33zM719 1541h147l3 -6 l-249 -260h-107z" unicode="ó" glyph-name="oacute"/>
<glyph d="M91 557q0 239 131 392t347 153q217 0 348 -153t131 -392v-33q0 -240 -130.5 -392.5t-346.5 -152.5q-218 0 -349 152.5t-131 392.5v33zM211 524q0 -188 95 -316t265 -128q167 0 262.5 128t95.5 316v33q0 185 -96 314t-264 129t-263 -129t-95 -314v-33zM861 1297v-18h-112 l-167 168l-166 -168h-110v21l227 221h98z" unicode="ô" glyph-name="ocircumflex"/>
<glyph d="M91 557q0 239 131 392t347 153q217 0 348 -153t131 -392v-33q0 -240 -130.5 -392.5t-346.5 -152.5q-218 0 -349 152.5t-131 392.5v33zM211 524q0 -188 95 -316t265 -128q167 0 262.5 128t95.5 316v33q0 185 -96 314t-264 129t-263 -129t-95 -314v-33zM902 1500 q0 -88 -55 -146t-137 -58q-74 0 -151 55t-131 55q-47 0 -79 -35t-32 -89l-80 18q0 86 54 144.5t137 58.5q65 0 147 -55t135 -55q46 0 79 36t33 91z" unicode="õ" glyph-name="otilde"/>
<glyph d="M91 557q0 239 131 392t347 153q217 0 348 -153t131 -392v-33q0 -240 -130.5 -392.5t-346.5 -152.5q-218 0 -349 152.5t-131 392.5v33zM211 524q0 -188 95 -316t265 -128q167 0 262.5 128t95.5 316v33q0 185 -96 314t-264 129t-263 -129t-95 -314v-33zM908 1319h-173v157 h173v-157zM439 1319h-174v157h174v-157z" unicode="ö" glyph-name="odieresis"/>
<glyph d="M1070 644h-998v116h998v-116zM648 1010h-142v160h142v-160zM648 212h-142v160h142v-160z" unicode="÷" glyph-name="divide" horiz-adv-x="1164"/>
<glyph d="M91 557q0 239 131 392t347 153q60 0 114 -12.5t102 -36.5l79 161h93l-101 -207q91 -72 141.5 -189t50.5 -261v-33q0 -240 -130.5 -392.5t-346.5 -152.5q-55 0 -104.5 10.5t-94.5 30.5l-78 -160h-93l99 202q-100 70 -154.5 190.5t-54.5 271.5v33zM211 524q0 -112 35 -206 t100 -149h6l385 787q-36 21 -78.5 32.5t-89.5 11.5q-168 0 -263 -129t-95 -314v-33zM929 557q0 102 -32 192t-89 147h-6l-384 -782q33 -17 71.5 -25.5t81.5 -8.5q167 0 262.5 128t95.5 316v33z" unicode="ø" glyph-name="oslash" horiz-adv-x="1141"/>
<glyph d="M866 176q-52 -95 -139.5 -146t-207.5 -51q-171 0 -268 116t-97 360v627h120v-629q0 -198 67.5 -284t191.5 -86q135 0 215.5 60.5t113.5 165.5v773h120v-1082h-106zM650 1260h-117l-241 261l2 5h154z" unicode="ù" glyph-name="ugrave"/>
<glyph d="M866 176q-52 -95 -139.5 -146t-207.5 -51q-171 0 -268 116t-97 360v627h120v-629q0 -198 67.5 -284t191.5 -86q135 0 215.5 60.5t113.5 165.5v773h120v-1082h-106zM717 1520h147l3 -6l-249 -260h-107z" unicode="ú" glyph-name="uacute"/>
<glyph d="M866 176q-52 -95 -139.5 -146t-207.5 -51q-171 0 -268 116t-97 360v627h120v-629q0 -198 67.5 -284t191.5 -86q135 0 215.5 60.5t113.5 165.5v773h120v-1082h-106zM859 1276v-18h-112l-167 168l-166 -168h-110v21l227 221h98z" unicode="û" glyph-name="ucircumflex"/>
<glyph d="M866 176q-52 -95 -139.5 -146t-207.5 -51q-171 0 -268 116t-97 360v627h120v-629q0 -198 67.5 -284t191.5 -86q135 0 215.5 60.5t113.5 165.5v773h120v-1082h-106zM906 1299h-173v157h173v-157zM437 1299h-174v157h174v-157z" unicode="ü" glyph-name="udieresis"/>
<glyph d="M465 293l38 -129h6l327 918h134l-470 -1255q-42 -110 -109 -187t-196 -77q-21 0 -51 4.5t-44 9.5l14 100q12 -2 38.5 -4.5t38.5 -2.5q78 0 125 55.5t80 142.5l57 146l-418 1068h133zM651 1520h147l3 -6l-249 -260h-107z" unicode="ý" glyph-name="yacute" horiz-adv-x="1002"/>
<glyph d="M1039 511q0 -243 -110 -387.5t-303 -144.5q-113 0 -198.5 43t-139.5 122v-560h-120v416h-1v1560h119v-641q54 88 138.5 135.5t199.5 47.5q195 0 305 -155.5t110 -414.5v-21zM919 532q0 206 -82 336t-240 130q-119 0 -194.5 -57t-114.5 -148v-524q42 -88 119 -138.5 t192 -50.5q157 0 238.5 118t81.5 313v21z" unicode="þ" glyph-name="thorn" horiz-adv-x="1151"/>
<glyph d="M465 293l38 -129h6l327 918h134l-470 -1255q-42 -110 -109 -187t-196 -77q-21 0 -51 4.5t-44 9.5l14 100q12 -2 38.5 -4.5t38.5 -2.5q78 0 125 55.5t80 142.5l57 146l-418 1068h133zM840 1299h-173v157h173v-157zM371 1299h-174v157h174v-157z" unicode="ÿ" glyph-name="ydieresis" horiz-adv-x="1002"/>
<glyph d="M948 406h-639l-147 -406h-124l535 1456h113l531 -1456h-124zM347 513h562l-276 772h-6zM961 1689h-670v97h670v-97z" unicode="Ā" glyph-name="Amacron" horiz-adv-x="1256"/>
<glyph d="M843 0q-11 57 -16.5 98t-5.5 84q-56 -88 -157 -145.5t-232 -57.5q-159 0 -246.5 84.5t-87.5 229.5t127 235t330 90h266v134q0 116 -73.5 182t-207.5 66q-123 0 -198.5 -60t-75.5 -151h-111l-2 6q-6 122 104.5 214.5t288.5 92.5t286 -91t108 -261v-532q0 -57 6.5 -111 t21.5 -107h-125zM445 85q138 0 239 65.5t137 168.5v207h-267q-146 0 -241 -69.5t-95 -167.5q0 -92 60.5 -148t166.5 -56zM876 1368h-670v97h670v-97z" unicode="ā" glyph-name="amacron" horiz-adv-x="1101"/>
<glyph d="M948 406h-639l-147 -406h-124l535 1456h113l531 -1456h-124zM347 513h562l-276 772h-6zM909 1854l2 -6q4 -112 -73 -182t-210 -70t-210.5 70.5t-72.5 181.5l2 6h94q0 -77 45 -124t142 -47q94 0 140.5 48t46.5 123h94z" unicode="Ă" glyph-name="Abreve" horiz-adv-x="1256"/>
<glyph d="M843 0q-11 57 -16.5 98t-5.5 84q-56 -88 -157 -145.5t-232 -57.5q-159 0 -246.5 84.5t-87.5 229.5t127 235t330 90h266v134q0 116 -73.5 182t-207.5 66q-123 0 -198.5 -60t-75.5 -151h-111l-2 6q-6 122 104.5 214.5t288.5 92.5t286 -91t108 -261v-532q0 -57 6.5 -111 t21.5 -107h-125zM445 85q138 0 239 65.5t137 168.5v207h-267q-146 0 -241 -69.5t-95 -167.5q0 -92 60.5 -148t166.5 -56zM824 1533l2 -6q4 -112 -73 -182t-210 -70t-210.5 70.5t-72.5 181.5l2 6h94q0 -77 45 -124t142 -47q94 0 140.5 48t46.5 123h94z" unicode="ă" glyph-name="abreve" horiz-adv-x="1101"/>
<glyph d="M948 406h-639l-147 -406h-124l535 1456h113l531 -1456h-124zM347 513h562l-276 772h-6zM1201 0q-72 -60 -110 -108t-38 -104q0 -31 19 -58t70 -27q32 0 56.5 9t48.5 23l24 -83q-30 -19 -66.5 -31.5t-85.5 -12.5q-76 0 -125 44.5t-49 124.5q0 71 51 139t144 121z" unicode="Ą" glyph-name="Aogonek" horiz-adv-x="1256"/>
<glyph d="M843 0q-11 57 -16.5 98t-5.5 84q-56 -88 -157 -145.5t-232 -57.5q-159 0 -246.5 84.5t-87.5 229.5t127 235t330 90h266v134q0 116 -73.5 182t-207.5 66q-123 0 -198.5 -60t-75.5 -151h-111l-2 6q-6 122 104.5 214.5t288.5 92.5t286 -91t108 -261v-532q0 -57 6.5 -111 t21.5 -107h-125zM445 85q138 0 239 65.5t137 168.5v207h-267q-146 0 -241 -69.5t-95 -167.5q0 -92 60.5 -148t166.5 -56zM952 0q-72 -60 -110 -108t-38 -104q0 -31 19 -58t70 -27q32 0 56.5 9t48.5 23l24 -83q-30 -19 -66.5 -31.5t-85.5 -12.5q-76 0 -125 44.5t-49 124.5 q0 71 51 139t144 121z" unicode="ą" glyph-name="aogonek" horiz-adv-x="1101"/>
<glyph d="M1189 455l2 -6q4 -214 -140 -342t-378 -128q-243 0 -392 175.5t-149 454.5v237q0 278 149 454.5t392 176.5q237 0 379.5 -125t138.5 -344l-2 -6h-112q0 176 -107.5 274.5t-296.5 98.5q-191 0 -306.5 -148t-115.5 -379v-239q0 -234 115.5 -381.5t306.5 -147.5 q189 0 296.5 96t107.5 279h112zM815 1884h147l3 -6l-249 -260h-107z" unicode="Ć" glyph-name="Cacute" horiz-adv-x="1313"/>
<glyph d="M554 80q115 0 203.5 68t88.5 189h107l2 -6q4 -150 -118 -251t-283 -101q-216 0 -336.5 152t-120.5 389v42q0 236 120 388t336 152q174 0 290 -105t112 -276l-2 -6h-107q0 130 -85 207.5t-208 77.5q-170 0 -253 -125t-83 -313v-42q0 -191 83 -315.5t254 -124.5zM684 1541 h147l3 -6l-249 -260h-107z" unicode="ć" glyph-name="cacute" horiz-adv-x="1054"/>
<glyph d="M1189 455l2 -6q4 -214 -140 -342t-378 -128q-243 0 -392 175.5t-149 454.5v237q0 278 149 454.5t392 176.5q237 0 379.5 -125t138.5 -344l-2 -6h-112q0 176 -107.5 274.5t-296.5 98.5q-191 0 -306.5 -148t-115.5 -379v-239q0 -234 115.5 -381.5t306.5 -147.5 q189 0 296.5 96t107.5 279h112zM957 1640v-18h-112l-167 168l-166 -168h-110v21l227 221h98z" unicode="Ĉ" glyph-name="Ccircumflex" horiz-adv-x="1313"/>
<glyph d="M554 80q115 0 203.5 68t88.5 189h107l2 -6q4 -150 -118 -251t-283 -101q-216 0 -336.5 152t-120.5 389v42q0 236 120 388t336 152q174 0 290 -105t112 -276l-2 -6h-107q0 130 -85 207.5t-208 77.5q-170 0 -253 -125t-83 -313v-42q0 -191 83 -315.5t254 -124.5zM826 1297 v-18h-112l-167 168l-166 -168h-110v21l227 221h98z" unicode="ĉ" glyph-name="ccircumflex" horiz-adv-x="1054"/>
<glyph d="M1189 455l2 -6q4 -214 -140 -342t-378 -128q-243 0 -392 175.5t-149 454.5v237q0 278 149 454.5t392 176.5q237 0 379.5 -125t138.5 -344l-2 -6h-112q0 176 -107.5 274.5t-296.5 98.5q-191 0 -306.5 -148t-115.5 -379v-239q0 -234 115.5 -381.5t306.5 -147.5 q189 0 296.5 96t107.5 279h112zM752 1658h-151v168h151v-168z" unicode="Ċ" glyph-name="uni010A" horiz-adv-x="1313"/>
<glyph d="M554 80q115 0 203.5 68t88.5 189h107l2 -6q4 -150 -118 -251t-283 -101q-216 0 -336.5 152t-120.5 389v42q0 236 120 388t336 152q174 0 290 -105t112 -276l-2 -6h-107q0 130 -85 207.5t-208 77.5q-170 0 -253 -125t-83 -313v-42q0 -191 83 -315.5t254 -124.5zM621 1315 h-151v168h151v-168z" unicode="ċ" glyph-name="uni010B" horiz-adv-x="1054"/>
<glyph d="M1189 455l2 -6q4 -214 -140 -342t-378 -128q-243 0 -392 175.5t-149 454.5v237q0 278 149 454.5t392 176.5q237 0 379.5 -125t138.5 -344l-2 -6h-112q0 176 -107.5 274.5t-296.5 98.5q-191 0 -306.5 -148t-115.5 -379v-239q0 -234 115.5 -381.5t306.5 -147.5 q189 0 296.5 96t107.5 279h112zM677 1697l166 169h115v-17l-233 -225h-97l-232 225v17h114z" unicode="Č" glyph-name="Ccaron" horiz-adv-x="1313"/>
<glyph d="M554 80q115 0 203.5 68t88.5 189h107l2 -6q4 -150 -118 -251t-283 -101q-216 0 -336.5 152t-120.5 389v42q0 236 120 388t336 152q174 0 290 -105t112 -276l-2 -6h-107q0 130 -85 207.5t-208 77.5q-170 0 -253 -125t-83 -313v-42q0 -191 83 -315.5t254 -124.5zM546 1354 l166 169h115v-17l-233 -225h-97l-232 225v17h114z" unicode="č" glyph-name="ccaron" horiz-adv-x="1054"/>
<glyph d="M186 0v1456h444q267 0 441.5 -178t174.5 -457v-187q0 -279 -174.5 -456.5t-441.5 -177.5h-444zM306 1354v-1253h324q216 0 356 151t140 382v190q0 228 -140.5 379t-355.5 151h-324zM612 1676l166 169h115v-17l-233 -225h-97l-232 225v17h114z" unicode="Ď" glyph-name="Dcaron" horiz-adv-x="1378"/>
<glyph d="M111 532q0 259 109.5 414.5t305.5 155.5q111 0 194.5 -47t138.5 -133v638h120v-1560h-98l-17 157q-55 -86 -140 -132t-200 -46q-194 0 -303.5 144.5t-109.5 387.5v21zM231 511q0 -196 78.5 -312t236.5 -116q116 0 193 51.5t120 142.5v513q-41 92 -116 150t-195 58 q-158 0 -237.5 -129.5t-79.5 -336.5v-21zM1260 1437l-83 -209h-71l52 211v120h102v-122z" unicode="ď" glyph-name="dcaron"/>
<glyph d="M186 0v689h-153v102h153v665h444q267 0 441.5 -178t174.5 -457v-187q0 -279 -174.5 -456.5t-441.5 -177.5h-444zM645 689h-339v-588h324q216 0 356 151t140 382v190q0 228 -140.5 379t-355.5 151h-324v-563h339v-102z" unicode="Đ" glyph-name="Dcroat" horiz-adv-x="1378"/>
<glyph d="M1156 1257h-177v-1257h-98l-17 157q-55 -86 -140 -132t-200 -46q-194 0 -303.5 144.5t-109.5 387.5v21q0 259 109.5 414.5t305.5 155.5q111 0 194.5 -47t138.5 -133v335h-315v102h315v201h120v-201h177v-102zM231 511q0 -196 78.5 -312t236.5 -116q116 0 193 51.5 t120 142.5v513q-41 92 -116 150t-195 58q-158 0 -237.5 -129.5t-79.5 -336.5v-21z" unicode="đ" glyph-name="dcroat"/>
<glyph d="M959 705h-653v-604h755v-101h-875v1456h870v-102h-750v-547h653v-102zM952 1689h-670v97h670v-97z" unicode="Ē" glyph-name="Emacron" horiz-adv-x="1129"/>
<glyph d="M569 -21q-210 0 -341 148.5t-131 381.5v55q0 234 132.5 386t328.5 152q197 0 304.5 -126.5t107.5 -340.5v-93h-753v-33q0 -185 93.5 -307t258.5 -122q99 0 182 32.5t138 87.5l51 -82q-57 -60 -149.5 -99.5t-221.5 -39.5zM558 1000q-138 0 -227 -99t-104 -251l3 -6h620v25 q0 144 -75.5 237.5t-216.5 93.5zM881 1368h-670v97h670v-97z" unicode="ē" glyph-name="emacron" horiz-adv-x="1054"/>
<glyph d="M959 705h-653v-604h755v-101h-875v1456h870v-102h-750v-547h653v-102zM900 1854l2 -6q4 -112 -73 -182t-210 -70t-210.5 70.5t-72.5 181.5l2 6h94q0 -77 45 -124t142 -47q94 0 140.5 48t46.5 123h94z" unicode="Ĕ" glyph-name="Ebreve" horiz-adv-x="1129"/>
<glyph d="M569 -21q-210 0 -341 148.5t-131 381.5v55q0 234 132.5 386t328.5 152q197 0 304.5 -126.5t107.5 -340.5v-93h-753v-33q0 -185 93.5 -307t258.5 -122q99 0 182 32.5t138 87.5l51 -82q-57 -60 -149.5 -99.5t-221.5 -39.5zM558 1000q-138 0 -227 -99t-104 -251l3 -6h620v25 q0 144 -75.5 237.5t-216.5 93.5zM829 1533l2 -6q4 -112 -73 -182t-210 -70t-210.5 70.5t-72.5 181.5l2 6h94q0 -77 45 -124t142 -47q94 0 140.5 48t46.5 123h94z" unicode="ĕ" glyph-name="ebreve" horiz-adv-x="1054"/>
<glyph d="M959 705h-653v-604h755v-101h-875v1456h870v-102h-750v-547h653v-102zM693 1637h-151v168h151v-168z" unicode="Ė" glyph-name="Edotaccent" horiz-adv-x="1129"/>
<glyph d="M569 -21q-210 0 -341 148.5t-131 381.5v55q0 234 132.5 386t328.5 152q197 0 304.5 -126.5t107.5 -340.5v-93h-753v-33q0 -185 93.5 -307t258.5 -122q99 0 182 32.5t138 87.5l51 -82q-57 -60 -149.5 -99.5t-221.5 -39.5zM558 1000q-138 0 -227 -99t-104 -251l3 -6h620v25 q0 144 -75.5 237.5t-216.5 93.5zM622 1316h-151v168h151v-168z" unicode="ė" glyph-name="edotaccent" horiz-adv-x="1054"/>
<glyph d="M959 705h-653v-604h755v-101h-875v1456h870v-102h-750v-547h653v-102zM657 0q-72 -60 -110 -108t-38 -104q0 -31 19 -58t70 -27q32 0 56.5 9t48.5 23l24 -83q-30 -19 -66.5 -31.5t-85.5 -12.5q-76 0 -125 44.5t-49 124.5q0 71 51 139t144 121z" unicode="Ę" glyph-name="Eogonek" horiz-adv-x="1129"/>
<glyph d="M569 -21q-210 0 -341 148.5t-131 381.5v55q0 234 132.5 386t328.5 152q197 0 304.5 -126.5t107.5 -340.5v-93h-753v-33q0 -185 93.5 -307t258.5 -122q99 0 182 32.5t138 87.5l51 -82q-57 -60 -149.5 -99.5t-221.5 -39.5zM558 1000q-138 0 -227 -99t-104 -251l3 -6h620v25 q0 144 -75.5 237.5t-216.5 93.5zM845 59q-72 -60 -110 -108t-38 -104q0 -31 19 -58t70 -27q32 0 56.5 9t48.5 23l24 -83q-30 -19 -66.5 -31.5t-85.5 -12.5q-76 0 -125 44.5t-49 124.5q0 71 51 139t144 121z" unicode="ę" glyph-name="eogonek" horiz-adv-x="1054"/>
<glyph d="M959 705h-653v-604h755v-101h-875v1456h870v-102h-750v-547h653v-102zM618 1676l166 169h115v-17l-233 -225h-97l-232 225v17h114z" unicode="Ě" glyph-name="Ecaron" horiz-adv-x="1129"/>
<glyph d="M569 -21q-210 0 -341 148.5t-131 381.5v55q0 234 132.5 386t328.5 152q197 0 304.5 -126.5t107.5 -340.5v-93h-753v-33q0 -185 93.5 -307t258.5 -122q99 0 182 32.5t138 87.5l51 -82q-57 -60 -149.5 -99.5t-221.5 -39.5zM558 1000q-138 0 -227 -99t-104 -251l3 -6h620v25 q0 144 -75.5 237.5t-216.5 93.5zM547 1355l166 169h115v-17l-233 -225h-97l-232 225v17h114z" unicode="ě" glyph-name="ecaron" horiz-adv-x="1054"/>
<glyph d="M1221 196q-48 -79 -177.5 -148t-326.5 -69q-251 0 -411 173t-160 448v267q0 270 155 440t401 170q237 0 376.5 -125t135.5 -318l-3 -6h-110q0 151 -104 249t-295 98q-196 0 -316 -142t-120 -364v-269q0 -228 125 -374t326 -146q153 0 250 46t135 107v373h-392v102h511 v-512zM948 1640v-18h-112l-167 168l-166 -168h-110v21l227 221h98z" unicode="Ĝ" glyph-name="Gcircumflex" horiz-adv-x="1410"/>
<glyph d="M115 532q0 259 109.5 414.5t305.5 155.5q115 0 200 -49.5t140 -140.5l17 170h97v-1088q0 -207 -114 -319t-323 -112q-78 0 -166.5 19t-154.5 52l23 101q65 -32 138.5 -48.5t157.5 -16.5q160 0 239 82t79 242v153q-55 -81 -139.5 -124.5t-195.5 -43.5q-194 0 -303.5 145 t-109.5 387v21zM235 511q0 -196 79 -312t237 -116q114 0 191.5 51.5t120.5 141.5v516q-41 91 -116.5 148.5t-193.5 57.5q-158 0 -238 -130t-80 -336v-21zM846 1297v-18h-112l-167 168l-166 -168h-110v21l227 221h98z" unicode="ĝ" glyph-name="gcircumflex"/>
<glyph d="M1221 196q-48 -79 -177.5 -148t-326.5 -69q-251 0 -411 173t-160 448v267q0 270 155 440t401 170q237 0 376.5 -125t135.5 -318l-3 -6h-110q0 151 -104 249t-295 98q-196 0 -316 -142t-120 -364v-269q0 -228 125 -374t326 -146q153 0 250 46t135 107v373h-392v102h511 v-512zM950 1875l2 -6q4 -112 -73 -182t-210 -70t-210.5 70.5t-72.5 181.5l2 6h94q0 -77 45 -124t142 -47q94 0 140.5 48t46.5 123h94z" unicode="Ğ" glyph-name="Gbreve" horiz-adv-x="1410"/>
<glyph d="M115 532q0 259 109.5 414.5t305.5 155.5q115 0 200 -49.5t140 -140.5l17 170h97v-1088q0 -207 -114 -319t-323 -112q-78 0 -166.5 19t-154.5 52l23 101q65 -32 138.5 -48.5t157.5 -16.5q160 0 239 82t79 242v153q-55 -81 -139.5 -124.5t-195.5 -43.5q-194 0 -303.5 145 t-109.5 387v21zM235 511q0 -196 79 -312t237 -116q114 0 191.5 51.5t120.5 141.5v516q-41 91 -116.5 148.5t-193.5 57.5q-158 0 -238 -130t-80 -336v-21zM848 1532l2 -6q4 -112 -73 -182t-210 -70t-210.5 70.5t-72.5 181.5l2 6h94q0 -77 45 -124t142 -47q94 0 140.5 48 t46.5 123h94z" unicode="ğ" glyph-name="gbreve"/>
<glyph d="M1221 196q-48 -79 -177.5 -148t-326.5 -69q-251 0 -411 173t-160 448v267q0 270 155 440t401 170q237 0 376.5 -125t135.5 -318l-3 -6h-110q0 151 -104 249t-295 98q-196 0 -316 -142t-120 -364v-269q0 -228 125 -374t326 -146q153 0 250 46t135 107v373h-392v102h511 v-512zM743 1658h-151v168h151v-168z" unicode="Ġ" glyph-name="uni0120" horiz-adv-x="1410"/>
<glyph d="M115 532q0 259 109.5 414.5t305.5 155.5q115 0 200 -49.5t140 -140.5l17 170h97v-1088q0 -207 -114 -319t-323 -112q-78 0 -166.5 19t-154.5 52l23 101q65 -32 138.5 -48.5t157.5 -16.5q160 0 239 82t79 242v153q-55 -81 -139.5 -124.5t-195.5 -43.5q-194 0 -303.5 145 t-109.5 387v21zM235 511q0 -196 79 -312t237 -116q114 0 191.5 51.5t120.5 141.5v516q-41 91 -116.5 148.5t-193.5 57.5q-158 0 -238 -130t-80 -336v-21zM641 1315h-151v168h151v-168z" unicode="ġ" glyph-name="uni0121"/>
<glyph d="M1221 196q-48 -79 -177.5 -148t-326.5 -69q-251 0 -411 173t-160 448v267q0 270 155 440t401 170q237 0 376.5 -125t135.5 -318l-3 -6h-110q0 151 -104 249t-295 98q-196 0 -316 -142t-120 -364v-269q0 -228 125 -374t326 -146q153 0 250 46t135 107v373h-392v102h511 v-512zM750 -259l-83 -209h-71l52 211v120h102v-122z" unicode="Ģ" glyph-name="Gcommaaccent" horiz-adv-x="1410"/>
<glyph d="M115 532q0 259 109.5 414.5t305.5 155.5q115 0 200 -49.5t140 -140.5l17 170h97v-1088q0 -207 -114 -319t-323 -112q-78 0 -166.5 19t-154.5 52l23 101q65 -32 138.5 -48.5t157.5 -16.5q160 0 239 82t79 242v153q-55 -81 -139.5 -124.5t-195.5 -43.5q-194 0 -303.5 145 t-109.5 387v21zM235 511q0 -196 79 -312t237 -116q114 0 191.5 51.5t120.5 141.5v516q-41 91 -116.5 148.5t-193.5 57.5q-158 0 -238 -130t-80 -336v-21zM504 1401l87 216h72l-40 -218v-135h-119v137z" unicode="ģ" glyph-name="gcommaaccent"/>
<glyph d="M1253 0h-120v670h-827v-670h-120v1456h120v-684h827v684h120v-1456zM993 1619v-18h-112l-167 168l-166 -168h-110v21l227 221h98z" unicode="Ĥ" glyph-name="Hcircumflex" horiz-adv-x="1439"/>
<glyph d="M278 898q55 97 144.5 150.5t209.5 53.5q171 0 262.5 -106t91.5 -329v-667h-120v669q0 176 -69.5 252.5t-191.5 76.5q-126 0 -207.5 -61.5t-119.5 -164.5v-772h-120v1560h120v-662zM768 1618v-18h-112l-167 168l-166 -168h-110v21l227 221h98z" unicode="ĥ" glyph-name="hcircumflex"/>
<glyph d="M1261 1123h123v-97h-123v-1026h-120v670h-827v-670h-120v1026h-169v97h169v333h120v-333h827v333h120v-333zM314 772h827v254h-827v-254z" unicode="Ħ" glyph-name="Hbar" horiz-adv-x="1412"/>
<glyph d="M634 1257h-356v-359q55 97 144.5 150.5t209.5 53.5q171 0 262.5 -106t91.5 -329v-667h-120v669q0 176 -69.5 252.5t-191.5 76.5q-126 0 -207.5 -61.5t-119.5 -164.5v-772h-120v1257h-136v102h136v201h120v-201h356v-102z" unicode="ħ" glyph-name="hbar"/>
<glyph d="M337 0h-120v1456h120v-1456zM598 1822q0 -88 -55 -146t-137 -58q-74 0 -151 55t-131 55q-47 0 -79 -35t-32 -89l-80 18q0 86 54 144.5t137 58.5q65 0 147 -55t135 -55q46 0 79 36t33 91z" unicode="Ĩ" glyph-name="Itilde" horiz-adv-x="554"/>
<glyph d="M288 0h-120v1082h120v-1082zM549 1480q0 -88 -55 -146t-137 -58q-74 0 -151 55t-131 55q-47 0 -79 -35t-32 -89l-80 18q0 86 54 144.5t137 58.5q65 0 147 -55t135 -55q46 0 79 36t33 91z" unicode="ĩ" glyph-name="itilde" horiz-adv-x="456"/>
<glyph d="M337 0h-120v1456h120v-1456zM611 1689h-670v97h670v-97z" unicode="Ī" glyph-name="Imacron" horiz-adv-x="554"/>
<glyph d="M288 0h-120v1082h120v-1082zM562 1347h-670v97h670v-97z" unicode="ī" glyph-name="imacron" horiz-adv-x="456"/>
<glyph d="M337 0h-120v1456h120v-1456zM559 1854l2 -6q4 -112 -73 -182t-210 -70t-210.5 70.5t-72.5 181.5l2 6h94q0 -77 45 -124t142 -47q94 0 140.5 48t46.5 123h94z" unicode="Ĭ" glyph-name="Ibreve" horiz-adv-x="554"/>
<glyph d="M288 0h-120v1082h120v-1082zM510 1511l2 -6q4 -112 -73 -182t-210 -70t-210.5 70.5t-72.5 181.5l2 6h94q0 -77 45 -124t142 -47q94 0 140.5 48t46.5 123h94z" unicode="ĭ" glyph-name="ibreve" horiz-adv-x="456"/>
<glyph d="M337 0h-120v1456h120v-1456zM322 0q-72 -60 -110 -108t-38 -104q0 -31 19 -58t70 -27q32 0 56.5 9t48.5 23l24 -83q-30 -19 -66.5 -31.5t-85.5 -12.5q-76 0 -125 44.5t-49 124.5q0 71 51 139t144 121z" unicode="Į" glyph-name="Iogonek" horiz-adv-x="554"/>
<glyph d="M292 0h-119v1082h119v-1082zM292 1392h-119v168h119v-168zM277 0q-72 -60 -110 -108t-38 -104q0 -31 19 -58t70 -27q32 0 56.5 9t48.5 23l24 -83q-30 -19 -66.5 -31.5t-85.5 -12.5q-76 0 -125 44.5t-49 124.5q0 71 51 139t144 121z" unicode="į" glyph-name="iogonek" horiz-adv-x="465"/>
<glyph d="M337 0h-120v1456h120v-1456zM351 1637h-151v168h151v-168z" unicode="İ" glyph-name="Idotaccent" horiz-adv-x="554"/>
<glyph d="M288 0h-120v1082h120v-1082z" unicode="ı" glyph-name="dotlessi" horiz-adv-x="456"/>
<glyph d="M337 0h-120v1456h120v-1456zM1374 1456h120v-1034q0 -203 -118.5 -323t-306.5 -120q-200 0 -317 106t-112 310l2 6h112q0 -164 80.5 -242.5t234.5 -78.5q133 0 219 92.5t86 249.5v1034z" unicode="Ĳ" glyph-name="IJ" horiz-adv-x="1676"/>
<glyph d="M292 0h-119v1082h119v-1082zM292 1392h-119v168h119v-168zM764 1082v-1171q0 -167 -80 -257.5t-222 -90.5q-30 0 -56.5 5t-55.5 14l13 101q16 -5 44 -10t49 -5q89 0 139 61.5t50 181.5v1171h119zM758 1396h-119v164h119v-164z" unicode="ĳ" glyph-name="ij" horiz-adv-x="949"/>
<glyph d="M820 1456h120v-1034q0 -203 -118.5 -323t-306.5 -120q-200 0 -317 106t-112 310l2 6h112q0 -164 80.5 -242.5t234.5 -78.5q133 0 219 92.5t86 249.5v1034zM1155 1597v-18h-112l-167 168l-166 -168h-110v21l227 221h98z" unicode="Ĵ" glyph-name="Jcircumflex" horiz-adv-x="1122"/>
<glyph d="M298 1082v-1171q0 -167 -80 -257.5t-222 -90.5q-30 0 -56 5t-56 14l13 99q16 -5 47 -10.5t52 -5.5q87 0 135 65t48 181v1171h119zM517 1257v-18h-112l-167 168l-166 -168h-110v21l227 221h98z" unicode="ĵ" glyph-name="jcircumflex" horiz-adv-x="468"/>
<glyph d="M463 691h-157v-691h-120v1456h120v-664h156l572 664h136l2 -5l-604 -700l664 -746l-2 -5h-144zM672 -247l-83 -209h-71l52 211v120h102v-122z" unicode="Ķ" glyph-name="Kcommaaccent" horiz-adv-x="1261"/>
<glyph d="M405 527h-126v-527h-120v1560h120v-930h114l415 452h140l2 -5l-444 -491l480 -581l-3 -5h-137zM584 -245l-83 -209h-71l52 211v120h102v-122z" unicode="ķ" glyph-name="kcommaaccent" horiz-adv-x="1006"/>
<glyph d="M420 496h-137v-496h-121v1082h121v-480h134l443 480h139l2 -5l-476 -520l526 -551l-3 -6h-144z" unicode="ĸ" glyph-name="kgreenlandic" horiz-adv-x="1111"/>
<glyph d="M306 101h752v-101h-872v1456h120v-1355zM384 1800h147l3 -6l-249 -260h-107z" unicode="Ĺ" glyph-name="Lacute" horiz-adv-x="1128"/>
<glyph d="M292 0h-119v1560h119v-1560zM371 1875h147l3 -6l-249 -260h-107z" unicode="ĺ" glyph-name="lacute" horiz-adv-x="465"/>
<glyph d="M306 101h752v-101h-872v1456h120v-1355zM670 -245l-83 -209h-71l52 211v120h102v-122z" unicode="Ļ" glyph-name="Lcommaaccent" horiz-adv-x="1128"/>
<glyph d="M292 0h-119v1560h119v-1560zM283 -245l-83 -209h-71l52 211v120h102v-122z" unicode="ļ" glyph-name="lcommaaccent" horiz-adv-x="465"/>
<glyph d="M306 101h752v-101h-872v1456h120v-1355zM721 1334l-83 -209h-71l52 211v120h102v-122z" unicode="Ľ" glyph-name="Lcaron" horiz-adv-x="1128"/>
<glyph d="M292 0h-119v1560h119v-1560zM583 1437l-83 -209h-71l52 211v120h102v-122z" unicode="ľ" glyph-name="lcaron" horiz-adv-x="465"/>
<glyph d="M306 101h752v-101h-872v1456h120v-1355zM754 687h-151v168h151v-168z" unicode="Ŀ" glyph-name="Ldot" horiz-adv-x="1128"/>
<glyph d="M292 0h-119v1560h119v-1560zM522 700h-151v168h151v-168z" unicode="ŀ" glyph-name="ldot" horiz-adv-x="465"/>
<glyph d="M299 815l313 100v-109l-313 -100v-605h752v-101h-872v668l-156 -49v109l156 49v679h120v-641z" unicode="Ł" glyph-name="Lslash" horiz-adv-x="1068"/>
<glyph d="M312 854l193 76v-109l-193 -76v-745h-119v699l-167 -65v109l167 65v752h119v-706z" unicode="ł" glyph-name="lslash" horiz-adv-x="529"/>
<glyph d="M1259 0h-120l-827 1246l-6 -1v-1245h-120v1456h120l827 -1243l6 1v1242h120v-1456zM859 1863h147l3 -6l-249 -260h-107z" unicode="Ń" glyph-name="Nacute" horiz-adv-x="1445"/>
<glyph d="M264 1082l11 -188q53 99 141 153.5t209 54.5q176 0 268 -107.5t92 -335.5v-659h-120v658q0 186 -69.5 263t-197.5 77t-206.5 -63t-113.5 -169v-766h-120v1082h106zM715 1541h147l3 -6l-249 -260h-107z" unicode="ń" glyph-name="nacute"/>
<glyph d="M1259 0h-120l-827 1246l-6 -1v-1245h-120v1456h120l827 -1243l6 1v1242h120v-1456zM770 -245l-83 -209h-71l52 211v120h102v-122z" unicode="Ņ" glyph-name="Ncommaaccent" horiz-adv-x="1445"/>
<glyph d="M264 1082l11 -188q53 99 141 153.5t209 54.5q176 0 268 -107.5t92 -335.5v-659h-120v658q0 186 -69.5 263t-197.5 77t-206.5 -63t-113.5 -169v-766h-120v1082h106zM626 -245l-83 -209h-71l52 211v120h102v-122z" unicode="ņ" glyph-name="ncommaaccent"/>
<glyph d="M1259 0h-120l-827 1246l-6 -1v-1245h-120v1456h120l827 -1243l6 1v1242h120v-1456zM721 1676l166 169h115v-17l-233 -225h-97l-232 225v17h114z" unicode="Ň" glyph-name="Ncaron" horiz-adv-x="1445"/>
<glyph d="M264 1082l11 -188q53 99 141 153.5t209 54.5q176 0 268 -107.5t92 -335.5v-659h-120v658q0 186 -69.5 263t-197.5 77t-206.5 -63t-113.5 -169v-766h-120v1082h106zM577 1354l166 169h115v-17l-233 -225h-97l-232 225v17h114z" unicode="ň" glyph-name="ncaron"/>
<glyph d="M264 1082l11 -188q53 99 141 153.5t209 54.5q176 0 268 -107.5t92 -335.5v-659h-120v658q0 186 -69.5 263t-197.5 77t-206.5 -63t-113.5 -169v-766h-120v1082h106zM137 1435l-83 -209h-71l52 211v120h102v-122z" unicode="ŉ" glyph-name="napostrophe"/>
<glyph d="M1255 1456v-1545q0 -167 -80.5 -257.5t-223.5 -90.5q-31 0 -57 5t-55 14l14 99q15 -6 46 -11t52 -5q87 0 136 65t49 181v89l-828 1245l-6 -1v-1244h-120v1456h120l828 -1246l6 1v1245h119z" unicode="Ŋ" glyph-name="Eng" horiz-adv-x="1434"/>
<glyph d="M264 1082l11 -183q52 96 139.5 149.5t206.5 53.5q176 0 268 -107.5t92 -335.5v-748q0 -167 -80.5 -257.5t-223.5 -90.5q-34 0 -63 5t-61 14l14 103q16 -5 50.5 -10t59.5 -5q88 0 136 62.5t48 178.5v747q0 186 -69.5 263t-197.5 77q-124 0 -201.5 -60t-114.5 -161v-777 h-120v1082h106z" unicode="ŋ" glyph-name="eng"/>
<glyph d="M1254 609q0 -282 -154.5 -456t-414.5 -174q-256 0 -408.5 174t-152.5 456v237q0 281 152 456t408 175q260 0 415 -175t155 -456v-237zM1135 848q0 236 -119.5 380t-331.5 144q-208 0 -324 -144t-116 -380v-239q0 -238 116.5 -382t324.5 -144q213 0 331.5 143.5 t118.5 382.5v239zM1019 1710h-670v97h670v-97z" unicode="Ō" glyph-name="Omacron" horiz-adv-x="1378"/>
<glyph d="M91 557q0 239 131 392t347 153q217 0 348 -153t131 -392v-33q0 -240 -130.5 -392.5t-346.5 -152.5q-218 0 -349 152.5t-131 392.5v33zM211 524q0 -188 95 -316t265 -128q167 0 262.5 128t95.5 316v33q0 185 -96 314t-264 129t-263 -129t-95 -314v-33zM915 1367h-670v97 h670v-97z" unicode="ō" glyph-name="omacron"/>
<glyph d="M1254 609q0 -282 -154.5 -456t-414.5 -174q-256 0 -408.5 174t-152.5 456v237q0 281 152 456t408 175q260 0 415 -175t155 -456v-237zM1135 848q0 236 -119.5 380t-331.5 144q-208 0 -324 -144t-116 -380v-239q0 -238 116.5 -382t324.5 -144q213 0 331.5 143.5 t118.5 382.5v239zM967 1875l2 -6q4 -112 -73 -182t-210 -70t-210.5 70.5t-72.5 181.5l2 6h94q0 -77 45 -124t142 -47q94 0 140.5 48t46.5 123h94z" unicode="Ŏ" glyph-name="Obreve" horiz-adv-x="1378"/>
<glyph d="M91 557q0 239 131 392t347 153q217 0 348 -153t131 -392v-33q0 -240 -130.5 -392.5t-346.5 -152.5q-218 0 -349 152.5t-131 392.5v33zM211 524q0 -188 95 -316t265 -128q167 0 262.5 128t95.5 316v33q0 185 -96 314t-264 129t-263 -129t-95 -314v-33zM863 1532l2 -6 q4 -112 -73 -182t-210 -70t-210.5 70.5t-72.5 181.5l2 6h94q0 -77 45 -124t142 -47q94 0 140.5 48t46.5 123h94z" unicode="ŏ" glyph-name="obreve"/>
<glyph d="M1254 609q0 -282 -154.5 -456t-414.5 -174q-256 0 -408.5 174t-152.5 456v237q0 281 152 456t408 175q260 0 415 -175t155 -456v-237zM1135 848q0 236 -119.5 380t-331.5 144q-208 0 -324 -144t-116 -380v-239q0 -238 116.5 -382t324.5 -144q213 0 331.5 143.5 t118.5 382.5v239zM993 1888h145l2 -6l-296 -260h-113l-2 6zM698 1888h133l3 -6l-245 -260h-102l-3 5z" unicode="Ő" glyph-name="Ohungarumlaut" horiz-adv-x="1378"/>
<glyph d="M91 557q0 239 131 392t347 153q217 0 348 -153t131 -392v-33q0 -240 -130.5 -392.5t-346.5 -152.5q-218 0 -349 152.5t-131 392.5v33zM211 524q0 -188 95 -316t265 -128q167 0 262.5 128t95.5 316v33q0 185 -96 314t-264 129t-263 -129t-95 -314v-33zM889 1545h145l2 -6 l-296 -260h-113l-2 6zM594 1545h133l3 -6l-245 -260h-102l-3 5z" unicode="ő" glyph-name="ohungarumlaut"/>
<glyph d="M1796 0h-839q-97 -10 -167.5 -15.5t-143.5 -5.5q-239 0 -388.5 166t-149.5 431v304q0 264 148.5 430.5t387.5 166.5q75 0 152 -6t161 -15h834v-102h-750v-547h653v-102h-653v-604h755v-101zM646 81q70 0 141 4t134 13v1259q-63 8 -133 13t-144 5q-192 0 -304 -132 t-112 -361v-306q0 -228 113.5 -361.5t304.5 -133.5z" unicode="Œ" glyph-name="OE" horiz-adv-x="1913"/>
<glyph d="M1349 -21q-126 0 -226 55.5t-162 156.5q-63 -101 -163 -156.5t-227 -55.5q-218 0 -349 152.5t-131 392.5v33q0 239 131 392t347 153q128 0 229.5 -57t164.5 -159q62 101 160.5 158.5t214.5 57.5q197 0 304.5 -126.5t107.5 -340.5v-93h-702v-18q0 -51 -6.5 -99t-18.5 -92 q36 -116 120.5 -184.5t205.5 -68.5q99 0 182 32.5t138 87.5l51 -82q-57 -60 -149.5 -99.5t-221.5 -39.5zM211 524q0 -188 95 -316t265 -128q120 0 204.5 69t123.5 185q-11 41 -16.5 85t-5.5 90v55q0 46 5.5 91t17.5 87q-40 116 -125 187t-206 71q-168 0 -263 -129t-95 -314 v-33zM1023 745q6 -25 11.5 -50.5t8.5 -50.5h587v25q0 144 -75.5 237.5t-216.5 93.5q-114 0 -196 -69.5t-119 -185.5z" unicode="œ" glyph-name="oe" horiz-adv-x="1890"/>
<glyph d="M303 658v-658h-120v1455h485q234 0 359 -102.5t125 -299.5q0 -116 -66.5 -207.5t-188.5 -133.5q135 -34 194.5 -121.5t59.5 -219.5v-137q0 -68 16 -122t53 -88v-24h-122q-37 36 -52 101t-15 135v133q0 134 -86.5 211.5t-241.5 77.5h-400zM303 760h351q197 0 288 79.5 t91 214.5q0 144 -90.5 221.5t-274.5 77.5h-365v-593zM745 1863h147l3 -6l-249 -260h-107z" unicode="Ŕ" glyph-name="Racute" horiz-adv-x="1336"/>
<glyph d="M652 979l-85 6q-113 0 -185.5 -63.5t-103.5 -174.5v-747h-120v1082h105l15 -180v-12q47 100 126 156t188 56q22 0 42 -3.5t33 -7.5zM550 1541h147l3 -6l-249 -260h-107z" unicode="ŕ" glyph-name="racute" horiz-adv-x="699"/>
<glyph d="M303 658v-658h-120v1455h485q234 0 359 -102.5t125 -299.5q0 -116 -66.5 -207.5t-188.5 -133.5q135 -34 194.5 -121.5t59.5 -219.5v-137q0 -68 16 -122t53 -88v-24h-122q-37 36 -52 101t-15 135v133q0 134 -86.5 211.5t-241.5 77.5h-400zM303 760h351q197 0 288 79.5 t91 214.5q0 144 -90.5 221.5t-274.5 77.5h-365v-593zM656 -245l-83 -209h-71l52 211v120h102v-122z" unicode="Ŗ" glyph-name="Rcommaaccent" horiz-adv-x="1336"/>
<glyph d="M652 979l-85 6q-113 0 -185.5 -63.5t-103.5 -174.5v-747h-120v1082h105l15 -180v-12q47 100 126 156t188 56q22 0 42 -3.5t33 -7.5zM274 -241l-83 -209h-71l52 211v120h102v-122z" unicode="ŗ" glyph-name="rcommaaccent" horiz-adv-x="699"/>
<glyph d="M303 658v-658h-120v1455h485q234 0 359 -102.5t125 -299.5q0 -116 -66.5 -207.5t-188.5 -133.5q135 -34 194.5 -121.5t59.5 -219.5v-137q0 -68 16 -122t53 -88v-24h-122q-37 36 -52 101t-15 135v133q0 134 -86.5 211.5t-241.5 77.5h-400zM303 760h351q197 0 288 79.5 t91 214.5q0 144 -90.5 221.5t-274.5 77.5h-365v-593zM607 1676l166 169h115v-17l-233 -225h-97l-232 225v17h114z" unicode="Ř" glyph-name="Rcaron" horiz-adv-x="1336"/>
<glyph d="M652 979l-85 6q-113 0 -185.5 -63.5t-103.5 -174.5v-747h-120v1082h105l15 -180v-12q47 100 126 156t188 56q22 0 42 -3.5t33 -7.5zM413 1354l166 169h115v-17l-233 -225h-97l-232 225v17h114z" unicode="ř" glyph-name="rcaron" horiz-adv-x="699"/>
<glyph d="M1007 354q0 112 -89 185t-302 137q-233 64 -354.5 159.5t-121.5 259.5q0 167 136 274.5t347 107.5q222 0 357 -121.5t131 -308.5l-2 -6h-112q0 144 -104.5 239t-269.5 95q-170 0 -266.5 -80.5t-96.5 -197.5q0 -111 87.5 -182.5t308.5 -133.5q230 -67 351 -165t121 -260 q0 -170 -141.5 -273.5t-356.5 -103.5t-375 109.5t-155 319.5l2 6h111q0 -169 127 -251.5t290 -82.5q167 0 272 76.5t105 197.5zM758 1884h147l3 -6l-249 -260h-107z" unicode="Ś" glyph-name="Sacute" horiz-adv-x="1236"/>
<glyph d="M806 277q0 76 -62.5 132.5t-225.5 92.5q-192 40 -285.5 109.5t-93.5 194.5q0 124 104.5 210t276.5 86q181 0 289 -91.5t103 -225.5l-2 -6h-111q0 89 -76.5 155t-202.5 66q-130 0 -196 -57t-66 -133q0 -74 56.5 -122.5t225.5 -85.5q190 -42 287.5 -117t97.5 -202 q0 -135 -109.5 -219.5t-289.5 -84.5q-197 0 -309.5 94t-106.5 224l2 6h110q7 -117 95.5 -170t208.5 -53q130 0 205 58t75 139zM657 1541h147l3 -6l-249 -260h-107z" unicode="ś" glyph-name="sacute" horiz-adv-x="1043"/>
<glyph d="M1007 354q0 112 -89 185t-302 137q-233 64 -354.5 159.5t-121.5 259.5q0 167 136 274.5t347 107.5q222 0 357 -121.5t131 -308.5l-2 -6h-112q0 144 -104.5 239t-269.5 95q-170 0 -266.5 -80.5t-96.5 -197.5q0 -111 87.5 -182.5t308.5 -133.5q230 -67 351 -165t121 -260 q0 -170 -141.5 -273.5t-356.5 -103.5t-375 109.5t-155 319.5l2 6h111q0 -169 127 -251.5t290 -82.5q167 0 272 76.5t105 197.5zM900 1640v-18h-112l-167 168l-166 -168h-110v21l227 221h98z" unicode="Ŝ" glyph-name="Scircumflex" horiz-adv-x="1236"/>
<glyph d="M806 277q0 76 -62.5 132.5t-225.5 92.5q-192 40 -285.5 109.5t-93.5 194.5q0 124 104.5 210t276.5 86q181 0 289 -91.5t103 -225.5l-2 -6h-111q0 89 -76.5 155t-202.5 66q-130 0 -196 -57t-66 -133q0 -74 56.5 -122.5t225.5 -85.5q190 -42 287.5 -117t97.5 -202 q0 -135 -109.5 -219.5t-289.5 -84.5q-197 0 -309.5 94t-106.5 224l2 6h110q7 -117 95.5 -170t208.5 -53q130 0 205 58t75 139zM799 1297v-18h-112l-167 168l-166 -168h-110v21l227 221h98z" unicode="ŝ" glyph-name="scircumflex" horiz-adv-x="1043"/>
<glyph d="M1007 354q0 112 -89 185t-302 137q-233 64 -354.5 159.5t-121.5 259.5q0 167 136 274.5t347 107.5q222 0 357 -121.5t131 -308.5l-2 -6h-112q0 144 -104.5 239t-269.5 95q-170 0 -266.5 -80.5t-96.5 -197.5q0 -111 87.5 -182.5t308.5 -133.5q230 -67 351 -165t121 -260 q0 -170 -141.5 -273.5t-356.5 -103.5t-375 109.5t-155 319.5l2 6h111q0 -169 127 -251.5t290 -82.5q167 0 272 76.5t105 197.5zM657 -9l-12 -64q79 -9 127.5 -48.5t48.5 -122.5q0 -91 -79 -145.5t-226 -54.5l-7 78q90 0 151.5 30.5t61.5 89.5q0 57 -41.5 79.5t-145.5 30.5 l29 127h93z" unicode="Ş" glyph-name="Scedilla" horiz-adv-x="1236"/>
<glyph d="M806 277q0 76 -62.5 132.5t-225.5 92.5q-192 40 -285.5 109.5t-93.5 194.5q0 124 104.5 210t276.5 86q181 0 289 -91.5t103 -225.5l-2 -6h-111q0 89 -76.5 155t-202.5 66q-130 0 -196 -57t-66 -133q0 -74 56.5 -122.5t225.5 -85.5q190 -42 287.5 -117t97.5 -202 q0 -135 -109.5 -219.5t-289.5 -84.5q-197 0 -309.5 94t-106.5 224l2 6h110q7 -117 95.5 -170t208.5 -53q130 0 205 58t75 139zM556 -6l-12 -64q79 -9 127.5 -48.5t48.5 -122.5q0 -91 -79 -145.5t-226 -54.5l-7 78q90 0 151.5 30.5t61.5 89.5q0 57 -41.5 79.5t-145.5 30.5 l29 127h93z" unicode="ş" glyph-name="scedilla" horiz-adv-x="1043"/>
<glyph d="M1007 354q0 112 -89 185t-302 137q-233 64 -354.5 159.5t-121.5 259.5q0 167 136 274.5t347 107.5q222 0 357 -121.5t131 -308.5l-2 -6h-112q0 144 -104.5 239t-269.5 95q-170 0 -266.5 -80.5t-96.5 -197.5q0 -111 87.5 -182.5t308.5 -133.5q230 -67 351 -165t121 -260 q0 -170 -141.5 -273.5t-356.5 -103.5t-375 109.5t-155 319.5l2 6h111q0 -169 127 -251.5t290 -82.5q167 0 272 76.5t105 197.5zM620 1697l166 169h115v-17l-233 -225h-97l-232 225v17h114z" unicode="Š" glyph-name="Scaron" horiz-adv-x="1236"/>
<glyph d="M806 277q0 76 -62.5 132.5t-225.5 92.5q-192 40 -285.5 109.5t-93.5 194.5q0 124 104.5 210t276.5 86q181 0 289 -91.5t103 -225.5l-2 -6h-111q0 89 -76.5 155t-202.5 66q-130 0 -196 -57t-66 -133q0 -74 56.5 -122.5t225.5 -85.5q190 -42 287.5 -117t97.5 -202 q0 -135 -109.5 -219.5t-289.5 -84.5q-197 0 -309.5 94t-106.5 224l2 6h110q7 -117 95.5 -170t208.5 -53q130 0 205 58t75 139zM519 1354l166 169h115v-17l-233 -225h-97l-232 225v17h114z" unicode="š" glyph-name="scaron" horiz-adv-x="1043"/>
<glyph d="M1176 1354h-496v-1354h-119v1354h-513v102h1128v-102zM669 -245l-83 -209h-71l52 211v120h102v-122z" unicode="Ţ" glyph-name="Tcommaaccent" horiz-adv-x="1224"/>
<glyph d="M345 1359v-277h238v-98h-238v-705q0 -106 38.5 -150.5t102.5 -44.5q22 0 42.5 2.5t48.5 8.5l18 -89q-24 -12 -59.5 -19.5t-70.5 -7.5q-114 0 -177.5 72t-63.5 228v705h-187v98h187v277h121zM506 -255l-83 -209h-71l52 211v120h102v-122z" unicode="ţ" glyph-name="tcommaaccent" horiz-adv-x="659"/>
<glyph d="M1176 1354h-496v-1354h-119v1354h-513v102h1128v-102zM619 1671l166 169h115v-17l-233 -225h-97l-232 225v17h114z" unicode="Ť" glyph-name="Tcaron" horiz-adv-x="1224"/>
<glyph d="M345 1359v-277h238v-98h-238v-705q0 -106 38.5 -150.5t102.5 -44.5q22 0 42.5 2.5t48.5 8.5l18 -89q-24 -12 -59.5 -19.5t-70.5 -7.5q-114 0 -177.5 72t-63.5 228v705h-187v98h187v277h121zM646 1440l-83 -209h-71l52 211v120h102v-122z" unicode="ť" glyph-name="tcaron" horiz-adv-x="659"/>
<glyph d="M916 834h-236v-834h-119v834h-257v102h257v418h-513v102h1128v-102h-496v-418h236v-102z" unicode="Ŧ" glyph-name="Tbar" horiz-adv-x="1224"/>
<glyph d="M345 1359v-277h238v-98h-238v-265h286v-102h-286v-338q0 -106 38.5 -150.5t102.5 -44.5q22 0 42.5 2.5t48.5 8.5l18 -89q-24 -12 -59.5 -19.5t-70.5 -7.5q-114 0 -177.5 72t-63.5 228v338h-205v102h205v265h-187v98h187v277h121z" unicode="ŧ" glyph-name="tbar" horiz-adv-x="659"/>
<glyph d="M1209 1456v-967q0 -240 -147 -375t-378 -135q-228 0 -372.5 135.5t-144.5 374.5v967h120v-967q0 -188 111.5 -298.5t285.5 -110.5q178 0 292 110t114 299v967h119zM1017 1822q0 -88 -55 -146t-137 -58q-74 0 -151 55t-131 55q-47 0 -79 -35t-32 -89l-80 18q0 86 54 144.5 t137 58.5q65 0 147 -55t135 -55q46 0 79 36t33 91z" unicode="Ũ" glyph-name="Utilde" horiz-adv-x="1374"/>
<glyph d="M866 176q-52 -95 -139.5 -146t-207.5 -51q-171 0 -268 116t-97 360v627h120v-629q0 -198 67.5 -284t191.5 -86q135 0 215.5 60.5t113.5 165.5v773h120v-1082h-106zM900 1480q0 -88 -55 -146t-137 -58q-74 0 -151 55t-131 55q-47 0 -79 -35t-32 -89l-80 18q0 86 54 144.5 t137 58.5q65 0 147 -55t135 -55q46 0 79 36t33 91z" unicode="ũ" glyph-name="utilde"/>
<glyph d="M1209 1456v-967q0 -240 -147 -375t-378 -135q-228 0 -372.5 135.5t-144.5 374.5v967h120v-967q0 -188 111.5 -298.5t285.5 -110.5q178 0 292 110t114 299v967h119zM1030 1689h-670v97h670v-97z" unicode="Ū" glyph-name="Umacron" horiz-adv-x="1374"/>
<glyph d="M866 176q-52 -95 -139.5 -146t-207.5 -51q-171 0 -268 116t-97 360v627h120v-629q0 -198 67.5 -284t191.5 -86q135 0 215.5 60.5t113.5 165.5v773h120v-1082h-106zM913 1347h-670v97h670v-97z" unicode="ū" glyph-name="umacron"/>
<glyph d="M1209 1456v-967q0 -240 -147 -375t-378 -135q-228 0 -372.5 135.5t-144.5 374.5v967h120v-967q0 -188 111.5 -298.5t285.5 -110.5q178 0 292 110t114 299v967h119zM978 1854l2 -6q4 -112 -73 -182t-210 -70t-210.5 70.5t-72.5 181.5l2 6h94q0 -77 45 -124t142 -47 q94 0 140.5 48t46.5 123h94z" unicode="Ŭ" glyph-name="Ubreve" horiz-adv-x="1374"/>
<glyph d="M866 176q-52 -95 -139.5 -146t-207.5 -51q-171 0 -268 116t-97 360v627h120v-629q0 -198 67.5 -284t191.5 -86q135 0 215.5 60.5t113.5 165.5v773h120v-1082h-106zM861 1511l2 -6q4 -112 -73 -182t-210 -70t-210.5 70.5t-72.5 181.5l2 6h94q0 -77 45 -124t142 -47 q94 0 140.5 48t46.5 123h94z" unicode="ŭ" glyph-name="ubreve"/>
<glyph d="M1209 1456v-967q0 -240 -147 -375t-378 -135q-228 0 -372.5 135.5t-144.5 374.5v967h120v-967q0 -188 111.5 -298.5t285.5 -110.5q178 0 292 110t114 299v967h119zM541 1730q0 63 45.5 108t108.5 45q62 0 106.5 -44.5t44.5 -108.5q0 -65 -44 -107t-107 -42q-64 0 -109 42 t-45 107zM618 1730q0 -33 22.5 -55t54.5 -22q31 0 53 21.5t22 55.5t-22 56.5t-53 22.5q-32 0 -54.5 -22.5t-22.5 -56.5z" unicode="Ů" glyph-name="Uring" horiz-adv-x="1374"/>
<glyph d="M866 176q-52 -95 -139.5 -146t-207.5 -51q-171 0 -268 116t-97 360v627h120v-629q0 -198 67.5 -284t191.5 -86q135 0 215.5 60.5t113.5 165.5v773h120v-1082h-106zM424 1387q0 63 45.5 108t108.5 45q62 0 106.5 -44.5t44.5 -108.5q0 -65 -44 -107t-107 -42q-64 0 -109 42 t-45 107zM501 1387q0 -33 22.5 -55t54.5 -22q31 0 53 21.5t22 55.5t-22 56.5t-53 22.5q-32 0 -54.5 -22.5t-22.5 -56.5z" unicode="ů" glyph-name="uring"/>
<glyph d="M1209 1456v-967q0 -240 -147 -375t-378 -135q-228 0 -372.5 135.5t-144.5 374.5v967h120v-967q0 -188 111.5 -298.5t285.5 -110.5q178 0 292 110t114 299v967h119zM1004 1867h145l2 -6l-296 -260h-113l-2 6zM709 1867h133l3 -6l-245 -260h-102l-3 5z" unicode="Ű" glyph-name="Uhungarumlaut" horiz-adv-x="1374"/>
<glyph d="M866 176q-52 -95 -139.5 -146t-207.5 -51q-171 0 -268 116t-97 360v627h120v-629q0 -198 67.5 -284t191.5 -86q135 0 215.5 60.5t113.5 165.5v773h120v-1082h-106zM887 1524h145l2 -6l-296 -260h-113l-2 6zM592 1524h133l3 -6l-245 -260h-102l-3 5z" unicode="ű" glyph-name="uhungarumlaut"/>
<glyph d="M1209 1456v-967q0 -240 -147 -375t-378 -135q-228 0 -372.5 135.5t-144.5 374.5v967h120v-967q0 -188 111.5 -298.5t285.5 -110.5q178 0 292 110t114 299v967h119zM780 0q-72 -60 -110 -108t-38 -104q0 -31 19 -58t70 -27q32 0 56.5 9t48.5 23l24 -83 q-30 -19 -66.5 -31.5t-85.5 -12.5q-76 0 -125 44.5t-49 124.5q0 71 51 139t144 121z" unicode="Ų" glyph-name="Uogonek" horiz-adv-x="1374"/>
<glyph d="M866 176q-52 -95 -139.5 -146t-207.5 -51q-171 0 -268 116t-97 360v627h120v-629q0 -198 67.5 -284t191.5 -86q135 0 215.5 60.5t113.5 165.5v773h120v-1082h-106zM966 0q-72 -60 -110 -108t-38 -104q0 -31 19 -58t70 -27q32 0 56.5 9t48.5 23l24 -83 q-30 -19 -66.5 -31.5t-85.5 -12.5q-76 0 -125 44.5t-49 124.5q0 71 51 139t144 121z" unicode="ų" glyph-name="uogonek"/>
<glyph d="M440 418l45 -235h6l51 235l304 1038h121l305 -1038l49 -236h6l48 236l257 1038h130l-373 -1456h-114l-329 1117l-36 157h-6l-34 -157l-333 -1117h-114l-373 1456h130zM1184 1619v-18h-112l-167 168l-166 -168h-110v21l227 221h98z" unicode="Ŵ" glyph-name="Wcircumflex" horiz-adv-x="1813"/>
<glyph d="M391 351l42 -198h6l50 198l230 731h103l230 -731l50 -204h6l47 204l193 731h128l-315 -1082h-102l-245 740l-43 175h-6l-43 -175l-240 -740h-103l-314 1082h128zM1052 1276v-18h-112l-167 168l-166 -168h-110v21l227 221h98z" unicode="ŵ" glyph-name="wcircumflex" horiz-adv-x="1550"/>
<glyph d="M625 647l451 809h139l-531 -924v-532h-119v537l-527 919h139zM904 1612v-18h-112l-167 168l-166 -168h-110v21l227 221h98z" unicode="Ŷ" glyph-name="Ycircumflex" horiz-adv-x="1256"/>
<glyph d="M465 293l38 -129h6l327 918h134l-470 -1255q-42 -110 -109 -187t-196 -77q-21 0 -51 4.5t-44 9.5l14 100q12 -2 38.5 -4.5t38.5 -2.5q78 0 125 55.5t80 142.5l57 146l-418 1068h133zM793 1276v-18h-112l-167 168l-166 -168h-110v21l227 221h98z" unicode="ŷ" glyph-name="ycircumflex" horiz-adv-x="1002"/>
<glyph d="M625 647l451 809h139l-531 -924v-532h-119v537l-527 919h139zM951 1634h-173v157h173v-157zM482 1634h-174v157h174v-157z" unicode="Ÿ" glyph-name="Ydieresis" horiz-adv-x="1256"/>
<glyph d="M238 101h893v-101h-1036v92l858 1262h-831v102h977v-87zM746 1863h147l3 -6l-249 -260h-107z" unicode="Ź" glyph-name="Zacute" horiz-adv-x="1224"/>
<glyph d="M238 101h703v-101h-851v88l652 891h-632v103h783v-89zM661 1520h147l3 -6l-249 -260h-107z" unicode="ź" glyph-name="zacute" horiz-adv-x="1002"/>
<glyph d="M238 101h893v-101h-1036v92l858 1262h-831v102h977v-87zM683 1637h-151v168h151v-168z" unicode="Ż" glyph-name="Zdotaccent" horiz-adv-x="1224"/>
<glyph d="M238 101h703v-101h-851v88l652 891h-632v103h783v-89zM598 1294h-151v168h151v-168z" unicode="ż" glyph-name="zdotaccent" horiz-adv-x="1002"/>
<glyph d="M238 101h893v-101h-1036v92l858 1262h-831v102h977v-87zM608 1676l166 169h115v-17l-233 -225h-97l-232 225v17h114z" unicode="Ž" glyph-name="Zcaron" horiz-adv-x="1224"/>
<glyph d="M238 101h703v-101h-851v88l652 891h-632v103h783v-89zM523 1333l166 169h115v-17l-233 -225h-97l-232 225v17h114z" unicode="ž" glyph-name="zcaron" horiz-adv-x="1002"/>
<glyph d="M167 0v1240q0 163 81.5 252t228.5 89q33 0 67 -5t69 -14l-16 -96q-25 6 -49 9.5t-56 3.5q-98 0 -152 -63.5t-54 -175.5v-1240h-119z" unicode="ſ" glyph-name="longs" horiz-adv-x="465"/>
<glyph d="M600 984h-244v-1073q0 -167 -80.5 -257.5t-223.5 -90.5q-30 0 -55 4.5t-56 14.5l14 99q15 -5 45 -10.5t52 -5.5q87 0 135.5 64.5t48.5 181.5v1073h-180v98h180v158q0 163 81.5 252t228.5 89q33 0 67 -5t69 -14l-15 -99q-25 6 -50 9.5t-59 3.5q-98 0 -150 -62t-52 -174 v-158h244v-98z" unicode="ƒ" glyph-name="florin" horiz-adv-x="670"/>
<glyph d="M1249 609q0 -282 -154.5 -456t-414.5 -174q-256 0 -408.5 174t-152.5 456v237q0 281 152 456t408 175q137 0 248 -52t187 -147q145 3 221.5 93t76.5 255h113l3 -5q2 -192 -90 -306t-262 -135q35 -72 54 -156.5t19 -177.5v-237zM1130 848q0 236 -119.5 380t-331.5 144 q-208 0 -324 -144t-116 -380v-239q0 -238 116.5 -382t324.5 -144q213 0 331.5 143.5t118.5 382.5v239z" unicode="Ơ" glyph-name="Ohorn" horiz-adv-x="1429"/>
<glyph d="M91 557q0 239 131 392t347 153q104 0 190 -37.5t150 -106.5q112 9 169 82.5t57 199.5h111q0 -151 -72.5 -244t-207.5 -116q40 -68 61 -149.5t21 -173.5v-33q0 -240 -130.5 -392.5t-346.5 -152.5q-218 0 -349 152.5t-131 392.5v33zM211 524q0 -188 95 -316t265 -128 q167 0 262.5 128t95.5 316v33q0 185 -96 314t-264 129t-263 -129t-95 -314v-33z" unicode="ơ" glyph-name="ohorn" horiz-adv-x="1146"/>
<glyph d="M1209 1456v-193l6 -2q131 11 200.5 101t69.5 245h113l2 -5q3 -197 -99.5 -312t-291.5 -131v-670q0 -240 -147 -375t-378 -135q-228 0 -372.5 135.5t-144.5 374.5v967h120v-967q0 -188 111.5 -298.5t285.5 -110.5q178 0 292 110t114 299v967h119z" unicode="Ư" glyph-name="Uhorn" horiz-adv-x="1395"/>
<glyph d="M1321 1250l2 -5q3 -174 -83.5 -270.5t-257.5 -108.5v-866h-106l-10 176q-52 -95 -139.5 -146t-207.5 -51q-171 0 -268 116t-97 360v627h120v-629q0 -198 67.5 -284t191.5 -86q135 0 215.5 60.5t113.5 165.5v773h120v-121l6 -2q117 7 173 80.5t56 210.5h104z" unicode="ư" glyph-name="uhorn" horiz-adv-x="1159"/>
<glyph d="M298 1082v-1171q0 -167 -80 -257.5t-222 -90.5q-30 0 -56 5t-56 14l13 99q16 -5 47 -10.5t52 -5.5q87 0 135 65t48 181v1171h119zM237 1314l166 169h115v-17l-233 -225h-97l-232 225v17h114z" unicode="ǰ" glyph-name="uni01F0" horiz-adv-x="468"/>
<glyph d="M948 406h-639l-147 -406h-124l535 1456h113l531 -1456h-124zM347 513h562l-276 772h-6zM754 2083h129l3 -6l-197 -198h-95zM474 1673q0 65 45.5 109.5t109.5 44.5q63 0 107.5 -44.5t44.5 -109.5q0 -64 -44.5 -107t-107.5 -43q-64 0 -109.5 43t-45.5 107zM542 1673 q0 -36 25.5 -61t61.5 -25q35 0 60 24.5t25 61.5q0 38 -25 64t-60 26q-36 0 -61.5 -26t-25.5 -64z" unicode="Ǻ" glyph-name="Aringacute" horiz-adv-x="1256"/>
<glyph d="M843 0q-11 57 -16.5 98t-5.5 84q-56 -88 -157 -145.5t-232 -57.5q-159 0 -246.5 84.5t-87.5 229.5t127 235t330 90h266v134q0 116 -73.5 182t-207.5 66q-123 0 -198.5 -60t-75.5 -151h-111l-2 6q-6 122 104.5 214.5t288.5 92.5t286 -91t108 -261v-532q0 -57 6.5 -111 t21.5 -107h-125zM445 85q138 0 239 65.5t137 168.5v207h-267q-146 0 -241 -69.5t-95 -167.5q0 -92 60.5 -148t166.5 -56zM669 1762h129l3 -6l-197 -198h-95zM389 1352q0 65 45.5 109.5t109.5 44.5q63 0 107.5 -44.5t44.5 -109.5q0 -64 -44.5 -107t-107.5 -43 q-64 0 -109.5 43t-45.5 107zM457 1352q0 -36 25.5 -61t61.5 -25q35 0 60 24.5t25 61.5q0 38 -25 64t-60 26q-36 0 -61.5 -26t-25.5 -64z" unicode="ǻ" glyph-name="aringacute" horiz-adv-x="1101"/>
<glyph d="M1839 0h-817l-17 389h-597l-229 -389h-146l881 1456h864v-102h-694l23 -545h589v-102h-585l26 -606h702v-101zM475 502h526l-35 839l-6 1l-15 -44zM1108 1863h147l3 -6l-249 -260h-107z" unicode="Ǽ" glyph-name="AEacute" horiz-adv-x="1900"/>
<glyph d="M1295 -21q-138 0 -241 55.5t-163 157.5q-49 -87 -159.5 -150t-269.5 -63q-170 0 -262.5 84.5t-92.5 229.5q0 147 113 231.5t326 84.5h262v111q0 133 -63 206.5t-182 73.5q-130 0 -205 -67t-75 -168l-111 12l-2 6q-5 138 103.5 228.5t289.5 90.5q121 0 208.5 -54 t127.5 -157q61 99 156.5 155t209.5 56q200 0 311.5 -124t111.5 -340v-100h-754v-29q0 -191 89.5 -310t271.5 -119q103 0 181.5 32.5t142.5 86.5l47 -87q-60 -55 -148.5 -94t-222.5 -39zM479 79q102 0 197.5 53.5t131.5 115.5v264h-260q-156 0 -238.5 -64t-82.5 -159 q0 -97 65 -153.5t187 -56.5zM1265 1000q-138 0 -224 -101.5t-99 -257.5l2 -5h625v31q0 146 -77.5 239.5t-226.5 93.5zM1026 1542h147l3 -6l-249 -260h-107z" unicode="ǽ" glyph-name="aeacute" horiz-adv-x="1796"/>
<glyph d="M1254 609q0 -282 -154.5 -456t-414.5 -174q-92 0 -171.5 23.5t-144.5 68.5l-96 -155h-104l131 212q-86 84 -131 207.5t-45 273.5v237q0 281 152 456t408 175q109 0 201.5 -33t165.5 -95l96 156h104l-136 -222q67 -84 103 -195.5t36 -241.5v-237zM244 609 q0 -118 29.5 -214.5t85.5 -160.5l6 -1l627 1021q-58 57 -135.5 87.5t-172.5 30.5q-208 0 -324 -144t-116 -380v-239zM1135 848q0 97 -21.5 180.5t-60.5 144.5h-6l-621 -1009q51 -40 116.5 -60.5t142.5 -20.5q213 0 331.5 143.5t118.5 382.5v239zM843 1925h147l3 -6 l-249 -260h-107z" unicode="Ǿ" glyph-name="Oslashacute" horiz-adv-x="1379"/>
<glyph d="M91 557q0 239 131 392t347 153q60 0 114 -12.5t102 -36.5l79 161h93l-101 -207q91 -72 141.5 -189t50.5 -261v-33q0 -240 -130.5 -392.5t-346.5 -152.5q-55 0 -104.5 10.5t-94.5 30.5l-78 -160h-93l99 202q-100 70 -154.5 190.5t-54.5 271.5v33zM211 524q0 -112 35 -206 t100 -149h6l385 787q-36 21 -78.5 32.5t-89.5 11.5q-168 0 -263 -129t-95 -314v-33zM929 557q0 102 -32 192t-89 147h-6l-384 -782q33 -17 71.5 -25.5t81.5 -8.5q167 0 262.5 128t95.5 316v33zM660 1540h147l3 -6l-249 -260h-107z" unicode="ǿ" glyph-name="oslashacute" horiz-adv-x="1141"/>
<glyph d="M1007 354q0 112 -89 185t-302 137q-233 64 -354.5 159.5t-121.5 259.5q0 167 136 274.5t347 107.5q222 0 357 -121.5t131 -308.5l-2 -6h-112q0 144 -104.5 239t-269.5 95q-170 0 -266.5 -80.5t-96.5 -197.5q0 -111 87.5 -182.5t308.5 -133.5q230 -67 351 -165t121 -260 q0 -170 -141.5 -273.5t-356.5 -103.5t-375 109.5t-155 319.5l2 6h111q0 -169 127 -251.5t290 -82.5q167 0 272 76.5t105 197.5zM669 -265l-83 -209h-71l52 211v120h102v-122z" unicode="Ș" glyph-name="Scommaaccent" horiz-adv-x="1236"/>
<glyph d="M806 277q0 76 -62.5 132.5t-225.5 92.5q-192 40 -285.5 109.5t-93.5 194.5q0 124 104.5 210t276.5 86q181 0 289 -91.5t103 -225.5l-2 -6h-111q0 89 -76.5 155t-202.5 66q-130 0 -196 -57t-66 -133q0 -74 56.5 -122.5t225.5 -85.5q190 -42 287.5 -117t97.5 -202 q0 -135 -109.5 -219.5t-289.5 -84.5q-197 0 -309.5 94t-106.5 224l2 6h110q7 -117 95.5 -170t208.5 -53q130 0 205 58t75 139zM568 -262l-83 -209h-71l52 211v120h102v-122z" unicode="ș" glyph-name="scommaaccent" horiz-adv-x="1043"/>
<glyph d="M298 1082v-1171q0 -167 -80 -257.5t-222 -90.5q-30 0 -56 5t-56 14l13 99q16 -5 47 -10.5t52 -5.5q87 0 135 65t48 181v1171h119z" unicode="ȷ" glyph-name="uni0237" horiz-adv-x="468"/>
<glyph d="M302 1277l-73 -307h-72l26 304v182h119v-179z" unicode="ʼ" glyph-name="uni02BC" horiz-adv-x="469"/>
<glyph d="M715 1270v-18h-112l-167 168l-166 -168h-110v21l227 221h98z" unicode="ˆ" glyph-name="circumflex" horiz-adv-x="880"/>
<glyph d="M417 1325l166 169h115v-17l-233 -225h-97l-232 225v17h114z" unicode="ˇ" glyph-name="caron" horiz-adv-x="836"/>
<glyph d="M708 1456l2 -6q4 -112 -73 -182t-210 -70t-210.5 70.5t-72.5 181.5l2 6h94q0 -77 45 -124t142 -47q94 0 140.5 48t46.5 123h94z" unicode="˘" glyph-name="breve" horiz-adv-x="865"/>
<glyph d="M308 1288h-151v168h151v-168z" unicode="˙" glyph-name="dotaccent" horiz-adv-x="487"/>
<glyph d="M186 1324q0 63 45.5 108t108.5 45q62 0 106.5 -44.5t44.5 -108.5q0 -65 -44 -107t-107 -42q-64 0 -109 42t-45 107zM263 1324q0 -33 22.5 -55t54.5 -22q31 0 53 21.5t22 55.5t-22 56.5t-53 22.5q-32 0 -54.5 -22.5t-22.5 -56.5z" unicode="˚" glyph-name="ring" horiz-adv-x="676"/>
<glyph d="M347 0q-72 -60 -110 -108t-38 -104q0 -31 19 -58t70 -27q32 0 56.5 9t48.5 23l24 -83q-30 -19 -66.5 -31.5t-85.5 -12.5q-76 0 -125 44.5t-49 124.5q0 71 51 139t144 121z" unicode="˛" glyph-name="ogonek" horiz-adv-x="512"/>
<glyph d="M767 1481q0 -88 -55 -146t-137 -58q-74 0 -151 55t-131 55q-47 0 -79 -35t-32 -89l-80 18q0 86 54 144.5t137 58.5q65 0 147 -55t135 -55q46 0 79 36t33 91z" unicode="˜" glyph-name="tilde" horiz-adv-x="892"/>
<glyph d="M643 1518h145l2 -6l-296 -260h-113l-2 6zM348 1518h133l3 -6l-245 -260h-102l-3 5z" unicode="˝" glyph-name="hungarumlaut" horiz-adv-x="773"/>
<glyph d="M184 -226q0 57 43 95.5t103 38.5q58 0 100 -38.5t42 -95.5q0 -55 -41.5 -92.5t-100.5 -37.5q-61 0 -103.5 37.5t-42.5 92.5zM256 -226q0 -25 21.5 -43.5t52.5 -18.5q30 0 50.5 18t20.5 44q0 29 -20.5 47t-50.5 18q-31 0 -52.5 -18t-21.5 -47z" unicode="˳" glyph-name="uni02F3" horiz-adv-x="655"/>
<glyph d="M-536.644 1264.03h-81.5518l-167.981 344.602l1.39355 6.60156h107.342z" unicode="̀" glyph-name="gravecomb" horiz-adv-x="0"/>
<glyph d="M-504.082 1616.16h100.354l2.04785 -7.94531l-169.987 -344.297h-73.0459z" unicode="́" glyph-name="acutecomb" horiz-adv-x="0"/>
<glyph d="M-252 1481q0 -88 -55 -146t-137 -58q-74 0 -151 55t-131 55q-47 0 -79 -35t-32 -89l-80 18q0 86 54 144.5t137 58.5q65 0 147 -55t135 -55q46 0 79 36t33 91z" unicode="̃" glyph-name="tildecomb" horiz-adv-x="0"/>
<glyph d="M-625 1234v125q90 6 128.5 27t38.5 67q0 49 -58 72t-143 23l7 77q136 0 215 -47t79 -126q0 -74 -49 -111.5t-127 -44.5l-1 -62h-90z" unicode="̉" glyph-name="hook" horiz-adv-x="0"/>
<glyph d="M-560 1258l-2 -6h-113l-296 260l2 6h145zM-315 1257l-3 -5h-102l-245 260l3 6h133z" unicode="̏" glyph-name="uni030F" horiz-adv-x="0"/>
<glyph d="M-512 -315h-151v168h151v-168z" unicode="̣" glyph-name="dotbelow" horiz-adv-x="0"/>
<glyph d="M250 1529h153l-129 -224h-56z" unicode="΄" glyph-name="tonos" horiz-adv-x="519"/>
<glyph d="M815 1304h-159v152h159v-152zM323 1304h-160v152h160v-152zM480 1691h174l-122 -219h-88z" unicode="΅" glyph-name="dieresistonos" horiz-adv-x="981"/>
<glyph d="M948 406h-639l-147 -406h-124l535 1456h113l531 -1456h-124zM347 513h562l-276 772h-6zM258 1529h153l-129 -224h-56z" unicode="Ά" glyph-name="Alphatonos" horiz-adv-x="1256"/>
<glyph d="M321 624h-155v180h155v-180z" unicode="·" glyph-name="anoteleia" horiz-adv-x="503"/>
<glyph d="M959 705h-653v-604h755v-101h-875v1456h870v-102h-750v-547h653v-102zM-42 1531h153l-129 -224h-56z" unicode="Έ" glyph-name="Epsilontonos" horiz-adv-x="1129"/>
<glyph d="M1253 0h-120v670h-827v-670h-120v1456h120v-684h827v684h120v-1456zM6 1531h153l-129 -224h-56z" unicode="Ή" glyph-name="Etatonos" horiz-adv-x="1439"/>
<glyph d="M337 0h-120v1456h120v-1456zM9 1528h153l-129 -224h-56z" unicode="Ί" glyph-name="Iotatonos" horiz-adv-x="554"/>
<glyph d="M1254 609q0 -282 -154.5 -456t-414.5 -174q-256 0 -408.5 174t-152.5 456v237q0 281 152 456t408 175q260 0 415 -175t155 -456v-237zM1135 848q0 236 -119.5 380t-331.5 144q-208 0 -324 -144t-116 -380v-239q0 -238 116.5 -382t324.5 -144q213 0 331.5 143.5 t118.5 382.5v239zM147 1529h153l-129 -224h-56z" unicode="Ό" glyph-name="Omicrontonos" horiz-adv-x="1378"/>
<glyph d="M625 647l451 809h139l-531 -924v-532h-119v537l-527 919h139zM-129 1529h153l-129 -224h-56z" unicode="Ύ" glyph-name="Upsilontonos" horiz-adv-x="1256"/>
<glyph d="M749 116q144 49 237.5 200t93.5 411v119q0 239 -113.5 384t-304.5 145q-192 0 -304.5 -145t-112.5 -384v-119q0 -261 95.5 -412t242.5 -199v-116h-463v101h312q-138 87 -222 250.5t-84 375.5v117q0 283 148 458t388 175q239 0 388.5 -175.5t149.5 -457.5v-117 q0 -212 -84.5 -375.5t-219.5 -250.5h316v-101h-463v116zM125 1529h153l-129 -224h-56z" unicode="Ώ" glyph-name="Omegatonos" horiz-adv-x="1341"/>
<glyph d="M302 1081v-807q0 -106 38 -148.5t107 -42.5q26 0 49 4t51 13l25 -89q-34 -18 -69.5 -25t-77.5 -7q-123 0 -183 70.5t-60 229.5v802h120zM571 1231h-159v152h159v-152zM79 1231h-160v152h160v-152zM236 1618h174l-122 -219h-88z" unicode="ΐ" glyph-name="iotadieresistonos" horiz-adv-x="614"/>
<glyph d="M948 406h-639l-147 -406h-124l535 1456h113l531 -1456h-124zM347 513h562l-276 772h-6z" unicode="Α" glyph-name="Alpha" horiz-adv-x="1256"/>
<glyph d="M186 0v1456h425q227 0 354 -95.5t127 -287.5q0 -109 -61.5 -191t-165.5 -116q138 -17 225.5 -120t87.5 -241q0 -195 -126.5 -300t-338.5 -105h-527zM306 702v-601h407q161 0 253 79.5t92 222.5q0 131 -90.5 212.5t-242.5 86.5h-16h-403zM306 803h350q151 3 233.5 72.5 t82.5 201.5q0 138 -92 207.5t-269 69.5h-305v-551z" unicode="Β" glyph-name="Beta" horiz-adv-x="1263"/>
<glyph d="M1055 1354h-756v-1354h-120v1456h876v-102z" unicode="Γ" glyph-name="Gamma" horiz-adv-x="1122"/>
<glyph d="M774 1456l598 -1456h-1327l616 1456h113zM211 101h995l-486 1207h-6z" unicode="Δ" glyph-name="Delta" horiz-adv-x="1427"/>
<glyph d="M774 1456l598 -1456h-1327l616 1456h113zM211 101h995l-486 1207h-6z" unicode="∆" glyph-name="Delta" horiz-adv-x="1427"/>
<glyph d="M959 705h-653v-604h755v-101h-875v1456h870v-102h-750v-547h653v-102z" unicode="Ε" glyph-name="Epsilon" horiz-adv-x="1129"/>
<glyph d="M238 101h893v-101h-1036v92l858 1262h-831v102h977v-87z" unicode="Ζ" glyph-name="Zeta" horiz-adv-x="1224"/>
<glyph d="M1253 0h-120v670h-827v-670h-120v1456h120v-684h827v684h120v-1456z" unicode="Η" glyph-name="Eta" horiz-adv-x="1439"/>
<glyph d="M966 676h-554v101h554v-101zM1254 609q0 -282 -154.5 -456t-414.5 -174q-256 0 -408.5 174t-152.5 456v237q0 281 152 456t408 175q260 0 415 -175t155 -456v-237zM1135 848q0 236 -119.5 380t-331.5 144q-208 0 -324 -144t-116 -380v-239q0 -238 116.5 -382t324.5 -144 q213 0 331.5 143.5t118.5 382.5v239z" unicode="Θ" glyph-name="Theta" horiz-adv-x="1379"/>
<glyph d="M337 0h-120v1456h120v-1456z" unicode="Ι" glyph-name="Iota" horiz-adv-x="554"/>
<glyph d="M463 691h-157v-691h-120v1456h120v-664h156l572 664h136l2 -5l-604 -700l664 -746l-2 -5h-144z" unicode="Κ" glyph-name="Kappa" horiz-adv-x="1261"/>
<glyph d="M662 1283h-6l-462 -1283h-125l534 1456h114l534 -1456h-124z" unicode="Λ" glyph-name="Lambda" horiz-adv-x="1327"/>
<glyph d="M886 174h6l542 1282h146v-1456h-120v1223l-6 1l-522 -1224h-86l-534 1254l-6 -1v-1253h-120v1456h160z" unicode="Μ" glyph-name="Mu" horiz-adv-x="1766"/>
<glyph d="M1259 0h-120l-827 1246l-6 -1v-1245h-120v1456h120l827 -1243l6 1v1242h120v-1456z" unicode="Ν" glyph-name="Nu" horiz-adv-x="1445"/>
<glyph d="M117 101h919v-101h-919v101zM213 784h718v-102h-718v102zM128 1456h882v-102h-882v102z" unicode="Ξ" glyph-name="Xi" horiz-adv-x="1145"/>
<glyph d="M1254 609q0 -282 -154.5 -456t-414.5 -174q-256 0 -408.5 174t-152.5 456v237q0 281 152 456t408 175q260 0 415 -175t155 -456v-237zM1135 848q0 236 -119.5 380t-331.5 144q-208 0 -324 -144t-116 -380v-239q0 -238 116.5 -382t324.5 -144q213 0 331.5 143.5 t118.5 382.5v239z" unicode="Ο" glyph-name="Omicron" horiz-adv-x="1378"/>
<glyph d="M1253 0h-120v1354h-828v-1354h-120v1456h1068v-1456z" unicode="Π" glyph-name="Pi" horiz-adv-x="1438"/>
<glyph d="M306 605v-605h-120v1456h502q229 0 354.5 -117t125.5 -308q0 -194 -125.5 -310t-354.5 -116h-382zM306 707h382q180 0 270 91.5t90 230.5q0 140 -90 232.5t-270 92.5h-382v-647z" unicode="Ρ" glyph-name="Rho" horiz-adv-x="1263"/>
<glyph d="M703 743l-490 -641h857v-102h-1007v93l516 666l-516 604v93h952v-102h-788l-2 -5l478 -570v-36z" unicode="Σ" glyph-name="Sigma" horiz-adv-x="1145"/>
<glyph d="M1176 1354h-496v-1354h-119v1354h-513v102h1128v-102z" unicode="Τ" glyph-name="Tau" horiz-adv-x="1224"/>
<glyph d="M625 647l451 809h139l-531 -924v-532h-119v537l-527 919h139z" unicode="Υ" glyph-name="Upsilon" horiz-adv-x="1256"/>
<glyph d="M777 1227q244 -6 398 -149t154 -357q0 -217 -154 -361t-398 -149v-211h-120v211q-246 5 -398.5 148t-152.5 360q0 215 153 358.5t398 149.5v229h120v-229zM1210 721q0 176 -115.5 287t-311.5 112l-6 -3v-797l6 -3q196 1 311.5 113t115.5 291zM225 719q0 -179 114 -290 t312 -112l6 3v797l-6 3q-197 -2 -311.5 -113.5t-114.5 -287.5z" unicode="Φ" glyph-name="Phi" horiz-adv-x="1433"/>
<glyph d="M628 834l411 622h145l-484 -718l500 -738h-143l-427 642l-426 -642h-145l500 738l-485 718h145z" unicode="Χ" glyph-name="Chi" horiz-adv-x="1256"/>
<glyph d="M762 459l6 -2q179 9 290 127t111 312v560h120v-560q0 -246 -145.5 -390t-381.5 -158v-348h-121v349q-233 15 -375 159t-142 388v560h120v-560q0 -193 108 -310.5t283 -128.5l6 2v997h121v-997z" unicode="Ψ" glyph-name="Psi" horiz-adv-x="1422"/>
<glyph d="M749 116q144 49 237.5 200t93.5 411v119q0 239 -113.5 384t-304.5 145q-192 0 -304.5 -145t-112.5 -384v-119q0 -261 95.5 -412t242.5 -199v-116h-463v101h312q-138 87 -222 250.5t-84 375.5v117q0 283 148 458t388 175q239 0 388.5 -175.5t149.5 -457.5v-117 q0 -212 -84.5 -375.5t-219.5 -250.5h316v-101h-463v116z" unicode="Ω" glyph-name="Omega" horiz-adv-x="1341"/>
<glyph d="M749 116q144 49 237.5 200t93.5 411v119q0 239 -113.5 384t-304.5 145q-192 0 -304.5 -145t-112.5 -384v-119q0 -261 95.5 -412t242.5 -199v-116h-463v101h312q-138 87 -222 250.5t-84 375.5v117q0 283 148 458t388 175q239 0 388.5 -175.5t149.5 -457.5v-117 q0 -212 -84.5 -375.5t-219.5 -250.5h316v-101h-463v116z" unicode="Ω" glyph-name="Omega" horiz-adv-x="1341"/>
<glyph d="M337 0h-120v1456h120v-1456zM604 1641h-173v157h173v-157zM135 1641h-174v157h174v-157z" unicode="Ϊ" glyph-name="Iotadieresis" horiz-adv-x="554"/>
<glyph d="M625 647l451 809h139l-531 -924v-532h-119v537l-527 919h139zM951 1634h-173v157h173v-157zM482 1634h-174v157h174v-157z" unicode="Ϋ" glyph-name="Upsilondieresis" horiz-adv-x="1256"/>
<glyph d="M973 1081v-827q0 -93 26.5 -130t75.5 -37q15 0 28 2t30 6l17 -93q-23 -13 -46.5 -18t-50.5 -5q-80 0 -127 39t-63 125q-56 -79 -141 -121.5t-198 -42.5q-194 0 -303.5 144.5t-109.5 387.5v21q0 259 109.5 414.5t305.5 155.5q114 0 198.5 -46.5t140.5 -132.5l36 158h72z M231 511q0 -196 78.5 -313.5t236.5 -117.5q111 0 187.5 49.5t120.5 136.5v535q-41 89 -115.5 144t-190.5 55q-158 0 -237.5 -130.5t-79.5 -337.5v-21zM622 1490h153l-129 -224h-56z" unicode="ά" glyph-name="alphatonos" horiz-adv-x="1153"/>
<glyph d="M107 297q0 97 57 162.5t168 95.5q-98 34 -152 97.5t-54 141.5q0 146 113.5 225.5t310.5 79.5q181 0 305 -84.5t119 -218.5l-2 -6h-109q0 91 -90.5 149.5t-222.5 58.5q-151 0 -227 -57t-76 -145q0 -92 72.5 -143t226.5 -51h185v-100h-185q-159 0 -238.5 -50.5 t-79.5 -156.5q0 -96 85 -154.5t237 -58.5q146 0 238 65.5t92 162.5h110l2 -6q5 -156 -127.5 -239t-314.5 -83q-197 0 -320 84t-123 231zM548 1489h153l-129 -224h-56z" unicode="έ" glyph-name="epsilontonos" horiz-adv-x="1113"/>
<glyph d="M264 1082l11 -183q52 96 139.5 149.5t206.5 53.5q177 0 268.5 -105t91.5 -338v-1074h-120v1073q0 186 -69.5 264t-197.5 78q-124 0 -201.5 -60.5t-114.5 -162.5v-777h-120v1082h106zM575 1490h153l-129 -224h-56z" unicode="ή" glyph-name="etatonos"/>
<glyph d="M302 1081v-807q0 -106 38 -148.5t107 -42.5q26 0 49 4t51 13l25 -89q-34 -18 -69.5 -25t-77.5 -7q-123 0 -183 70.5t-60 229.5v802h120zM243 1469h153l-129 -224h-56z" unicode="ί" glyph-name="iotatonos" horiz-adv-x="614"/>
<glyph d="M275 1082v-604q0 -205 81 -301.5t220 -96.5q166 0 241 129t75 320q-2 144 -33 280.5t-84 272.5h130q49 -125 77.5 -252.5t28.5 -298.5q0 -248 -104.5 -400t-325.5 -152q-202 0 -314 122.5t-112 378.5v602h120zM895 1231h-159v152h159v-152zM403 1231h-160v152h160v-152z M560 1618h174l-122 -219h-88z" unicode="ΰ" glyph-name="upsilondieresistonos"/>
<glyph d="M973 1081v-827q0 -93 26.5 -130t75.5 -37q15 0 28 2t30 6l17 -93q-23 -13 -46.5 -18t-50.5 -5q-80 0 -127 39t-63 125q-56 -79 -141 -121.5t-198 -42.5q-194 0 -303.5 144.5t-109.5 387.5v21q0 259 109.5 414.5t305.5 155.5q114 0 198.5 -46.5t140.5 -132.5l36 158h72z M231 511q0 -196 78.5 -313.5t236.5 -117.5q111 0 187.5 49.5t120.5 136.5v535q-41 89 -115.5 144t-190.5 55q-158 0 -237.5 -130.5t-79.5 -337.5v-21z" unicode="α" glyph-name="alpha" horiz-adv-x="1153"/>
<glyph d="M594 1477q184 0 296.5 -107.5t112.5 -276.5q0 -101 -52.5 -183.5t-146.5 -127.5q138 -39 212 -139.5t74 -238.5q0 -200 -124 -312.5t-326 -112.5q-96 0 -188.5 32.5t-154.5 96.5v-507h-120v1462q0 174 122.5 294t294.5 120zM590 823q151 0 222.5 72t71.5 203 q0 112 -75.5 194.5t-214.5 82.5q-126 0 -211.5 -89t-85.5 -223v-825q45 -73 134.5 -115.5t199.5 -42.5q161 0 250 86t89 234q0 140 -87.5 230.5t-243.5 90.5h-143v102h94z" unicode="β" glyph-name="beta" horiz-adv-x="1213"/>
<glyph d="M839 1082h124l-399 -1051v-447h-120v447l-400 1051h124l298 -811l36 -127h6l37 127z" unicode="γ" glyph-name="gamma" horiz-adv-x="1002"/>
<glyph d="M943 1456v-100h-568l-2 -6l467 -328q95 -68 151.5 -193.5t56.5 -271.5v-33q0 -240 -130.5 -392.5t-346.5 -152.5q-218 0 -349 152.5t-131 392.5v33q0 226 119.5 376t318.5 165q9 0 18 -0.5t12 -0.5l2 6l-367 268v85h749zM569 1000q-168 0 -263 -129t-95 -314v-33 q0 -188 95 -316t265 -128q167 0 262.5 128t95.5 316v33q0 185 -96 314t-264 129z" unicode="δ" glyph-name="delta"/>
<glyph d="M107 297q0 97 57 162.5t168 95.5q-98 34 -152 97.5t-54 141.5q0 146 113.5 225.5t310.5 79.5q181 0 305 -84.5t119 -218.5l-2 -6h-109q0 91 -90.5 149.5t-222.5 58.5q-151 0 -227 -57t-76 -145q0 -92 72.5 -143t226.5 -51h185v-100h-185q-159 0 -238.5 -50.5 t-79.5 -156.5q0 -96 85 -154.5t237 -58.5q146 0 238 65.5t92 162.5h110l2 -6q5 -156 -127.5 -239t-314.5 -83q-197 0 -320 84t-123 231z" unicode="ε" glyph-name="epsilon" horiz-adv-x="1113"/>
<glyph d="M925 1456v-73l-396 -509q-125 -155 -177.5 -272t-52.5 -239q0 -117 72 -189.5t213 -72.5h70q130 0 198.5 -55t68.5 -158q-1 -98 -75 -175.5t-165 -112.5l-45 87q62 25 116 77t54 120q0 56 -38 86t-122 30h-80q-189 0 -287.5 103.5t-98.5 256.5q0 116 59.5 259.5 t197.5 312.5l339 417l-3 5h-700v102h852z" unicode="ζ" glyph-name="zeta" horiz-adv-x="1020"/>
<glyph d="M264 1082l11 -183q52 96 139.5 149.5t206.5 53.5q177 0 268.5 -105t91.5 -338v-1074h-120v1073q0 186 -69.5 264t-197.5 78q-124 0 -201.5 -60.5t-114.5 -162.5v-777h-120v1082h106z" unicode="η" glyph-name="eta"/>
<glyph d="M1026 514q0 -249 -120.5 -392t-330.5 -143t-332 143.5t-122 391.5v428q0 247 121 391t331 144t331.5 -144t121.5 -391v-428zM240 775h666v186q0 191 -86.5 302.5t-246.5 111.5t-246.5 -112t-86.5 -302v-186zM906 673h-666v-177q0 -189 87.5 -302.5t247.5 -113.5 q159 0 245 113t86 303v177z" unicode="θ" glyph-name="theta" horiz-adv-x="1174"/>
<glyph d="M302 1081v-807q0 -106 38 -148.5t107 -42.5q26 0 49 4t51 13l25 -89q-34 -18 -69.5 -25t-77.5 -7q-123 0 -183 70.5t-60 229.5v802h120z" unicode="ι" glyph-name="iota" horiz-adv-x="614"/>
<glyph d="M420 496h-137v-496h-121v1082h121v-480h134l443 480h139l2 -5l-476 -520l526 -551l-3 -6h-144z" unicode="κ" glyph-name="kappa" horiz-adv-x="1111"/>
<glyph d="M187 0h-133l413 1053l-61 161q-32 95 -74.5 148.5t-111.5 53.5q-10 0 -31 -2t-37 -4l-5 95q14 4 42 8.5t48 4.5q119 0 181.5 -77t100.5 -187l361 -965q30 -89 68.5 -141.5t89.5 -52.5q13 0 28.5 1.5t29.5 4.5l4 -101q-11 -4 -33 -7.5t-36 -3.5q-102 0 -161.5 70.5 t-104.5 192.5l-241 647h-6l-34 -115z" unicode="λ" glyph-name="lambda"/>
<glyph d="M281 1082v-633q0 -207 71 -288t192 -81q137 0 212 59.5t103 170.5v772h120v-1082h-103l-11 155q-48 -85 -126 -130.5t-187 -45.5q-88 0 -157 30t-114 96v-521h-119v1498h119z" unicode="μ" glyph-name="uni03BC"/>
<glyph d="M466 271l35 -127h6l38 127l294 811h124l-411 -1082h-96l-412 1082h124z" unicode="ν" glyph-name="nu" horiz-adv-x="1002"/>
<glyph d="M909 1456v-102h-253q-167 -5 -250.5 -75t-83.5 -180t85.5 -170t269.5 -60h131v-103h-131q-201 0 -319.5 -88.5t-118.5 -264.5q0 -146 112.5 -233.5t302.5 -87.5h51q142 0 215.5 -58t73.5 -166q-1 -95 -75 -169.5t-165 -107.5l-45 88q62 23 116.5 71.5t54.5 113.5 q0 62 -41 95t-130 33h-55q-233 0 -384 113.5t-151 311.5q0 153 86 256t242 145q-117 37 -181.5 110.5t-64.5 166.5q0 86 38 151.5t111 107.5h-251v102h810z" unicode="ξ" glyph-name="xi" horiz-adv-x="1046"/>
<glyph d="M91 557q0 239 131 392t347 153q217 0 348 -153t131 -392v-33q0 -240 -130.5 -392.5t-346.5 -152.5q-218 0 -349 152.5t-131 392.5v33zM211 524q0 -188 95 -316t265 -128q167 0 262.5 128t95.5 316v33q0 185 -96 314t-264 129t-263 -129t-95 -314v-33z" unicode="ο" glyph-name="omicron"/>
<glyph d="M1114 979h-211v-705q0 -106 38 -148.5t107 -42.5q26 0 49 4t51 13l25 -89q-34 -18 -69.5 -25t-77.5 -7q-123 0 -183 70.5t-60 229.5v700h-422v-979h-120v979h-160v103h1033v-103z" unicode="π" glyph-name="pi" horiz-adv-x="1186"/>
<glyph d="M1027 511q0 -243 -109 -387.5t-302 -144.5q-112 0 -197 40t-141 115v-550h-120v1015h1l-1 9q0 234 122.5 364t311.5 130q207 0 321 -154.5t114 -415.5v-21zM907 532q0 207 -79 337.5t-236 130.5q-158 0 -236 -122t-78 -282v-327q42 -88 119 -138.5t192 -50.5 q157 0 237.5 117.5t80.5 313.5v21z" unicode="ρ" glyph-name="rho"/>
<glyph d="M573 1102q176 0 290 -101.5t110 -279.5l-2 -6h-107q0 132 -81 208.5t-210 76.5q-166 0 -254 -127t-88 -311v-42q0 -178 98 -295t287 -136q151 -17 221.5 -68t70.5 -155q-1 -95 -75.5 -169t-165.5 -108l-45 87q63 24 117 72.5t54 112.5q0 59 -44.5 88.5t-145.5 39.5 q-237 24 -364.5 164t-127.5 367v42q0 233 124.5 386.5t337.5 153.5z" unicode="ς" glyph-name="sigma1" horiz-adv-x="1095"/>
<glyph d="M1131 979h-313q109 -69 169.5 -182.5t60.5 -257.5v-33q0 -226 -131.5 -376.5t-345.5 -150.5q-218 0 -349 152.5t-131 392.5v33q0 229 130.5 376.5t346.5 148.5h563v-103zM211 524q0 -188 95 -316t265 -128q167 0 262.5 128t95.5 316v33q0 176 -96 299t-264 123h-1 q-168 -1 -262.5 -124t-94.5 -298v-33z" unicode="σ" glyph-name="sigma"/>
<glyph d="M969 980h-393v-980h-120v980h-379v102h892v-102z" unicode="τ" glyph-name="tau" horiz-adv-x="1047"/>
<glyph d="M275 1082v-604q0 -205 81 -301.5t220 -96.5q166 0 241 129t75 320q-2 144 -33 280.5t-84 272.5h130q49 -125 77.5 -252.5t28.5 -298.5q0 -248 -104.5 -400t-325.5 -152q-202 0 -314 122.5t-112 378.5v602h120z" unicode="υ" glyph-name="upsilon"/>
<glyph d="M756 1082q230 0 384 -158t154 -399q0 -221 -136.5 -374t-401.5 -170v-459h-120v459q-268 18 -395.5 173.5t-127.5 399.5q0 163 37.5 285t102.5 243h130q-70 -130 -110 -261.5t-40 -267.5q0 -187 94 -318.5t303 -144.5l6 2v990h120zM1175 524q-2 185 -116.5 319 t-296.5 130l-6 -2v-881l6 -2q202 11 307.5 138t105.5 298z" unicode="φ" glyph-name="phi" horiz-adv-x="1404"/>
<glyph d="M158 1093q110 0 171 -71.5t112 -182.5l144 -333h6l301 576h125l-371 -715l215 -494q50 -106 79.5 -150t78.5 -44q13 0 28 2l30 4l4 -100q-11 -4 -32.5 -8t-37.5 -4q-92 0 -146.5 60t-116.5 204l-170 388h-6l-332 -639h-128l405 777l-190 434q-46 102 -82.5 148t-103.5 46 q-12 0 -34.5 -2t-33.5 -4l-5 96q15 4 42.5 8t47.5 4z" unicode="χ" glyph-name="chi"/>
<glyph d="M751 1081v-990l6 -2q217 12 315.5 151t98.5 338q-2 129 -39 254.5t-101 249.5h131q59 -115 93.5 -231.5t34.5 -271.5q0 -259 -131 -421t-408 -177v-424h-119v425q-243 18 -377 168t-134 443v489h120v-491q0 -243 103.5 -366.5t281.5 -134.5l6 2v989h119z" unicode="ψ" glyph-name="psi" horiz-adv-x="1400"/>
<glyph d="M408 1082q-72 -136 -113.5 -272.5t-43.5 -280.5q0 -193 71 -321t216 -128q128 0 204 96.5t76 301.5v292h121v-292q0 -205 75.5 -301.5t204.5 -96.5q144 0 215.5 128t71.5 321q-2 143 -43.5 279.5t-113.5 273.5h130q67 -125 106.5 -252.5t39.5 -298.5q0 -244 -101.5 -398 t-298.5 -154q-129 0 -218 64.5t-129 194.5q-41 -130 -129.5 -194.5t-216.5 -64.5q-198 0 -299 154t-101 398q0 171 39 299.5t107 251.5h130z" unicode="ω" glyph-name="omega" horiz-adv-x="1758"/>
<glyph d="M302 1081v-807q0 -106 38 -148.5t107 -42.5q26 0 49 4t51 13l25 -89q-34 -18 -69.5 -25t-77.5 -7q-123 0 -183 70.5t-60 229.5v802h120zM572 1299h-173v157h173v-157zM103 1299h-174v157h174v-157z" unicode="ϊ" glyph-name="iotadieresis" horiz-adv-x="614"/>
<glyph d="M275 1082v-604q0 -205 81 -301.5t220 -96.5q166 0 241 129t75 320q-2 144 -33 280.5t-84 272.5h130q49 -125 77.5 -252.5t28.5 -298.5q0 -248 -104.5 -400t-325.5 -152q-202 0 -314 122.5t-112 378.5v602h120zM896 1299h-173v157h173v-157zM427 1299h-174v157h174v-157z " unicode="ϋ" glyph-name="upsilondieresis"/>
<glyph d="M91 557q0 239 131 392t347 153q217 0 348 -153t131 -392v-33q0 -240 -130.5 -392.5t-346.5 -152.5q-218 0 -349 152.5t-131 392.5v33zM211 524q0 -188 95 -316t265 -128q167 0 262.5 128t95.5 316v33q0 185 -96 314t-264 129t-263 -129t-95 -314v-33zM579 1490h153 l-129 -224h-56z" unicode="ό" glyph-name="omicrontonos"/>
<glyph d="M275 1082v-604q0 -205 81 -301.5t220 -96.5q166 0 241 129t75 320q-2 144 -33 280.5t-84 272.5h130q49 -125 77.5 -252.5t28.5 -298.5q0 -248 -104.5 -400t-325.5 -152q-202 0 -314 122.5t-112 378.5v602h120zM567 1469h153l-129 -224h-56z" unicode="ύ" glyph-name="upsilontonos"/>
<glyph d="M408 1082q-72 -136 -113.5 -272.5t-43.5 -280.5q0 -193 71 -321t216 -128q128 0 204 96.5t76 301.5v292h121v-292q0 -205 75.5 -301.5t204.5 -96.5q144 0 215.5 128t71.5 321q-2 143 -43.5 279.5t-113.5 273.5h130q67 -125 106.5 -252.5t39.5 -298.5q0 -244 -101.5 -398 t-298.5 -154q-129 0 -218 64.5t-129 194.5q-41 -130 -129.5 -194.5t-216.5 -64.5q-198 0 -299 154t-101 398q0 171 39 299.5t107 251.5h130zM867 1469h153l-129 -224h-56z" unicode="ώ" glyph-name="omegatonos" horiz-adv-x="1758"/>
<glyph d="M541 1036v62q0 172 85.5 275.5t220.5 103.5q142 0 224 -101t82 -278v-549q0 -266 -142 -418t-378 -152q-225 0 -362.5 158t-137.5 412v703l120 2v-705q0 -212 102 -339t278 -127q190 0 295.5 121t105.5 345v36q-222 8 -357.5 133.5t-135.5 317.5v0zM1034 1098 q0 135 -47.5 204.5t-139.5 69.5q-86 0 -136 -69t-50 -205v-64q0 -144 98 -239t270 -100l5 2v401z" unicode="ϑ" glyph-name="uni03D1" horiz-adv-x="1259"/>
<glyph d="M780 1239q51 124 112 176t147 52q30 0 57 -7t49 -19l-23 -94q-10 5 -27 10t-37 5q-48 0 -87.5 -29t-76.5 -114l-281 -620v-599h-120v601l-284 618q-39 85 -78 114t-86 29q-21 0 -37 -5t-26 -10l-23 94q22 12 48.5 19t56.5 7q85 0 146 -52t113 -176l190 -426l36 -112h6 l36 112z" unicode="ϒ" glyph-name="uni03D2" horiz-adv-x="1098"/>
<glyph d="M1573 979h-166q41 -97 64.5 -205.5t23.5 -242.5q0 -243 -92 -397.5t-270 -154.5q-121 0 -204.5 63t-122.5 190q-40 -127 -122.5 -190t-202.5 -63q-179 0 -270.5 154.5t-91.5 397.5q0 133 23 241.5t65 206.5h-151v103h1517v-103zM1376 529q-2 116 -28.5 227.5t-72.5 222.5 h-937q-47 -111 -73.5 -223t-26.5 -227q0 -193 62 -321t187 -128q119 0 189 96.5t70 301.5v269h121v-269q0 -205 70 -301.5t191 -96.5q123 0 185.5 128t62.5 321z" unicode="ϖ" glyph-name="uni03D6" horiz-adv-x="1610"/>
<glyph d="M959 705h-653v-604h755v-101h-875v1456h870v-102h-750v-547h653v-102zM689 1603h-117l-241 261l2 5h154z" unicode="Ѐ" glyph-name="uni0400" horiz-adv-x="1129"/>
<glyph d="M959 705h-653v-604h755v-101h-875v1456h870v-102h-750v-547h653v-102zM945 1641h-173v157h173v-157zM476 1641h-174v157h174v-157z" unicode="Ё" glyph-name="uni0401" horiz-adv-x="1129"/>
<glyph d="M1196 1354h-496v-495h189q236 0 380.5 -116.5t144.5 -343.5q0 -133 -90.5 -266t-283.5 -167l-32 91q152 34 218.5 128t67.5 214q2 174 -110 264t-295 90h-189v-753h-119v1354h-513v102h1128v-102z" unicode="Ђ" glyph-name="uni0402" horiz-adv-x="1548"/>
<glyph d="M1055 1354h-756v-1354h-120v1456h876v-102zM747 1863h147l3 -6l-249 -260h-107z" unicode="Ѓ" glyph-name="uni0403" horiz-adv-x="1122"/>
<glyph d="M1206 456l2 -6q4 -214 -140 -342t-378 -128q-243 0 -392 175.5t-149 454.5v237q0 278 149 454.5t392 176.5q237 0 379.5 -125t138.5 -344l-2 -6h-112q0 176 -107.5 274.5t-296.5 98.5q-191 0 -306.5 -148t-115.5 -379v-61h565v-101h-565v-77q0 -234 115.5 -381.5 t306.5 -147.5q189 0 296.5 96t107.5 279h112z" unicode="Є" glyph-name="uni0404" horiz-adv-x="1353"/>
<glyph d="M1007 354q0 112 -89 185t-302 137q-233 64 -354.5 159.5t-121.5 259.5q0 167 136 274.5t347 107.5q222 0 357 -121.5t131 -308.5l-2 -6h-112q0 144 -104.5 239t-269.5 95q-170 0 -266.5 -80.5t-96.5 -197.5q0 -111 87.5 -182.5t308.5 -133.5q230 -67 351 -165t121 -260 q0 -170 -141.5 -273.5t-356.5 -103.5t-375 109.5t-155 319.5l2 6h111q0 -169 127 -251.5t290 -82.5q167 0 272 76.5t105 197.5z" unicode="Ѕ" glyph-name="uni0405" horiz-adv-x="1236"/>
<glyph d="M337 0h-120v1456h120v-1456z" unicode="І" glyph-name="uni0406" horiz-adv-x="554"/>
<glyph d="M337 0h-120v1456h120v-1456zM604 1641h-173v157h173v-157zM135 1641h-174v157h174v-157z" unicode="Ї" glyph-name="uni0407" horiz-adv-x="554"/>
<glyph d="M820 1456h120v-1034q0 -203 -118.5 -323t-306.5 -120q-200 0 -317 106t-112 310l2 6h112q0 -164 80.5 -242.5t234.5 -78.5q133 0 219 92.5t86 249.5v1034z" unicode="Ј" glyph-name="uni0408" horiz-adv-x="1122"/>
<glyph d="M1250 1456v-610h365q229 0 354.5 -117t125.5 -306t-126 -306t-354 -117h-485v1354h-562l-19 -557q-17 -437 -113 -617t-343 -180h-41v101h37q175 0 249 148t91 548l23 659h798zM1250 745v-644h365q180 0 270.5 93t90.5 231q0 133 -91 226.5t-270 93.5h-365z" unicode="Љ" glyph-name="uni0409" horiz-adv-x="2205"/>
<glyph d="M302 785h828v671h120v-632h365q230 0 355 -113t125 -297q0 -185 -126 -299.5t-354 -114.5h-485v684h-828v-684h-120v1456h120v-671zM1250 722v-616h365q180 0 270.5 88t90.5 222q0 129 -90.5 217.5t-270.5 88.5h-365z" unicode="Њ" glyph-name="uni040A" horiz-adv-x="2205"/>
<glyph d="M1212 1354h-496v-415h278q238 0 361 -112.5t123 -361.5v-465h-119v465q0 198 -90 285t-275 87h-278v-837h-119v1354h-513v102h1128v-102z" unicode="Ћ" glyph-name="uni040B" horiz-adv-x="1635"/>
<glyph d="M463 691h-157v-691h-120v1456h120v-664h156l572 664h136l2 -5l-604 -700l664 -746l-2 -5h-144zM740 1775h147l3 -6l-249 -260h-107z" unicode="Ќ" glyph-name="uni040C" horiz-adv-x="1261"/>
<glyph d="M1141 1456h119v-1456h-119v1245l-6 1l-828 -1246h-120v1456h120v-1243l6 -1zM801 1603h-117l-241 261l2 5h154z" unicode="Ѝ" glyph-name="uni040D" horiz-adv-x="1444"/>
<glyph d="M593 660l64 -147h6l440 943h141l-583 -1208q-57 -118 -138.5 -193.5t-227.5 -75.5q-57 0 -118.5 13t-90.5 32l19 95q33 -16 85.5 -27.5t96.5 -11.5q93 0 154 53t105 142l53 107l-546 1074h138zM927 1854l2 -6q4 -112 -73 -182t-210 -70t-210.5 70.5t-72.5 181.5l2 6h94 q0 -77 45 -124t142 -47q94 0 140.5 48t46.5 123h94z" unicode="Ў" glyph-name="uni040E" horiz-adv-x="1324"/>
<glyph d="M182 1456h120v-1355h828v1355h120v-1456h-469v-353h-119v353h-480v1456z" unicode="Џ" glyph-name="uni040F" horiz-adv-x="1433"/>
<glyph d="M948 406h-639l-147 -406h-124l535 1456h113l531 -1456h-124zM347 513h562l-276 772h-6z" unicode="А" glyph-name="uni0410" horiz-adv-x="1256"/>
<glyph d="M1055 1354h-756v-512h364q230 0 355.5 -115.5t125.5 -303.5q0 -189 -126.5 -306t-354.5 -117h-484v1456h876v-102zM299 740v-639h364q180 0 270 93t90 231q0 133 -90 224t-270 91h-364z" unicode="Б" glyph-name="uni0411" horiz-adv-x="1285"/>
<glyph d="M186 0v1456h425q227 0 354 -95.5t127 -287.5q0 -109 -61.5 -191t-165.5 -116q138 -17 225.5 -120t87.5 -241q0 -195 -126.5 -300t-338.5 -105h-527zM306 702v-601h407q161 0 253 79.5t92 222.5q0 131 -90.5 212.5t-242.5 86.5h-16h-403zM306 803h350q151 3 233.5 72.5 t82.5 201.5q0 138 -92 207.5t-269 69.5h-305v-551z" unicode="В" glyph-name="uni0412" horiz-adv-x="1263"/>
<glyph d="M1055 1354h-756v-1354h-120v1456h876v-102z" unicode="Г" glyph-name="uni0413" horiz-adv-x="1122"/>
<glyph d="M1272 101h156v-454h-120v353h-1135v-353h-119v454h66q139 0 225 213.5t111 617.5l38 524h778v-1355zM577 932q-18 -301 -74.5 -513t-155.5 -318h805v1253h-546z" unicode="Д" glyph-name="uni0414" horiz-adv-x="1494"/>
<glyph d="M959 705h-653v-604h755v-101h-875v1456h870v-102h-750v-547h653v-102z" unicode="Е" glyph-name="uni0415" horiz-adv-x="1129"/>
<glyph d="M965 695h-80v-695h-119v695h-86l-501 -695h-152l546 752l-508 704h144l464 -659h93v659h119v-659h89l465 659h143l-508 -703l546 -753h-151z" unicode="Ж" glyph-name="uni0416" horiz-adv-x="1648"/>
<glyph d="M669 794q214 0 316.5 74.5t102.5 208.5t-106.5 216t-317.5 82q-171 0 -286 -84t-115 -216h-111l-2 6q-6 176 144 286t370 110q252 0 397.5 -105t145.5 -299q0 -109 -74.5 -196.5t-208.5 -130.5q151 -39 228.5 -128t77.5 -223q0 -195 -157 -305.5t-409 -110.5 q-220 0 -380 108t-155 311l2 6h112q0 -140 116.5 -232t304.5 -92q210 0 328 84t118 227q0 155 -111 227.5t-330 72.5h-184v103h184z" unicode="З" glyph-name="uni0417" horiz-adv-x="1352"/>
<glyph d="M1141 1456h119v-1456h-119v1245l-6 1l-828 -1246h-120v1456h120v-1243l6 -1z" unicode="И" glyph-name="uni0418" horiz-adv-x="1444"/>
<glyph d="M1141 1456h119v-1456h-119v1245l-6 1l-828 -1246h-120v1456h120v-1243l6 -1zM1012 1854l2 -6q4 -112 -73 -182t-210 -70t-210.5 70.5t-72.5 181.5l2 6h94q0 -77 45 -124t142 -47q94 0 140.5 48t46.5 123h94z" unicode="Й" glyph-name="uni0419" horiz-adv-x="1444"/>
<glyph d="M463 691h-157v-691h-120v1456h120v-664h156l572 664h136l2 -5l-604 -700l664 -746l-2 -5h-144z" unicode="К" glyph-name="uni041A" horiz-adv-x="1261"/>
<glyph d="M1250 1456v-1456h-120v1354h-626l-19 -557q-14 -436 -99.5 -616.5t-303.5 -180.5h-41v101h37q149 0 211.5 148t75.5 548l23 659h862z" unicode="Л" glyph-name="uni041B" horiz-adv-x="1433"/>
<glyph d="M886 174h6l542 1282h146v-1456h-120v1223l-6 1l-522 -1224h-86l-534 1254l-6 -1v-1253h-120v1456h160z" unicode="М" glyph-name="uni041C" horiz-adv-x="1766"/>
<glyph d="M1253 0h-120v670h-827v-670h-120v1456h120v-684h827v684h120v-1456z" unicode="Н" glyph-name="uni041D" horiz-adv-x="1439"/>
<glyph d="M1254 609q0 -282 -154.5 -456t-414.5 -174q-256 0 -408.5 174t-152.5 456v237q0 281 152 456t408 175q260 0 415 -175t155 -456v-237zM1135 848q0 236 -119.5 380t-331.5 144q-208 0 -324 -144t-116 -380v-239q0 -238 116.5 -382t324.5 -144q213 0 331.5 143.5 t118.5 382.5v239z" unicode="О" glyph-name="uni041E" horiz-adv-x="1378"/>
<glyph d="M1253 0h-120v1354h-828v-1354h-120v1456h1068v-1456z" unicode="П" glyph-name="uni041F" horiz-adv-x="1438"/>
<glyph d="M306 605v-605h-120v1456h502q229 0 354.5 -117t125.5 -308q0 -194 -125.5 -310t-354.5 -116h-382zM306 707h382q180 0 270 91.5t90 230.5q0 140 -90 232.5t-270 92.5h-382v-647z" unicode="Р" glyph-name="uni0420" horiz-adv-x="1263"/>
<glyph d="M1189 455l2 -6q4 -214 -140 -342t-378 -128q-243 0 -392 175.5t-149 454.5v237q0 278 149 454.5t392 176.5q237 0 379.5 -125t138.5 -344l-2 -6h-112q0 176 -107.5 274.5t-296.5 98.5q-191 0 -306.5 -148t-115.5 -379v-239q0 -234 115.5 -381.5t306.5 -147.5 q189 0 296.5 96t107.5 279h112z" unicode="С" glyph-name="uni0421" horiz-adv-x="1313"/>
<glyph d="M1176 1354h-496v-1354h-119v1354h-513v102h1128v-102z" unicode="Т" glyph-name="uni0422" horiz-adv-x="1224"/>
<glyph d="M593 660l64 -147h6l440 943h141l-583 -1208q-57 -118 -138.5 -193.5t-227.5 -75.5q-57 0 -118.5 13t-90.5 32l19 95q33 -16 85.5 -27.5t96.5 -11.5q93 0 154 53t105 142l53 107l-546 1074h138z" unicode="У" glyph-name="uni0423" horiz-adv-x="1324"/>
<glyph d="M777 1227q244 -6 398 -149t154 -357q0 -217 -154 -361t-398 -149v-211h-120v211q-246 5 -398.5 148t-152.5 360q0 215 153 358.5t398 149.5v229h120v-229zM1210 721q0 176 -115.5 287t-311.5 112l-6 -3v-797l6 -3q196 1 311.5 113t115.5 291zM225 719q0 -179 114 -290 t312 -112l6 3v797l-6 3q-197 -2 -311.5 -113.5t-114.5 -287.5z" unicode="Ф" glyph-name="uni0424" horiz-adv-x="1433"/>
<glyph d="M628 834l411 622h145l-484 -718l500 -738h-143l-427 642l-426 -642h-145l500 738l-485 718h145z" unicode="Х" glyph-name="uni0425" horiz-adv-x="1256"/>
<glyph d="M179 1456h120v-1354h828v1354h120v-1335h115v-476h-120v355h-1063v1456z" unicode="Ц" glyph-name="uni0426" horiz-adv-x="1475"/>
<glyph d="M1175 1456v-1456h-120v664q-101 -29 -196 -43.5t-203 -14.5q-240 0 -361.5 105t-121.5 342v403h120v-403q0 -186 89 -265.5t274 -79.5q102 0 200.5 14.5t198.5 43.5v690h120z" unicode="Ч" glyph-name="uni0427" horiz-adv-x="1358"/>
<glyph d="M297 1456v-1355h668v1355h120v-1355h667v1355h119v-1456h-1694v1456h120z" unicode="Ш" glyph-name="uni0428" horiz-adv-x="2057"/>
<glyph d="M297 1456v-1355h668v1355h120v-1355h667v1355h119v-1337h108v-474h-120v355h-1682v1456h120z" unicode="Щ" glyph-name="uni0429" horiz-adv-x="2088"/>
<glyph d="M-16 1456h478v-614h364q230 0 355.5 -115.5t125.5 -303.5q0 -189 -126.5 -306t-354.5 -117h-484v1354h-358v102zM462 740v-639h364q180 0 270 93t90 231q0 133 -90 224t-270 91h-364z" unicode="Ъ" glyph-name="uni042A" horiz-adv-x="1527"/>
<glyph d="M299 842h364q230 0 355.5 -115.5t125.5 -303.5q0 -189 -126.5 -306t-354.5 -117h-484v1456h120v-614zM299 740v-639h364q180 0 270 93t90 231q0 133 -90 224t-270 91h-364zM1535 0h-120v1456h120v-1456z" unicode="Ы" glyph-name="uni042B" horiz-adv-x="1694"/>
<glyph d="M299 842h364q230 0 355.5 -115.5t125.5 -303.5q0 -189 -126.5 -306t-354.5 -117h-484v1456h120v-614zM299 740v-639h364q180 0 270 93t90 231q0 133 -90 224t-270 91h-364z" unicode="Ь" glyph-name="uni042C" horiz-adv-x="1254"/>
<glyph d="M168 1001l-2 6q-5 213 139 342t379 129q242 0 391.5 -176.5t149.5 -454.5v-237q0 -279 -149.5 -454.5t-391.5 -175.5q-238 0 -380.5 124t-137.5 344l2 6h112q0 -177 107 -275t297 -98t306 147t116 380v97h-579v102h579v40q0 233 -116 381t-306 148t-297 -96.5 t-107 -278.5h-112z" unicode="Э" glyph-name="uni042D" horiz-adv-x="1352"/>
<glyph d="M1734 609q0 -282 -154.5 -456t-414.5 -174q-256 0 -408.5 174t-152.5 456v55h-267v-664h-120v1456h120v-691h267v81q0 281 152 456t408 175q260 0 415 -175t155 -456v-237zM1615 848q0 236 -119.5 380t-331.5 144q-208 0 -324 -144t-116 -380v-239q0 -238 116.5 -382 t324.5 -144q213 0 331.5 143.5t118.5 382.5v239z" unicode="Ю" glyph-name="uni042E" horiz-adv-x="1864"/>
<glyph d="M201 0h-130l347 671q-144 45 -219 138.5t-75 228.5q0 199 131 308.5t362 109.5h444v-1456h-120v635h-420zM941 1354h-324q-183 0 -278 -83t-95 -231q0 -135 89.5 -218.5t249.5 -83.5h358v616z" unicode="Я" glyph-name="uni042F" horiz-adv-x="1205"/>
<glyph d="M843 0q-11 57 -16.5 98t-5.5 84q-56 -88 -157 -145.5t-232 -57.5q-159 0 -246.5 84.5t-87.5 229.5t127 235t330 90h266v134q0 116 -73.5 182t-207.5 66q-123 0 -198.5 -60t-75.5 -151h-111l-2 6q-6 122 104.5 214.5t288.5 92.5t286 -91t108 -261v-532q0 -57 6.5 -111 t21.5 -107h-125zM445 85q138 0 239 65.5t137 168.5v207h-267q-146 0 -241 -69.5t-95 -167.5q0 -92 60.5 -148t166.5 -56z" unicode="а" glyph-name="uni0430" horiz-adv-x="1101"/>
<glyph d="M592 1102q209 0 335.5 -153t126.5 -392v-33q0 -240 -131 -392.5t-347 -152.5q-217 0 -348 152.5t-131 392.5v330q0 280 138.5 418.5t398.5 149.5q145 5 221.5 34.5t76.5 96.5h92l2 -6q6 -126 -91.5 -177.5t-289.5 -54.5q-211 -4 -327.5 -108.5t-102.5 -305.5l4 -5 q52 91 152 148.5t221 57.5zM574 1000q-168 0 -262.5 -129t-94.5 -314v-33q0 -188 95 -316t264 -128q168 0 263 128t95 316v33q0 185 -95.5 314t-264.5 129z" unicode="б" glyph-name="uni0431" horiz-adv-x="1127"/>
<glyph d="M164 0v1082h397q202 0 314 -72.5t112 -216.5q0 -83 -50 -146t-142 -91q106 -20 170.5 -91.5t64.5 -164.5q0 -147 -107.5 -223.5t-292.5 -76.5h-466zM284 498v-398h346q134 0 207.5 52t73.5 150q0 90 -74.5 143t-206.5 53h-346zM284 598h288q145 0 220.5 48.5t75.5 143.5 q0 97 -77.5 143.5t-229.5 46.5h-277v-382z" unicode="в" glyph-name="uni0432"/>
<glyph d="M826 979h-548v-979h-120v1082h668v-103z" unicode="г" glyph-name="uni0433" horiz-adv-x="858"/>
<glyph d="M154 101q79 0 124.5 151.5t59.5 438.5l23 391h649v-981h102v-453h-120v352h-817v-352h-114v453h93zM458 691q-12 -214 -40 -361t-82 -229h554v869h-416z" unicode="д" glyph-name="uni0434" horiz-adv-x="1200"/>
<glyph d="M569 -21q-210 0 -341 148.5t-131 381.5v55q0 234 132.5 386t328.5 152q197 0 304.5 -126.5t107.5 -340.5v-93h-753v-33q0 -185 93.5 -307t258.5 -122q99 0 182 32.5t138 87.5l51 -82q-57 -60 -149.5 -99.5t-221.5 -39.5zM558 1000q-138 0 -227 -99t-104 -251l3 -6h620v25 q0 144 -75.5 237.5t-216.5 93.5z" unicode="е" glyph-name="uni0435" horiz-adv-x="1054"/>
<glyph d="M895 500h-91v-500h-120v500h-89l-409 -500h-145l-3 5l456 555l-410 522h145l364 -475h91v475h120v-475h93l364 475h147l-412 -522l457 -555l-3 -5h-146z" unicode="ж" glyph-name="uni0436" horiz-adv-x="1492"/>
<glyph d="M561 604q153 0 226 50t73 142q0 88 -76.5 145t-226.5 57q-133 0 -222.5 -58.5t-89.5 -149.5h-110l-2 6q-6 134 117.5 218.5t306.5 84.5q196 0 310 -79.5t114 -225.5q0 -78 -54.5 -141.5t-151.5 -97.5q110 -30 167.5 -95.5t57.5 -162.5q0 -147 -123.5 -231t-319.5 -84 q-183 0 -315.5 83t-126.5 239l2 6h110q0 -97 92 -162.5t238 -65.5q151 0 236.5 58.5t85.5 154.5q0 106 -80 155.5t-238 49.5h-184v104h184z" unicode="з" glyph-name="uni0437" horiz-adv-x="1113"/>
<glyph d="M862 1082h120v-1082h-120v883l-6 2l-578 -885h-120v1082h120v-882l6 -1z" unicode="и" glyph-name="uni0438"/>
<glyph d="M862 1082h120v-1082h-120v883l-6 2l-578 -885h-120v1082h120v-882l6 -1zM848 1511l2 -6q4 -112 -73 -182t-210 -70t-210.5 70.5t-72.5 181.5l2 6h94q0 -77 45 -124t142 -47q94 0 140.5 48t46.5 123h94z" unicode="й" glyph-name="uni0439"/>
<glyph d="M420 496h-137v-496h-121v1082h121v-480h134l427 480h144l2 -5l-466 -520l515 -551l-3 -6h-149z" unicode="к" glyph-name="uni043A" horiz-adv-x="1080"/>
<glyph d="M982 1082v-1082h-120v979h-459v-375q0 -319 -74 -461.5t-250 -142.5h-44l2 107l38 1q110 0 159.5 110.5t49.5 385.5v478h698z" unicode="л" glyph-name="uni043B" horiz-adv-x="1127"/>
<glyph d="M751 168h6l427 914h148v-1082h-120v874l-6 1l-410 -875h-85l-417 893l-6 -1v-892h-120v1082h157z" unicode="м" glyph-name="uni043C" horiz-adv-x="1500"/>
<glyph d="M981 0h-120v496h-583v-496h-120v1082h120v-485h583v485h120v-1082z" unicode="н" glyph-name="uni043D"/>
<glyph d="M91 557q0 239 131 392t347 153q217 0 348 -153t131 -392v-33q0 -240 -130.5 -392.5t-346.5 -152.5q-218 0 -349 152.5t-131 392.5v33zM211 524q0 -188 95 -316t265 -128q167 0 262.5 128t95.5 316v33q0 185 -96 314t-264 129t-263 -129t-95 -314v-33z" unicode="о" glyph-name="uni043E"/>
<glyph d="M982 0h-120v979h-584v-979h-120v1082h824v-1082z" unicode="п" glyph-name="uni043F"/>
<glyph d="M1029 511q0 -243 -110 -387.5t-303 -144.5q-113 0 -198.5 43t-139.5 122v-560h-120v1498h92l22 -169q54 90 140 139.5t202 49.5q195 0 305 -155.5t110 -414.5v-21zM909 532q0 206 -82 336t-240 130q-119 0 -194.5 -57t-114.5 -148v-524q42 -88 119 -138.5t192 -50.5 q157 0 238.5 118t81.5 313v21z" unicode="р" glyph-name="uni0440"/>
<glyph d="M554 80q115 0 203.5 68t88.5 189h107l2 -6q4 -150 -118 -251t-283 -101q-216 0 -336.5 152t-120.5 389v42q0 236 120 388t336 152q174 0 290 -105t112 -276l-2 -6h-107q0 130 -85 207.5t-208 77.5q-170 0 -253 -125t-83 -313v-42q0 -191 83 -315.5t254 -124.5z" unicode="с" glyph-name="uni0441" horiz-adv-x="1054"/>
<glyph d="M965 980h-394v-980h-120v980h-379v102h893v-102z" unicode="т" glyph-name="uni0442" horiz-adv-x="1037"/>
<glyph d="M465 293l38 -129h6l327 918h134l-470 -1255q-42 -110 -109 -187t-196 -77q-21 0 -51 4.5t-44 9.5l14 100q12 -2 38.5 -4.5t38.5 -2.5q78 0 125 55.5t80 142.5l57 146l-418 1068h133z" unicode="у" glyph-name="uni0443" horiz-adv-x="1002"/>
<glyph d="M111 532q0 259 109.5 414.5t305.5 155.5q108 0 190 -42t138 -120v620h120v-626q56 81 139.5 124.5t195.5 43.5q195 0 305 -155.5t110 -414.5v-21q0 -243 -110 -387.5t-303 -144.5q-112 0 -196.5 40t-140.5 115v-550h-120v547q-57 -74 -139.5 -113t-190.5 -39 q-194 0 -303.5 144.5t-109.5 387.5v21zM1605 532q0 206 -83 337t-240 131q-119 0 -194 -57t-114 -148v-528q42 -87 118.5 -137t191.5 -50q157 0 239 118t82 313v21zM231 511q0 -196 78.5 -313.5t236.5 -117.5q111 0 187.5 49.5t120.5 136.5v535q-41 89 -115.5 144t-190.5 55 q-158 0 -237.5 -130.5t-79.5 -337.5v-21z" unicode="ф" glyph-name="uni0444" horiz-adv-x="1835"/>
<glyph d="M498 640l293 442h142l-367 -531l382 -551h-140l-308 461l-308 -461h-142l383 551l-367 531h141z" unicode="х" glyph-name="uni0445" horiz-adv-x="1002"/>
<glyph d="M158 1082h120v-981h584v981h120v-981h90v-452h-119v351h-795v1082z" unicode="ц" glyph-name="uni0446" horiz-adv-x="1164"/>
<glyph d="M967 0h-120v455q-69 -25 -141.5 -39.5t-140.5 -14.5q-210 0 -312 93.5t-102 313.5v274h120v-274q0 -170 69.5 -237t224.5 -67q71 1 145 15t137 37v526h120v-1082z" unicode="ч" glyph-name="uni0447" horiz-adv-x="1126"/>
<glyph d="M278 1082v-981h482v981h120v-981h476v981h120v-1082h-1318v1082h120z" unicode="ш" glyph-name="uni0448" horiz-adv-x="1617"/>
<glyph d="M1556 -125h-56v9h56v-9zM278 1082v-981h482v981h120v-981h476v981h120v-1082h-1318v1082h120z" unicode="щ" glyph-name="uni0449" horiz-adv-x="1656"/>
<glyph d="M35 1082h451v-433h309q187 0 291.5 -90t104.5 -233q0 -144 -104.5 -235t-291.5 -91h-429v980h-331v102zM486 547v-446h309q139 0 207.5 63.5t68.5 159.5q0 92 -69 157.5t-207 65.5h-309z" unicode="ъ" glyph-name="uni044A" horiz-adv-x="1296"/>
<glyph d="M308 649h309q187 0 291.5 -90t104.5 -233q0 -144 -104.5 -235t-291.5 -91h-429v1082h120v-433zM308 547v-446h309q139 0 207.5 63.5t68.5 159.5q0 92 -69 157.5t-207 65.5h-309zM1370 0h-120v1082h120v-1082z" unicode="ы" glyph-name="uni044B" horiz-adv-x="1546"/>
<glyph d="M288 649h309q187 0 291.5 -90t104.5 -233q0 -144 -104.5 -235t-291.5 -91h-429v1082h120v-433zM288 547v-446h309q139 0 207.5 63.5t68.5 159.5q0 92 -69 157.5t-207 65.5h-309z" unicode="ь" glyph-name="uni044C" horiz-adv-x="1095"/>
<glyph d="M517 1000q-116 0 -203 -68t-87 -188h-108l-2 6q-5 149 116.5 250.5t283.5 101.5q212 0 337 -153t125 -387v-42q0 -235 -124.5 -388t-336.5 -153q-174 0 -290 104.5t-111 276.5l2 6h108q0 -132 83.5 -209t207.5 -77q160 0 246.5 118t89.5 293l-3 5h-482v101h482l2 5 q-5 170 -91.5 284t-244.5 114z" unicode="э" glyph-name="uni044D" horiz-adv-x="1095"/>
<glyph d="M288 589h310q9 226 139 369.5t338 143.5q217 0 348 -153t131 -392v-33q0 -240 -130.5 -392.5t-346.5 -152.5q-209 0 -339 141t-140 368h-310v-488h-120v1082h120v-493zM717 524q0 -188 95 -316t265 -128q167 0 262.5 128t95.5 316v33q0 185 -96 314t-264 129t-263 -129 t-95 -314v-33z" unicode="ю" glyph-name="uni044E" horiz-adv-x="1664"/>
<glyph d="M963 1082v-1082h-120v436h-336l-264 -436h-132l272 451q-112 29 -173 111t-61 197q0 142 102.5 232.5t285.5 90.5h426zM269 757q0 -92 59 -155.5t177 -63.5h338v442h-306q-134 0 -201 -64.5t-67 -158.5z" unicode="я" glyph-name="uni044F" horiz-adv-x="1129"/>
<glyph d="M569 -21q-210 0 -341 148.5t-131 381.5v55q0 234 132.5 386t328.5 152q197 0 304.5 -126.5t107.5 -340.5v-93h-753v-33q0 -185 93.5 -307t258.5 -122q99 0 182 32.5t138 87.5l51 -82q-57 -60 -149.5 -99.5t-221.5 -39.5zM558 1000q-138 0 -227 -99t-104 -251l3 -6h620v25 q0 144 -75.5 237.5t-216.5 93.5zM618 1282h-117l-241 261l2 5h154z" unicode="ѐ" glyph-name="uni0450" horiz-adv-x="1054"/>
<glyph d="M569 -21q-210 0 -341 148.5t-131 381.5v55q0 234 132.5 386t328.5 152q197 0 304.5 -126.5t107.5 -340.5v-93h-753v-33q0 -185 93.5 -307t258.5 -122q99 0 182 32.5t138 87.5l51 -82q-57 -60 -149.5 -99.5t-221.5 -39.5zM558 1000q-138 0 -227 -99t-104 -251l3 -6h620v25 q0 144 -75.5 237.5t-216.5 93.5zM874 1320h-173v157h173v-157zM405 1320h-174v157h174v-157z" unicode="ё" glyph-name="uni0451" horiz-adv-x="1054"/>
<glyph d="M539 1254h-261v-356q55 97 144.5 150.5t209.5 53.5q171 0 262.5 -106t91.5 -329v-756q0 -167 -80 -257.5t-224 -90.5q-33 0 -62.5 5t-60.5 14l14 98q15 -5 49.5 -10t59.5 -5q87 0 135.5 64.5t48.5 181.5v758q0 176 -69.5 252.5t-191.5 76.5q-126 0 -207.5 -61.5 t-119.5 -164.5v-772h-120v1254h-209v81h209v225h120v-225h261v-81z" unicode="ђ" glyph-name="uni0452" horiz-adv-x="1141"/>
<glyph d="M826 979h-548v-979h-120v1082h668v-103zM559 1520h147l3 -6l-249 -260h-107z" unicode="ѓ" glyph-name="uni0453" horiz-adv-x="858"/>
<glyph d="M554 80q115 0 203.5 68t88.5 189h107l2 -6q4 -150 -118 -251t-283 -101q-216 0 -336.5 152t-120.5 389v42q0 236 120 388t336 152q174 0 290 -105t112 -276l-2 -6h-107q0 130 -85 207.5t-208 77.5q-163 0 -246 -115t-86 -288l3 -5h497v-101h-497l-3 -5q3 -176 86 -291 t247 -115z" unicode="є" glyph-name="uni0454" horiz-adv-x="1095"/>
<glyph d="M806 277q0 76 -62.5 132.5t-225.5 92.5q-192 40 -285.5 109.5t-93.5 194.5q0 124 104.5 210t276.5 86q181 0 289 -91.5t103 -225.5l-2 -6h-111q0 89 -76.5 155t-202.5 66q-130 0 -196 -57t-66 -133q0 -74 56.5 -122.5t225.5 -85.5q190 -42 287.5 -117t97.5 -202 q0 -135 -109.5 -219.5t-289.5 -84.5q-197 0 -309.5 94t-106.5 224l2 6h110q7 -117 95.5 -170t208.5 -53q130 0 205 58t75 139z" unicode="ѕ" glyph-name="uni0455" horiz-adv-x="1043"/>
<glyph d="M292 0h-119v1082h119v-1082zM292 1392h-119v168h119v-168z" unicode="і" glyph-name="uni0456" horiz-adv-x="465"/>
<glyph d="M288 0h-120v1082h120v-1082zM555 1299h-173v157h173v-157zM86 1299h-174v157h174v-157z" unicode="ї" glyph-name="uni0457" horiz-adv-x="456"/>
<glyph d="M299 1082v-1171q0 -167 -80 -257.5t-222 -90.5q-30 0 -56.5 5t-55.5 14l13 101q16 -5 44 -10t49 -5q89 0 139 61.5t50 181.5v1171h119zM293 1396h-119v164h119v-164z" unicode="ј" glyph-name="uni0458" horiz-adv-x="484"/>
<glyph d="M982 1082v-433h310q186 0 290.5 -90t104.5 -233q0 -144 -104.5 -235t-290.5 -91h-430v979h-442v-375q0 -318 -75.5 -461t-253.5 -143h-43l2 103h37q111 0 162.5 113t51.5 388v478h681zM982 548v-448h310q138 0 206.5 66t68.5 162q0 92 -68.5 156t-206.5 64h-310z" unicode="љ" glyph-name="uni0459" horiz-adv-x="1772"/>
<glyph d="M278 652h583v430h120v-433h310q187 0 291.5 -90t104.5 -233q0 -144 -104.5 -235t-291.5 -91h-430v551h-583v-551h-120v1082h120v-430zM981 548v-448h310q139 0 207.5 66t68.5 162q0 92 -68.5 156t-207.5 64h-310z" unicode="њ" glyph-name="uni045A" horiz-adv-x="1772"/>
<glyph d="M610 1249h-332v-351q55 97 144.5 150.5t209.5 53.5q171 0 262.5 -106t91.5 -329v-667h-120v669q0 176 -69.5 252.5t-191.5 76.5q-126 0 -207.5 -61.5t-119.5 -164.5v-772h-120v1249h-160v102h160v209h120v-209h332v-102z" unicode="ћ" glyph-name="uni045B" horiz-adv-x="1141"/>
<glyph d="M420 496h-137v-496h-121v1082h121v-480h134l427 480h144l2 -5l-466 -520l515 -551l-3 -6h-149zM676 1519h147l3 -6l-249 -260h-107z" unicode="ќ" glyph-name="uni045C" horiz-adv-x="1080"/>
<glyph d="M862 1082h120v-1082h-120v883l-6 2l-578 -885h-120v1082h120v-882l6 -1zM637 1260h-117l-241 261l2 5h154z" unicode="ѝ" glyph-name="uni045D"/>
<glyph d="M465 293l38 -129h6l327 918h134l-470 -1255q-42 -110 -109 -187t-196 -77q-21 0 -51 4.5t-44 9.5l14 100q12 -2 38.5 -4.5t38.5 -2.5q78 0 125 55.5t80 142.5l57 146l-418 1068h133zM795 1511l2 -6q4 -112 -73 -182t-210 -70t-210.5 70.5t-72.5 181.5l2 6h94 q0 -77 45 -124t142 -47q94 0 140.5 48t46.5 123h94z" unicode="ў" glyph-name="uni045E" horiz-adv-x="1002"/>
<glyph d="M278 1082v-981h584v981h120v-1082h-349v-353h-119v353h-356v1082h120z" unicode="џ" glyph-name="uni045F"/>
<glyph d="M1085 1426q59 24 129.5 37.5t151.5 13.5q209 0 342 -170t133 -440v-267q0 -276 -137.5 -448.5t-352.5 -172.5q-125 0 -219 35t-155 89q-61 -54 -154.5 -89t-218.5 -35q-216 0 -353.5 173t-137.5 448v267q0 270 133 440t343 170q79 0 150 -13.5t131 -37.5l-35 -101 q-48 23 -110.5 36.5t-135.5 13.5q-161 0 -258.5 -142t-97.5 -364v-269q0 -229 102.5 -374.5t268.5 -145.5q123 0 201.5 38.5t111.5 90.5v397h-256v102h632v-102h-256v-395q30 -52 109 -91.5t205 -39.5q164 0 267.5 146t103.5 374v269q0 222 -98.5 364t-257.5 142 q-74 0 -136.5 -13.5t-109.5 -36.5z" unicode="Ѡ" glyph-name="uni0460" horiz-adv-x="1941"/>
<glyph d="M466 271l35 -127h6l38 127l152 403l-134 408h123l244 -811l42 -149h6l28 69q94 169 144.5 401t62.5 490h119q-13 -298 -92 -571t-224 -511h-96l-168 509h-6l-194 -509h-96l-412 1082h124z" unicode="ѡ" glyph-name="uni0461" horiz-adv-x="1386"/>
<glyph d="M609 1127h-310v-285h364q230 0 355.5 -115.5t125.5 -303.5q0 -189 -126.5 -306t-354.5 -117h-484v1127h-182v102h182v227h120v-227h310v-102zM299 740v-639h364q180 0 270 93t90 231q0 133 -90 224t-270 91h-364z" unicode="Ѣ" glyph-name="uni0462" horiz-adv-x="1254"/>
<glyph d="M613 1102h-325v-453h309q187 0 291.5 -90t104.5 -233q0 -144 -104.5 -235t-291.5 -91h-429v1102h-197v102h197v358h120v-358h325v-102zM288 547v-446h309q139 0 207.5 63.5t68.5 159.5q0 92 -69 157.5t-207 65.5h-309z" unicode="ѣ" glyph-name="uni0463" horiz-adv-x="1095"/>
<glyph d="M1202 671h-484v-61q0 -234 115.5 -381.5t306.5 -147.5q189 0 296.5 96t107.5 279h112l2 -6q4 -214 -140 -342t-378 -128q-243 0 -392 175.5t-149 454.5v61h-261v-671h-120v1456h120v-684h261v75q0 278 149 454.5t392 176.5q237 0 379.5 -125t138.5 -344l-2 -6h-112 q0 176 -107.5 274.5t-296.5 98.5q-191 0 -306.5 -148t-115.5 -379v-77h484v-101z" unicode="Ѥ" glyph-name="uni0464" horiz-adv-x="1830"/>
<glyph d="M989 499h-339l-3 -5q0 -179 83 -296.5t250 -117.5q115 0 203.5 68t88.5 189h107l2 -6q4 -150 -118 -251t-283 -101q-211 0 -331 145t-126 375h-237v-499h-120v1082h120v-481h238q10 221 129.5 361t325.5 140q174 0 290 -105t112 -276l-2 -6h-107q0 130 -85 207.5 t-208 77.5q-160 0 -243 -112.5t-87 -281.5l2 -5h338v-102z" unicode="ѥ" glyph-name="uni0465" horiz-adv-x="1523"/>
<glyph d="M923 475h-242v-475h-119v475h-228l-172 -475h-124l535 1456h113l531 -1456h-124zM372 581h513l-252 704h-6z" unicode="Ѧ" glyph-name="uni0466" horiz-adv-x="1229"/>
<glyph d="M764 347h-171v-347h-120v347h-178l-146 -347h-124l452 1082h105l453 -1082h-124zM338 449h382l-152 360l-36 120h-6l-37 -120z" unicode="ѧ" glyph-name="uni0467" horiz-adv-x="1080"/>
<glyph d="M356 581h424l322 875h113l531 -1456h-124l-170 475h-242v-475h-119v475h-228l-172 -475h-124l174 475h-385v-475h-120v1456h120v-875zM901 581h513l-252 704h-6z" unicode="Ѩ" glyph-name="uni0468" horiz-adv-x="1798"/>
<glyph d="M321 449h338l265 633h105l453 -1082h-124l-147 347h-171v-347h-120v347h-178l-146 -347h-124l145 347h-296v-347h-120v1082h120v-633zM785 449h382l-152 360l-36 120h-6l-37 -120z" unicode="ѩ" glyph-name="uni0469" horiz-adv-x="1542"/>
<glyph d="M158 0v380q0 210 113.5 305t330.5 95h101l-432 676h1132l-433 -676h96q217 0 330.5 -94.5t113.5 -305.5v-380h-120v380q0 165 -77 231.5t-247 66.5h-161l-10 -16v-662h-120v667l-7 11h-166q-170 0 -246.5 -67t-76.5 -231v-380h-121zM827 780h19l355 574h-728z" unicode="Ѫ" glyph-name="uni046A" horiz-adv-x="1669"/>
<glyph d="M1099 1082h90l-326 -488q207 -1 316 -95.5t109 -303.5v-195h-120v195q0 164 -73 230.5t-233 66.5h-67l-10 -16v-476h-119v482l-7 10h-74q-162 0 -234 -66.5t-72 -230.5v-195h-121v195q0 210 109 304.5t318 94.5h6l-326 488h108v1h726v-1zM717 594h20l250 386h-519z" unicode="ѫ" glyph-name="uni046B" horiz-adv-x="1447"/>
<glyph d="M1197 677h-902v102h902v-102zM337 0h-120v1456h120v-1456zM725 0v380q0 210 113.5 305t330.5 95h101l-432 676h1132l-433 -676h96q217 0 330.5 -94.5t113.5 -305.5v-380h-120v380q0 165 -77 231.5t-247 66.5h-161l-10 -16v-662h-120v667l-7 11h-166q-170 0 -246.5 -67 t-76.5 -231v-380h-121zM1394 780h19l355 574h-728z" unicode="Ѭ" glyph-name="uni046C" horiz-adv-x="2214"/>
<glyph d="M1110 492h-889v102h889v-102zM288 0h-120v1082h120v-1082zM1605 1082h90l-326 -488q207 -1 316 -95.5t109 -303.5v-195h-120v195q0 164 -73 230.5t-233 66.5h-67l-10 -16v-476h-119v482l-7 10h-74q-162 0 -234 -66.5t-72 -230.5v-195h-121v195q0 210 109 304.5t318 94.5 h6l-326 488h108v1h726v-1zM1223 594h20l250 386h-519z" unicode="ѭ" glyph-name="uni046D" horiz-adv-x="1899"/>
<glyph d="M476 1456q216 0 345.5 -101t129.5 -282q0 -110 -70 -196.5t-195 -128.5q142 -38 215 -127.5t73 -224.5q0 -189 -143 -297t-361 -108h-67q-91 0 -131.5 -32.5t-40.5 -95.5q0 -65 54 -113.5t117 -71.5l-45 -87q-92 33 -166 107.5t-74 168.5q0 108 73 166.5t216 58.5h64 q175 0 279.5 81.5t104.5 218.5q0 154 -101.5 228t-298.5 74h-132v103h132q193 0 285 73t92 207q0 124 -89.5 200.5t-265.5 76.5h-321v102h321zM499 1716l166 169h115v-17l-233 -225h-97l-232 225v17h114z" unicode="Ѯ" glyph-name="uni046E" horiz-adv-x="1054"/>
<glyph d="M408 601q167 0 246.5 51.5t79.5 145.5q0 80 -76.5 130.5t-226.5 50.5h-292v103h292q191 0 307 -76.5t116 -211.5q0 -79 -55.5 -143t-154.5 -99q114 -30 173 -93t59 -155q0 -144 -128.5 -228.5t-322.5 -84.5h-45q-91 0 -131 -32.5t-40 -95.5q0 -65 54 -113.5t117 -71.5 l-46 -87q-91 33 -165.5 107.5t-74.5 168.5q0 108 73.5 166.5t216.5 58.5h41q151 0 241 56.5t90 151.5q0 102 -87.5 150t-260.5 48h-131v103h131zM427 1372l166 169h115v-17l-233 -225h-97l-232 225v17h114z" unicode="ѯ" glyph-name="uni046F" horiz-adv-x="992"/>
<glyph d="M762 459l6 -2q179 9 290 127t111 312v560h120v-560q0 -246 -145.5 -390t-381.5 -158v-348h-121v349q-233 15 -375 159t-142 388v560h120v-560q0 -193 108 -310.5t283 -128.5l6 2v997h121v-997z" unicode="Ѱ" glyph-name="uni0470" horiz-adv-x="1422"/>
<glyph d="M751 1081v-990l6 -2q217 12 315.5 151t98.5 338q-2 129 -39 254.5t-101 249.5h131q59 -115 93.5 -231.5t34.5 -271.5q0 -259 -131 -421t-408 -177v-424h-119v425q-243 18 -377 168t-134 443v489h120v-491q0 -243 103.5 -366.5t281.5 -134.5l6 2v989h119z" unicode="ѱ" glyph-name="uni0471" horiz-adv-x="1400"/>
<glyph d="M1254 609q0 -282 -154.5 -456t-414.5 -174q-256 0 -408.5 174t-152.5 456v237q0 281 152 456t408 175q260 0 415 -175t155 -456v-237zM936 666q68 0 122 31.5t77 81.5v69q0 236 -119.5 380t-331.5 144q-208 0 -324 -144t-116 -380v-104q37 39 89 61.5t114 22.5 q115 0 256.5 -81t232.5 -81zM1135 642q-38 -36 -88.5 -55.5t-110.5 -19.5q-127 0 -261.5 81t-227.5 81q-76 0 -129.5 -35.5t-73.5 -89.5q0 -237 116.5 -379t324.5 -142q213 0 331.5 143.5t118.5 382.5v33z" unicode="Ѳ" glyph-name="uni0472" horiz-adv-x="1379"/>
<glyph d="M91 557q0 239 131 392t347 153q217 0 348 -153t131 -392v-33q0 -240 -130.5 -392.5t-346.5 -152.5q-218 0 -349 152.5t-131 392.5v33zM752 510q60 0 111 30.5t63 77.5q-16 164 -110 273t-247 109q-166 0 -260 -124.5t-90 -298.5l3 -5q23 29 68.5 47t100.5 18 q85 0 189.5 -63.5t171.5 -63.5zM382 547q-60 0 -106.5 -25.5t-61.5 -66.5q17 -164 110 -269.5t247 -105.5q159 0 252.5 116t96.5 285l-4 5q-25 -31 -71.5 -48.5t-101.5 -17.5q-94 0 -193.5 63.5t-167.5 63.5z" unicode="ѳ" glyph-name="uni0473" horiz-adv-x="1158"/>
<glyph d="M552 255l29 -101h6l29 101l293 953q43 141 117.5 204.5t177.5 63.5q30 0 56.5 -7t49.5 -20l-23 -94q-10 5 -27 10t-37 5q-66 0 -115.5 -37t-84.5 -149l-383 -1184h-113l-498 1456h130z" unicode="Ѵ" glyph-name="uni0474" horiz-adv-x="1261"/>
<glyph d="M434 271l35 -127h6l38 127l186 593q42 126 104 181.5t149 55.5q31 0 58 -7t48 -20l-23 -93q-10 5 -26.5 10t-36.5 5q-49 0 -89.5 -32t-69.5 -120l-293 -844h-96l-380 1082h124z" unicode="ѵ" glyph-name="uni0475" horiz-adv-x="1009"/>
<glyph d="M552 255l29 -101h6l29 101l293 953q43 141 117.5 204.5t177.5 63.5q30 0 56.5 -7t49.5 -20l-23 -94q-10 5 -27 10t-37 5q-66 0 -115.5 -37t-84.5 -149l-383 -1184h-113l-498 1456h130zM515 1593l-2 -6h-113l-296 260l2 6h145zM760 1592l-3 -5h-102l-245 260l3 6h133z" unicode="Ѷ" glyph-name="uni0476" horiz-adv-x="1261"/>
<glyph d="M434 271l35 -127h6l38 127l186 593q42 126 104 181.5t149 55.5q31 0 58 -7t48 -20l-23 -93q-10 5 -26.5 10t-36.5 5q-49 0 -89.5 -32t-69.5 -120l-293 -844h-96l-380 1082h124zM416 1297l-2 -6h-113l-296 260l2 6h145zM661 1296l-3 -5h-102l-245 260l3 6h133z" unicode="ѷ" glyph-name="uni0477" horiz-adv-x="1009"/>
<glyph d="M1254 609q0 -282 -154.5 -456t-414.5 -174q-256 0 -408.5 174t-152.5 456v237q0 281 152 456t408 175q260 0 415 -175t155 -456v-237zM1135 848q0 236 -119.5 380t-331.5 144q-208 0 -324 -144t-116 -380v-239q0 -238 116.5 -382t324.5 -144q213 0 331.5 143.5 t118.5 382.5v239zM1843 293l38 -129h6l327 918h134l-470 -1255q-42 -110 -109 -187t-196 -77q-21 0 -51 4.5t-44 9.5l14 100q12 -2 38.5 -4.5t38.5 -2.5q78 0 125 55.5t80 142.5l57 146l-418 1068h133z" unicode="Ѹ" glyph-name="uni0478" horiz-adv-x="2380"/>
<glyph d="M91 557q0 239 131 392t347 153q217 0 348 -153t131 -392v-33q0 -240 -130.5 -392.5t-346.5 -152.5q-218 0 -349 152.5t-131 392.5v33zM211 524q0 -188 95 -316t265 -128q167 0 262.5 128t95.5 316v33q0 185 -96 314t-264 129t-263 -129t-95 -314v-33zM1605 293l38 -129h6 l327 918h134l-470 -1255q-42 -110 -109 -187t-196 -77q-21 0 -51 4.5t-44 9.5l14 100q12 -2 38.5 -4.5t38.5 -2.5q78 0 125 55.5t80 142.5l57 146l-418 1068h133z" unicode="ѹ" glyph-name="uni0479" horiz-adv-x="2142"/>
<glyph d="M749 1248h-119v346h119v-346zM749 -143h-119v351h119v-351zM1254 609q0 -282 -154.5 -456t-414.5 -174q-256 0 -408.5 174t-152.5 456v237q0 281 152 456t408 175q260 0 415 -175t155 -456v-237zM1135 848q0 236 -119.5 380t-331.5 144q-208 0 -324 -144t-116 -380v-239 q0 -238 116.5 -382t324.5 -144q213 0 331.5 143.5t118.5 382.5v239z" unicode="Ѻ" glyph-name="uni047A" horiz-adv-x="1379"/>
<glyph d="M631 875h-120v337h120v-337zM631 -133h-120v337h120v-337zM91 557q0 239 131 392t347 153q217 0 348 -153t131 -392v-33q0 -240 -130.5 -392.5t-346.5 -152.5q-218 0 -349 152.5t-131 392.5v33zM211 524q0 -188 95 -316t265 -128q167 0 262.5 128t95.5 316v33 q0 185 -96 314t-264 129t-263 -129t-95 -314v-33z" unicode="ѻ" glyph-name="uni047B" horiz-adv-x="1141"/>
<glyph d="M1118 1426q53 24 115.5 37.5t133.5 13.5q209 0 342 -170t133 -440v-267q0 -276 -138 -448.5t-353 -172.5q-126 0 -220 35t-154 89q-61 -54 -154.5 -89t-218.5 -35q-216 0 -353.5 173t-137.5 448v267q0 270 133 440t343 170q70 0 132 -13.5t116 -37.5l-35 -101 q-42 24 -95.5 37t-117.5 13q-161 0 -258.5 -142t-97.5 -364v-269q0 -229 102.5 -374.5t268.5 -145.5q124 0 203 39.5t111 91.5v36h119v-36q31 -52 110 -91.5t204 -39.5q164 0 267.5 146t103.5 374v269q0 222 -98 364t-257 142q-65 0 -119 -13t-95 -37zM1465 1827v-84h-30 q-128 0 -262.5 78.5t-193.5 78.5q-72 0 -110.5 -41t-38.5 -106v-18h-91v31q0 102 62.5 162.5t173.5 60.5q80 0 216 -81t246 -81h28zM959 1475l-56 46l61 121v139h139v-133z" unicode="Ѽ" glyph-name="uni047C" horiz-adv-x="1934"/>
<glyph d="M936 1056q45 20 97 31t112 11q173 0 284 -150.5t111 -387.5v-50q0 -235 -115.5 -383t-295.5 -148q-100 0 -176 35t-127 89q-51 -54 -127 -89t-175 -35q-180 0 -295.5 148t-115.5 383v50q0 237 111 387.5t285 150.5q58 0 110 -11t98 -31l-35 -99q-35 18 -78 28.5t-95 10.5 q-125 0 -200.5 -121.5t-75.5 -312.5v-52q0 -188 80.5 -309t210.5 -121q97 0 157 39.5t86 91.5v36h119v-36q25 -52 85 -91.5t158 -39.5q129 0 210 121t81 309v52q0 191 -76 312.5t-199 121.5q-53 0 -96.5 -10.5t-77.5 -28.5zM1325 1483v-85h-30q-128 0 -262.5 78.5 t-193.5 78.5q-72 0 -110.5 -41t-38.5 -106v-18h-91v31q0 102 62.5 162.5t173.5 60.5q80 0 216 -80.5t246 -80.5h28zM819 1130l-56 46l61 121v140h139v-133z" unicode="ѽ" glyph-name="uni047D" horiz-adv-x="1636"/>
<glyph d="M706 1697v-114l-110 1v194h755v-195h-111v114h-219v-114h-111v114h-204zM1120 1325q47 23 109.5 36.5t136.5 13.5q159 0 257.5 -142t98.5 -364v-269q0 -228 -103.5 -374t-267.5 -146q-126 0 -205 39.5t-109 91.5v395h256v102h-632v-102h256v-397q-33 -52 -111.5 -90.5 t-201.5 -38.5q-166 0 -268.5 145.5t-102.5 374.5v269q0 222 97.5 364t258.5 142q73 0 135.5 -13.5t110.5 -36.5l35 101q-60 24 -131 37.5t-150 13.5q-210 0 -343 -170t-133 -440v-267q0 -275 137.5 -448t353.5 -173q125 0 218.5 35t154.5 89q61 -54 155 -89t219 -35 q215 0 352.5 172.5t137.5 448.5v267q0 270 -133 440t-342 170q-81 0 -151.5 -13.5t-129.5 -37.5z" unicode="Ѿ" glyph-name="uni047E" horiz-adv-x="1941"/>
<glyph d="M427 1425v-131l-110 1l1 211h755v-212h-110v131h-221v-131h-111v131h-204zM168 1082h-124l412 -1082h96l194 509h6l168 -509h96q145 238 224 511t92 571h-119q-12 -258 -62.5 -490t-144.5 -401l-28 -69h-6l-42 149l-244 811h-123l134 -408l-152 -403l-38 -127h-6l-35 127 z" unicode="ѿ" glyph-name="uni047F" horiz-adv-x="1387"/>
<glyph d="M751 -366h-120v347q-226 16 -362.5 189t-136.5 439v237q0 278 149 454.5t392 176.5q237 0 379.5 -125t138.5 -344l-2 -6h-112q0 176 -107.5 274.5t-296.5 98.5q-191 0 -306.5 -148t-115.5 -379v-239q0 -234 115.5 -381.5t306.5 -147.5h78v-446z" unicode="Ҁ" glyph-name="uni0480" horiz-adv-x="1296"/>
<glyph d="M647 -366h-119v348q-194 17 -305.5 166.5t-111.5 371.5v42q0 233 124.5 386.5t337.5 153.5q173 0 288.5 -105t111.5 -276l-2 -6h-107q0 130 -84 207.5t-207 77.5q-166 0 -254 -127t-88 -311v-42q0 -188 87.5 -314t255.5 -126h73v-446z" unicode="ҁ" glyph-name="uni0481" horiz-adv-x="1071"/>
<glyph d="M577 432l289 -172l-54 -95l-291 170l-186 -335h-135l225 398l-289 171l53 94l293 -171l220 394l-290 171l55 96l291 -171l203 360h132l-241 -422l293 -171l-58 -94l-288 170z" unicode="҂" glyph-name="uni0482" horiz-adv-x="1249"/>
<glyph d="M246 1339v-123h-112v202h510v108h110v-187h-508z" unicode="҃" glyph-name="uni0483" horiz-adv-x="893"/>
<glyph d="M174 1395q110 0 245.5 81t215.5 81q110 0 173.5 -61t63.5 -163v-30h-91v18q0 65 -39 105.5t-111 40.5q-59 0 -193 -78.5t-262 -78.5h-30v85h28z" unicode="҄" glyph-name="uni0484" horiz-adv-x="973"/>
<glyph d="M156 1500v133h138v-140l62 -121l-57 -46z" unicode="҅" glyph-name="uni0485" horiz-adv-x="507"/>
<glyph d="M227 1326l-56 46l61 121v140h139v-133z" unicode="҆" glyph-name="uni0486" horiz-adv-x="528"/>
<glyph d="M812 1267l-2 6q-5 79 51 130.5t153 51.5q96 0 152.5 -51.5t52.5 -130.5l-2 -6h-104q0 43 -24.5 72t-74.5 29t-73.5 -29t-23.5 -72h-105zM1403 990l-2 6q-5 78 51.5 130t152.5 52t153 -51.5t53 -130.5l-2 -6h-105q0 44 -24 72.5t-75 28.5q-50 0 -73 -29t-23 -72h-106z M1590 487l-2 6q-5 78 51.5 130t152.5 52t152.5 -51.5t52.5 -130.5l-2 -6h-104q0 44 -24 72.5t-75 28.5q-50 0 -73.5 -29t-23.5 -72h-105zM1393 -32l-2 6q-5 78 51.5 130t152.5 52t152.5 -51.5t52.5 -130.5l-2 -6h-104q0 44 -24 72.5t-75 28.5q-50 0 -73.5 -29t-23.5 -72 h-105zM817 -316l-2 6q-5 80 51 131t153 51q96 0 152.5 -51t52.5 -131l-2 -6h-104q0 44 -24.5 72.5t-74.5 28.5t-73.5 -28.5t-23.5 -72.5h-105zM239 990l-2 6q-5 79 51.5 130.5t153.5 51.5q96 0 152.5 -51.5t52.5 -130.5l-2 -6h-104q0 43 -24.5 72t-74.5 29t-73.5 -29 t-23.5 -72h-106zM63 487l-2 6q-5 78 51.5 130t152.5 52t152.5 -51.5t52.5 -130.5l-2 -6h-104q0 44 -24 72.5t-75 28.5q-50 0 -73.5 -29t-23.5 -72h-105zM229 -32l-2 6q-5 78 51.5 130t152.5 52t153 -51.5t53 -130.5l-2 -6h-105q0 44 -24 72.5t-75 28.5q-50 0 -73 -29 t-23 -72h-106z" unicode="҈" glyph-name="uni0488" horiz-adv-x="2070"/>
<glyph d="M1101 -60l11 -14l-122 -339h-96l70 353h137zM906 1126l-12 14l122 338h96l-70 -352h-136zM1584 631l13 12l333 -124v-98l-346 71v139zM420 433l-13 -12l-333 124v98l346 -71v-139zM1344 1002l2 16l321 153l68 -68q-37 -23 -294 -200zM660 21l-2 -17l-320 -153l-69 69 l294 200zM520 860l-17 2l-148 326l65 69l198 -299zM1482 161l17 -2l149 -325l-66 -71l-197 299z" unicode="҉" glyph-name="uni0489" horiz-adv-x="2002"/>
<glyph d="M1141 1456h119v-1456h-119v1245l-6 1l-828 -1246h-120v1456h120v-1243l6 -1zM1012 1854l2 -6q4 -112 -73 -182t-210 -70t-210.5 70.5t-72.5 181.5l2 6h94q0 -77 45 -124t142 -47q94 0 140.5 48t46.5 123h94zM1363 -13l-106 -276h-82l69 279v167h119v-170z" unicode="Ҋ" glyph-name="uni048A" horiz-adv-x="1444"/>
<glyph d="M862 1082h120v-1082h-120v883l-6 2l-578 -885h-120v1082h120v-882l6 -1zM848 1511l2 -6q4 -112 -73 -182t-210 -70t-210.5 70.5t-72.5 181.5l2 6h94q0 -77 45 -124t142 -47q94 0 140.5 48t46.5 123h94zM1084 -13l-106 -276h-82l69 279v167h119v-170z" unicode="ҋ" glyph-name="uni048B"/>
<glyph d="M609 1127h-310v-285h364q230 0 355.5 -115.5t125.5 -303.5q0 -189 -126.5 -306t-354.5 -117h-484v1127h-182v102h182v227h120v-227h310v-102zM299 740v-639h364q180 0 270 93t90 231q0 133 -90 224t-270 91h-364z" unicode="Ҍ" glyph-name="uni048C" horiz-adv-x="1254"/>
<glyph d="M575 825h-287v-176h309q187 0 291.5 -90t104.5 -233q0 -144 -104.5 -235t-291.5 -91h-429v825h-205v102h205v155h120v-155h287v-102zM288 547v-446h309q139 0 207.5 63.5t68.5 159.5q0 92 -69 157.5t-207 65.5h-309z" unicode="ҍ" glyph-name="uni048D" horiz-adv-x="1095"/>
<glyph d="M1046 477l-89 -50l-257 433l88 50zM299 605v-605h-120v1456h502q229 0 354.5 -117t125.5 -308q0 -194 -125.5 -310t-354.5 -116h-382zM299 707h382q180 0 270 91.5t90 230.5q0 140 -90 232.5t-270 92.5h-382v-647z" unicode="Ҏ" glyph-name="uni048E" horiz-adv-x="1286"/>
<glyph d="M856 -151l-96 -35l-149 438l96 34zM1029 511q0 -243 -110 -387.5t-303 -144.5q-113 0 -198.5 43t-139.5 122v-560h-120v1498h92l22 -169q54 90 140 139.5t202 49.5q195 0 305 -155.5t110 -414.5v-21zM909 532q0 206 -82 336t-240 130q-119 0 -194.5 -57t-114.5 -148v-524 q42 -88 119 -138.5t192 -50.5q157 0 238.5 118t81.5 313v21z" unicode="ҏ" glyph-name="uni048F" horiz-adv-x="1156"/>
<glyph d="M1057 1353h-119v1h-639v-1354h-120v1456h759v354h119v-457z" unicode="Ґ" glyph-name="uni0490" horiz-adv-x="1123"/>
<glyph d="M829 979h-551v-979h-120v1082h552v345h119v-448z" unicode="ґ" glyph-name="uni0491" horiz-adv-x="897"/>
<glyph d="M647 707h-348v-707h-120v707h-144v102h144v647h876v-102h-756v-545h348v-102z" unicode="Ғ" glyph-name="uni0492" horiz-adv-x="1122"/>
<glyph d="M608 502h-330v-502h-120v502h-162v102h162v478h668v-103h-548v-375h330v-102z" unicode="ғ" glyph-name="uni0493" horiz-adv-x="858"/>
<glyph d="M1055 1354h-756v-1354h-120v1456h876v-102zM327 854h262q236 0 380.5 -116.5t144.5 -343.5q0 -133 -90.5 -265.5t-283.5 -167.5l-32 91q152 34 218.5 128t67.5 214q2 174 -110 264t-295 90h-262v106z" unicode="Ҕ" glyph-name="uni0494" horiz-adv-x="1174"/>
<glyph d="M151 652h7v430h668v-103h-548v-327h135q236 0 380.5 -116.5t144.5 -343.5q0 -133 -90.5 -265.5t-283.5 -167.5l-32 91q152 35 218.5 128.5t67.5 213.5q2 174 -110 264t-295 90h-135v-546h-120v546h-7v106z" unicode="ҕ" glyph-name="uni0495" horiz-adv-x="1040"/>
<glyph d="M965 695h-80v-695h-119v695h-86l-501 -695h-152l546 752l-508 704h144l464 -659h93v659h119v-659h89l465 659h143l-508 -703l546 -753h-151zM1659 -355h-120v479h120v-479z" unicode="Җ" glyph-name="uni0496" horiz-adv-x="1648"/>
<glyph d="M895 500h-91v-500h-120v500h-89l-409 -500h-145l-3 5l456 555l-410 522h145l364 -475h91v475h120v-475h93l364 475h147l-412 -522l457 -555l-3 -5h-146zM1472 -355h-120v479h120v-479z" unicode="җ" glyph-name="uni0497" horiz-adv-x="1492"/>
<glyph d="M669 794q214 0 316.5 74.5t102.5 208.5t-106.5 216t-317.5 82q-171 0 -286 -84t-115 -216h-111l-2 6q-6 176 144 286t370 110q252 0 397.5 -105t145.5 -299q0 -109 -74.5 -196.5t-208.5 -130.5q151 -39 228.5 -128t77.5 -223q0 -195 -157 -305.5t-409 -110.5 q-220 0 -380 108t-155 311l2 6h112q0 -140 116.5 -232t304.5 -92q210 0 328 84t118 227q0 155 -111 227.5t-330 72.5h-184v103h184zM693 33q77 -51 121.5 -119t44.5 -137q0 -80 -51.5 -124.5t-130.5 -44.5q-54 0 -92.5 12.5t-68.5 31.5l23 83q27 -14 53 -23t61 -9 q55 0 77 27t22 58q0 54 -33.5 100t-95.5 103z" unicode="Ҙ" glyph-name="uni0498" horiz-adv-x="1352"/>
<glyph d="M561 604q153 0 226 50t73 142q0 88 -76.5 145t-226.5 57q-133 0 -222.5 -58.5t-89.5 -149.5h-110l-2 6q-6 134 117.5 218.5t306.5 84.5q196 0 310 -79.5t114 -225.5q0 -78 -54.5 -141.5t-151.5 -97.5q110 -30 167.5 -95.5t57.5 -162.5q0 -147 -123.5 -231t-319.5 -84 q-183 0 -315.5 83t-126.5 239l2 6h110q0 -97 92 -162.5t238 -65.5q151 0 236.5 58.5t85.5 154.5q0 106 -80 155.5t-238 49.5h-184v104h184zM561 34q77 -51 121.5 -119t44.5 -137q0 -80 -51.5 -124.5t-130.5 -44.5q-54 0 -92.5 12.5t-68.5 31.5l23 83q27 -14 53 -23t61 -9 q55 0 77 27t22 58q0 54 -33.5 100t-95.5 103z" unicode="ҙ" glyph-name="uni0499" horiz-adv-x="1113"/>
<glyph d="M463 691h-157v-691h-120v1456h120v-664h156l572 664h136l2 -5l-604 -700l664 -746l-2 -5h-144zM1271 -355h-120v479h120v-479z" unicode="Қ" glyph-name="uni049A" horiz-adv-x="1261"/>
<glyph d="M420 496h-137v-496h-121v1082h121v-480h134l427 480h144l2 -5l-466 -520l515 -551l-3 -6h-149zM1064 -355h-120v479h120v-479z" unicode="қ" glyph-name="uni049B" horiz-adv-x="1080"/>
<glyph d="M1172 1456l-435 -704l495 -752h-151l-442 691h-92v-286h-102v286h-145v-691h-119v1456h119v-664h145v282h102v-282h99l382 664h144z" unicode="Ҝ" glyph-name="uni049C" horiz-adv-x="1256"/>
<glyph d="M1008 1082l-346 -522l396 -560h-158l-333 496h-55v-238h-102v238h-127v-496h-121v1082h121v-480h127v241h102v-241h56l289 480h151z" unicode="ҝ" glyph-name="uni049D" horiz-adv-x="1083"/>
<glyph d="M463 691h-157v-691h-120v1180h-219v102h219v174h120v-174h273v-102h-273v-388h156l572 664h136l2 -5l-604 -700l664 -746l-2 -5h-144z" unicode="Ҟ" glyph-name="uni049E" horiz-adv-x="1261"/>
<glyph d="M405 527h-126v-527h-120v1240h-168v102h168v218h120v-218h324v-102h-324v-610h114l415 452h140l2 -5l-444 -491l480 -581l-3 -5h-137z" unicode="ҟ" glyph-name="uni049F" horiz-adv-x="1006"/>
<glyph d="M902 691h-157v-691h-120v1354h-537v102h657v-664h156l572 664h136l2 -5l-604 -700l664 -746l-2 -5h-144z" unicode="Ҡ" glyph-name="uni04A0" horiz-adv-x="1710"/>
<glyph d="M800 496h-137v-496h-121v979h-477v103h598v-480h134l427 480h144l2 -5l-466 -520l515 -551l-3 -6h-149z" unicode="ҡ" glyph-name="uni04A1" horiz-adv-x="1449"/>
<glyph d="M1253 0h-120v670h-827v-670h-120v1456h120v-684h827v684h120v-1456zM1349 -355h-120v479h120v-479z" unicode="Ң" glyph-name="uni04A2" horiz-adv-x="1439"/>
<glyph d="M981 0h-120v496h-583v-496h-120v1082h120v-485h583v485h120v-1082zM1076 -355h-120v479h120v-479z" unicode="ң" glyph-name="uni04A3"/>
<glyph d="M305 772h827v684h847v-102h-727v-1354h-120v670h-827v-670h-120v1456h120v-684z" unicode="Ҥ" glyph-name="uni04A4" horiz-adv-x="2059"/>
<glyph d="M278 597h583v485h549v-103h-429v-979h-120v496h-583v-496h-120v1082h120v-485z" unicode="ҥ" glyph-name="uni04A5" horiz-adv-x="1483"/>
<glyph d="M1253 859h206q236 0 380.5 -116.5t144.5 -343.5q0 -132 -91 -265t-284 -169l-32 93q153 33 219 127t68 214q2 175 -110 264.5t-295 89.5h-206v-753h-120v1354h-828v-1354h-120v1456h1068v-597z" unicode="Ҧ" glyph-name="uni04A6" horiz-adv-x="2060"/>
<glyph d="M982 655h187q236 0 380.5 -116.5t144.5 -343.5q0 -133 -90.5 -265.5t-283.5 -167.5l-32 91q152 35 218.5 128.5t67.5 213.5q2 174 -110 264t-295 90h-187v-549h-120v979h-584v-979h-120v1082h824v-427z" unicode="ҧ" glyph-name="uni04A7" horiz-adv-x="1774"/>
<glyph d="M563 625v124q0 162 94 268t249 106t251.5 -105.5t96.5 -268.5v-135q0 -274 -160 -454.5t-418 -180.5q-245 0 -398.5 176t-153.5 442v262q0 265 152.5 440.5t394.5 171.5l5 -2l2 -97q-195 0 -314.5 -149t-119.5 -362v-264q0 -224 117.5 -369t314.5 -145q87 0 161 27 t132 79q-186 26 -296 145.5t-110 290.5v0zM1135 614v137q0 118 -62 192.5t-167 74.5q-104 0 -163.5 -76t-59.5 -191v-128q0 -141 97 -236t271 -100q41 67 62.5 150t21.5 177v0z" unicode="Ҩ" glyph-name="uni04A8" horiz-adv-x="1378"/>
<glyph d="M482 435v91q0 133 79 219.5t203 86.5t204 -93t80 -234v-33q0 -213 -134 -353t-341 -140q-214 0 -348 146t-134 368v54q0 239 133 396t343 153l6 -3v-96q-154 0 -258 -127.5t-104 -320.5v-56q0 -179 97.5 -294.5t264.5 -115.5q42 0 80.5 8t72.5 24q-113 28 -178.5 114 t-65.5 206v0zM929 472v36q0 91 -47 155t-118 64q-75 0 -118.5 -56t-43.5 -143v-95q0 -101 61.5 -163t166.5 -62v1l6 -1q43 40 68 110t25 154v0z" unicode="ҩ" glyph-name="uni04A9"/>
<glyph d="M1189 455l2 -6q4 -214 -140 -342t-378 -128q-243 0 -392 175.5t-149 454.5v237q0 278 149 454.5t392 176.5q237 0 379.5 -125t138.5 -344l-2 -6h-112q0 176 -107.5 274.5t-296.5 98.5q-191 0 -306.5 -148t-115.5 -379v-239q0 -234 115.5 -381.5t306.5 -147.5 q189 0 296.5 96t107.5 279h112zM688 33q77 -51 121.5 -119t44.5 -137q0 -80 -51.5 -124.5t-130.5 -44.5q-54 0 -92.5 12.5t-68.5 31.5l23 83q27 -14 53 -23t61 -9q55 0 77 27t22 58q0 54 -33.5 100t-95.5 103z" unicode="Ҫ" glyph-name="uni04AA" horiz-adv-x="1313"/>
<glyph d="M554 80q115 0 203.5 68t88.5 189h107l2 -6q4 -150 -118 -251t-283 -101q-216 0 -336.5 152t-120.5 389v42q0 236 120 388t336 152q174 0 290 -105t112 -276l-2 -6h-107q0 130 -85 207.5t-208 77.5q-170 0 -253 -125t-83 -313v-42q0 -191 83 -315.5t254 -124.5zM557 33 q77 -51 121.5 -119t44.5 -137q0 -80 -51.5 -124.5t-130.5 -44.5q-54 0 -92.5 12.5t-68.5 31.5l23 83q27 -14 53 -23t61 -9q55 0 77 27t22 58q0 54 -33.5 100t-95.5 103z" unicode="ҫ" glyph-name="uni04AB" horiz-adv-x="1054"/>
<glyph d="M1176 1354h-496v-1354h-119v1354h-513v102h1128v-102zM776 -355h-120v479h120v-479z" unicode="Ҭ" glyph-name="uni04AC" horiz-adv-x="1224"/>
<glyph d="M965 980h-394v-980h-120v980h-379v102h893v-102zM668 -355h-120v479h120v-479z" unicode="ҭ" glyph-name="uni04AD" horiz-adv-x="1037"/>
<glyph d="M625 647l451 809h139l-531 -924v-532h-119v537l-527 919h139z" unicode="Ү" glyph-name="uni04AE" horiz-adv-x="1256"/>
<glyph d="M839 1082h124l-399 -1051v-447h-120v447l-400 1051h124l298 -811l36 -127h6l37 127z" unicode="ү" glyph-name="uni04AF" horiz-adv-x="1002"/>
<glyph d="M625 647l451 809h139l-467 -811h174v-102h-232l-6 -11v-532h-119v537l-3 6h-252v102h193l-465 811h139z" unicode="Ұ" glyph-name="uni04B0" horiz-adv-x="1256"/>
<glyph d="M811 -3h-247v-413h-120v413h-245v102h219l-374 983h124l298 -811l36 -127h6l37 127l294 811h124l-374 -983h222v-102z" unicode="ұ" glyph-name="uni04B1" horiz-adv-x="1002"/>
<glyph d="M628 834l411 622h145l-484 -718l500 -738h-143l-427 642l-426 -642h-145l500 738l-485 718h145zM1215 -355h-120v479h120v-479z" unicode="Ҳ" glyph-name="uni04B2" horiz-adv-x="1256"/>
<glyph d="M498 640l293 442h142l-367 -531l382 -551h-140l-308 461l-308 -461h-142l383 551l-367 531h141zM986 -355h-120v479h120v-479z" unicode="ҳ" glyph-name="uni04B3" horiz-adv-x="1002"/>
<glyph d="M438 1353h-403v102h403v1h120v-1h426v-102h-426v-1251h828v1354h120v-1456h-1068v1353zM1661 -351h-120v479h120v-479z" unicode="Ҵ" glyph-name="uni04B4" horiz-adv-x="1778"/>
<glyph d="M315 982h-286v102h708v-102h-302v-881h584v981h120v-981h90v-452h-119v351h-795v982z" unicode="ҵ" glyph-name="uni04B5" horiz-adv-x="1361"/>
<glyph d="M1175 1456v-1456h-120v664q-101 -29 -196 -43.5t-203 -14.5q-240 0 -361.5 105t-121.5 342v403h120v-403q0 -186 89 -265.5t274 -79.5q102 0 200.5 14.5t198.5 43.5v690h120zM1270 -355h-120v479h120v-479z" unicode="Ҷ" glyph-name="uni04B6" horiz-adv-x="1358"/>
<glyph d="M967 0h-120v455q-69 -25 -141.5 -39.5t-140.5 -14.5q-210 0 -312 93.5t-102 313.5v274h120v-274q0 -170 69.5 -237t224.5 -67q71 1 145 15t137 37v526h120v-1082zM1062 -355h-120v479h120v-479z" unicode="ҷ" glyph-name="uni04B7" horiz-adv-x="1126"/>
<glyph d="M750 361h-102v691h102v-691zM1175 1456v-1456h-120v664q-101 -29 -196 -43.5t-203 -14.5q-240 0 -361.5 105t-121.5 342v403h120v-403q0 -186 89 -265.5t274 -79.5q102 0 200.5 14.5t198.5 43.5v690h120z" unicode="Ҹ" glyph-name="uni04B8" horiz-adv-x="1358"/>
<glyph d="M644 236h-103v561h103v-561zM967 0h-120v455q-69 -25 -141.5 -39.5t-140.5 -14.5q-210 0 -312 93.5t-102 313.5v274h120v-274q0 -170 69.5 -237t224.5 -67q71 1 145 15t137 37v526h120v-1082z" unicode="ҹ" glyph-name="uni04B9" horiz-adv-x="1126"/>
<glyph d="M191 0v1456h120v-664q100 28 195 43t204 15q239 0 361 -105.5t122 -341.5v-403h-120v403q0 185 -89.5 265t-273.5 80q-102 0 -200.5 -15t-198.5 -43v-690h-120z" unicode="Һ" glyph-name="uni04BA" horiz-adv-x="1358"/>
<glyph d="M169.059 1084h119.993v-454.973q68.9961 24.999 141.491 39.498q72.4961 14.499 140.491 14.499q209.987 0 311.981 -93.4941q101.993 -93.4941 101.993 -313.481v-273.982h-119.992v273.982q0 169.99 -69.4961 236.986q-69.4951 66.9961 -224.486 66.9961 q-70.9951 -1 -144.991 -15q-73.9951 -13.999 -136.991 -36.9971v-525.968h-119.993v1081.93z" unicode="һ" glyph-name="uni04BB" horiz-adv-x="1126"/>
<glyph d="M1003 -23q-310 0 -482 184t-172 486v99q-150 15 -229 103.5t-75 233.5l2 5h95q0 -106 52.5 -169.5t157.5 -77.5q23 281 189.5 457.5t404.5 176.5q272 0 425.5 -171t153.5 -465v-95h-1056v-97q0 -252 133 -410.5t401 -158.5q126 0 225 33t176 88l39 -89 q-70 -57 -174.5 -95t-265.5 -38zM946 1372q-202 0 -328.5 -150.5t-140.5 -379.5l2 -5h927v31q0 222 -117.5 363t-342.5 141z" unicode="Ҽ" glyph-name="uni04BC" horiz-adv-x="1728"/>
<glyph d="M680 -21q-210 0 -341 148.5t-131 381.5v52q-105 24 -160.5 100.5t-55.5 197.5h102q0 -77 30 -128t90 -73q26 198 153 321t302 123q197 0 304.5 -126.5t107.5 -340.5v-93h-753v-33q0 -185 93.5 -307t258.5 -122q99 0 182 32.5t138 87.5l51 -82q-57 -60 -149.5 -99.5 t-221.5 -39.5zM669 1000q-138 0 -227 -99t-104 -251l3 -6h620v25q0 144 -75.5 237.5t-216.5 93.5z" unicode="ҽ" glyph-name="uni04BD" horiz-adv-x="1208"/>
<glyph d="M1003 -23q-310 0 -482 184t-172 486v99q-150 15 -229 103.5t-75 233.5l2 5h95q0 -106 52.5 -169.5t157.5 -77.5q23 281 189.5 457.5t404.5 176.5q272 0 425.5 -171t153.5 -465v-95h-1056v-97q0 -252 133 -410.5t401 -158.5q126 0 225 33t176 88l39 -89 q-70 -57 -174.5 -95t-265.5 -38zM946 1372q-202 0 -328.5 -150.5t-140.5 -379.5l2 -5h927v31q0 222 -117.5 363t-342.5 141zM957 0q-72 -60 -110 -108t-38 -104q0 -31 19 -58t70 -27q32 0 56.5 9t48.5 23l24 -83q-30 -19 -66.5 -31.5t-85.5 -12.5q-76 0 -125 44.5t-49 124.5 q0 71 51 139t144 121z" unicode="Ҿ" glyph-name="uni04BE" horiz-adv-x="1728"/>
<glyph d="M680 -21q-210 0 -341 148.5t-131 381.5v52q-105 24 -160.5 100.5t-55.5 197.5h102q0 -77 30 -128t90 -73q26 198 153 321t302 123q197 0 304.5 -126.5t107.5 -340.5v-93h-753v-33q0 -185 93.5 -307t258.5 -122q99 0 182 32.5t138 87.5l51 -82q-57 -60 -149.5 -99.5 t-221.5 -39.5zM669 1000q-138 0 -227 -99t-104 -251l3 -6h620v25q0 144 -75.5 237.5t-216.5 93.5zM697 0q-72 -60 -110 -108t-38 -104q0 -31 19 -58t70 -27q32 0 56.5 9t48.5 23l24 -83q-30 -19 -66.5 -31.5t-85.5 -12.5q-76 0 -125 44.5t-49 124.5q0 71 51 139t144 121z " unicode="ҿ" glyph-name="uni04BF" horiz-adv-x="1208"/>
<glyph d="M337 0h-120v1456h120v-1456z" unicode="Ӏ" glyph-name="uni04C0" horiz-adv-x="554"/>
<glyph d="M965 695h-80v-695h-119v695h-86l-501 -695h-152l546 752l-508 704h144l464 -659h93v659h119v-659h89l465 659h143l-508 -703l546 -753h-151zM1125 1854l2 -6q4 -112 -73 -182t-210 -70t-210.5 70.5t-72.5 181.5l2 6h94q0 -77 45 -124t142 -47q94 0 140.5 48t46.5 123h94z " unicode="Ӂ" glyph-name="uni04C1" horiz-adv-x="1648"/>
<glyph d="M895 500h-91v-500h-120v500h-89l-409 -500h-145l-3 5l456 555l-410 522h145l364 -475h91v475h120v-475h93l364 475h147l-412 -522l457 -555l-3 -5h-146zM1017 1511l2 -6q4 -112 -73 -182t-210 -70t-210.5 70.5t-72.5 181.5l2 6h94q0 -77 45 -124t142 -47q94 0 140.5 48 t46.5 123h94z" unicode="ӂ" glyph-name="uni04C2" horiz-adv-x="1492"/>
<glyph d="M624 797l2 -5h19q238 0 381.5 -121t143.5 -368q0 -141 -103 -283.5t-322 -182.5l-31 93q178 38 256 140.5t80 232.5q2 194 -109 288.5t-296 94.5h-345v-686h-119v1456h119v-664h177l551 664h137l2 -5z" unicode="Ӄ" glyph-name="uni04C3" horiz-adv-x="1256"/>
<glyph d="M560 598q201 -19 319.5 -129.5t118.5 -313.5q0 -130 -91 -259t-283 -165l-33 93q152 34 219 124.5t69 206.5q2 173 -109 257t-297 84h-190v-496h-121v1082h121v-480h134l427 480h144l2 -5z" unicode="ӄ" glyph-name="uni04C4" horiz-adv-x="1080"/>
<glyph d="M1250 1456v-1456h-120v1354h-626l-19 -557q-14 -436 -99.5 -616.5t-303.5 -180.5h-41v101h37q149 0 211.5 148t75.5 548l23 659h862zM1353 -13l-106 -276h-82l69 279v167h119v-170z" unicode="Ӆ" glyph-name="uni04C5" horiz-adv-x="1433"/>
<glyph d="M982 1082v-1082h-120v979h-459v-375q0 -319 -74 -461.5t-250 -142.5h-44l2 107l38 1q110 0 159.5 110.5t49.5 385.5v478h698zM1084 -13l-106 -276h-82l69 279v167h119v-170z" unicode="ӆ" glyph-name="uni04C6" horiz-adv-x="1127"/>
<glyph d="M302 1456v-684h828v684h120v-1545q0 -167 -80.5 -257.5t-223.5 -90.5q-30 0 -56.5 5t-55.5 14l14 99q14 -5 45.5 -10.5t52.5 -5.5q87 0 135.5 64.5t48.5 181.5v759h-828v-670h-119v1456h119z" unicode="Ӈ" glyph-name="uni04C7" horiz-adv-x="1433"/>
<glyph d="M278 1082v-485h583v485h120v-1171q0 -167 -80.5 -257.5t-223.5 -90.5q-31 0 -57 5t-55 14l14 99q14 -5 45 -10.5t53 -5.5q87 0 135.5 64.5t48.5 181.5v585h-583v-496h-120v1082h120z" unicode="ӈ" glyph-name="uni04C8"/>
<glyph d="M1253 0h-120v670h-827v-670h-120v1456h120v-684h827v684h120v-1456zM1356 -13l-106 -276h-82l69 279v167h119v-170z" unicode="Ӊ" glyph-name="uni04C9" horiz-adv-x="1439"/>
<glyph d="M981 0h-120v496h-583v-496h-120v1082h120v-485h583v485h120v-1082zM1083 -13l-106 -276h-82l69 279v167h119v-170z" unicode="ӊ" glyph-name="uni04CA"/>
<glyph d="M1175 1456v-1456h-120v664q-101 -29 -196 -43.5t-203 -14.5q-240 0 -361.5 105t-121.5 342v403h120v-403q0 -186 89 -265.5t274 -79.5q102 0 200.5 14.5t198.5 43.5v690h120zM1078 -355h-120v479h120v-479z" unicode="Ӌ" glyph-name="uni04CB" horiz-adv-x="1358"/>
<glyph d="M967 0h-120v455q-69 -25 -141.5 -39.5t-140.5 -14.5q-210 0 -312 93.5t-102 313.5v274h120v-274q0 -170 69.5 -237t224.5 -67q71 1 145 15t137 37v526h120v-1082zM870 -355h-120v479h120v-479z" unicode="ӌ" glyph-name="uni04CC" horiz-adv-x="1126"/>
<glyph d="M886 174h6l542 1282h146v-1456h-120v1223l-6 1l-522 -1224h-86l-534 1254l-6 -1v-1253h-120v1456h160zM1683 -13l-106 -276h-82l69 279v167h119v-170z" unicode="Ӎ" glyph-name="uni04CD" horiz-adv-x="1766"/>
<glyph d="M751 168h6l427 914h148v-1082h-120v874l-6 1l-410 -875h-85l-417 893l-6 -1v-892h-120v1082h157zM1435 -13l-106 -276h-82l69 279v167h119v-170z" unicode="ӎ" glyph-name="uni04CE" horiz-adv-x="1500"/>
<glyph d="M337 0h-120v1456h120v-1456z" unicode="ӏ" glyph-name="uni04CF" horiz-adv-x="554"/>
<glyph d="M948 406h-639l-147 -406h-124l535 1456h113l531 -1456h-124zM347 513h562l-276 772h-6zM909 1854l2 -6q4 -112 -73 -182t-210 -70t-210.5 70.5t-72.5 181.5l2 6h94q0 -77 45 -124t142 -47q94 0 140.5 48t46.5 123h94z" unicode="Ӑ" glyph-name="uni04D0" horiz-adv-x="1256"/>
<glyph d="M843 0q-11 57 -16.5 98t-5.5 84q-56 -88 -157 -145.5t-232 -57.5q-159 0 -246.5 84.5t-87.5 229.5t127 235t330 90h266v134q0 116 -73.5 182t-207.5 66q-123 0 -198.5 -60t-75.5 -151h-111l-2 6q-6 122 104.5 214.5t288.5 92.5t286 -91t108 -261v-532q0 -57 6.5 -111 t21.5 -107h-125zM445 85q138 0 239 65.5t137 168.5v207h-267q-146 0 -241 -69.5t-95 -167.5q0 -92 60.5 -148t166.5 -56zM824 1533l2 -6q4 -112 -73 -182t-210 -70t-210.5 70.5t-72.5 181.5l2 6h94q0 -77 45 -124t142 -47q94 0 140.5 48t46.5 123h94z" unicode="ӑ" glyph-name="uni04D1" horiz-adv-x="1101"/>
<glyph d="M948 406h-639l-147 -406h-124l535 1456h113l531 -1456h-124zM347 513h562l-276 772h-6zM954 1641h-173v157h173v-157zM485 1641h-174v157h174v-157z" unicode="Ӓ" glyph-name="uni04D2" horiz-adv-x="1256"/>
<glyph d="M843 0q-11 57 -16.5 98t-5.5 84q-56 -88 -157 -145.5t-232 -57.5q-159 0 -246.5 84.5t-87.5 229.5t127 235t330 90h266v134q0 116 -73.5 182t-207.5 66q-123 0 -198.5 -60t-75.5 -151h-111l-2 6q-6 122 104.5 214.5t288.5 92.5t286 -91t108 -261v-532q0 -57 6.5 -111 t21.5 -107h-125zM445 85q138 0 239 65.5t137 168.5v207h-267q-146 0 -241 -69.5t-95 -167.5q0 -92 60.5 -148t166.5 -56zM869 1320h-173v157h173v-157zM400 1320h-174v157h174v-157z" unicode="ӓ" glyph-name="uni04D3" horiz-adv-x="1101"/>
<glyph d="M1839 0h-817l-17 389h-597l-229 -389h-146l881 1456h864v-102h-694l23 -545h589v-102h-585l26 -606h702v-101zM475 502h526l-35 839l-6 1l-15 -44z" unicode="Ӕ" glyph-name="uni04D4" horiz-adv-x="1900"/>
<glyph d="M1295 -21q-138 0 -241 55.5t-163 157.5q-49 -87 -159.5 -150t-269.5 -63q-170 0 -262.5 84.5t-92.5 229.5q0 147 113 231.5t326 84.5h262v111q0 133 -63 206.5t-182 73.5q-130 0 -205 -67t-75 -168l-111 12l-2 6q-5 138 103.5 228.5t289.5 90.5q121 0 208.5 -54 t127.5 -157q61 99 156.5 155t209.5 56q200 0 311.5 -124t111.5 -340v-100h-754v-29q0 -191 89.5 -310t271.5 -119q103 0 181.5 32.5t142.5 86.5l47 -87q-60 -55 -148.5 -94t-222.5 -39zM479 79q102 0 197.5 53.5t131.5 115.5v264h-260q-156 0 -238.5 -64t-82.5 -159 q0 -97 65 -153.5t187 -56.5zM1265 1000q-138 0 -224 -101.5t-99 -257.5l2 -5h625v31q0 146 -77.5 239.5t-226.5 93.5z" unicode="ӕ" glyph-name="uni04D5" horiz-adv-x="1796"/>
<glyph d="M959 705h-653v-604h755v-101h-875v1456h870v-102h-750v-547h653v-102zM900 1854l2 -6q4 -112 -73 -182t-210 -70t-210.5 70.5t-72.5 181.5l2 6h94q0 -77 45 -124t142 -47q94 0 140.5 48t46.5 123h94z" unicode="Ӗ" glyph-name="uni04D6" horiz-adv-x="1129"/>
<glyph d="M569 -21q-210 0 -341 148.5t-131 381.5v55q0 234 132.5 386t328.5 152q197 0 304.5 -126.5t107.5 -340.5v-93h-753v-33q0 -185 93.5 -307t258.5 -122q99 0 182 32.5t138 87.5l51 -82q-57 -60 -149.5 -99.5t-221.5 -39.5zM558 1000q-138 0 -227 -99t-104 -251l3 -6h620v25 q0 144 -75.5 237.5t-216.5 93.5zM829 1533l2 -6q4 -112 -73 -182t-210 -70t-210.5 70.5t-72.5 181.5l2 6h94q0 -77 45 -124t142 -47q94 0 140.5 48t46.5 123h94z" unicode="ӗ" glyph-name="uni04D7" horiz-adv-x="1054"/>
<glyph d="M654 1477q320 0 498.5 -184.5t178.5 -486.5v-114q0 -312 -174.5 -512.5t-433.5 -200.5q-292 0 -456 170.5t-164 464.5v95h1109v97q0 252 -139.5 410.5t-418.5 158.5q-126 0 -225 -33.5t-175 -87.5l-39 89q70 56 174 95t265 39zM723 80q206 0 335 150t146 381l-2 5h-979 v-31q0 -224 126.5 -364.5t373.5 -140.5z" unicode="Ә" glyph-name="uni04D8" horiz-adv-x="1442"/>
<glyph d="M554.035 1103q209.986 0 340.979 -148.491t130.992 -381.477v-54.9971q0 -233.985 -132.492 -385.977q-132.491 -151.99 -328.479 -151.99q-196.988 0 -304.481 126.492t-107.493 340.479v92.9941h752.954v32.998q0 184.988 -93.4951 306.981 q-93.4941 121.992 -258.483 121.992q-98.9941 0 -181.989 -32.498t-137.991 -87.4951l-50.9971 81.9951q56.9961 59.9971 149.49 99.4941q92.4951 39.498 221.487 39.498zM565.034 82.0605q137.991 0 226.986 98.9941q88.9941 98.9941 103.993 250.985l-3 5.99902h-619.962 v-24.998q0 -143.991 75.4951 -237.485q75.4961 -93.4951 216.487 -93.4951z" unicode="ә" glyph-name="uni04D9" horiz-adv-x="1083"/>
<glyph d="M654 1477q320 0 498.5 -184.5t178.5 -486.5v-114q0 -312 -174.5 -512.5t-433.5 -200.5q-292 0 -456 170.5t-164 464.5v95h1109v97q0 252 -139.5 410.5t-418.5 158.5q-126 0 -225 -33.5t-175 -87.5l-39 89q70 56 174 95t265 39zM723 80q206 0 335 150t146 381l-2 5h-979 v-31q0 -224 126.5 -364.5t373.5 -140.5zM989 1595h-173v157h173v-157zM520 1595h-174v157h174v-157z" unicode="Ӛ" glyph-name="uni04DA" horiz-adv-x="1442"/>
<glyph d="M554.035 1103q209.986 0 340.979 -148.491t130.992 -381.477v-54.9971q0 -233.985 -132.492 -385.977q-132.491 -151.99 -328.479 -151.99q-196.988 0 -304.481 126.492t-107.493 340.479v92.9941h752.954v32.998q0 184.988 -93.4951 306.981 q-93.4941 121.992 -258.483 121.992q-98.9941 0 -181.989 -32.498t-137.991 -87.4951l-50.9971 81.9951q56.9961 59.9971 149.49 99.4941q92.4951 39.498 221.487 39.498zM565.034 82.0605q137.991 0 226.986 98.9941q88.9941 98.9941 103.993 250.985l-3 5.99902h-619.962 v-24.998q0 -143.991 75.4951 -237.485q75.4961 -93.4951 216.487 -93.4951zM894 1319h-173v157h173v-157zM425 1319h-174v157h174v-157z" unicode="ӛ" glyph-name="uni04DB" horiz-adv-x="1083"/>
<glyph d="M965 695h-80v-695h-119v695h-86l-501 -695h-152l546 752l-508 704h144l464 -659h93v659h119v-659h89l465 659h143l-508 -703l546 -753h-151zM1170 1641h-173v157h173v-157zM701 1641h-174v157h174v-157z" unicode="Ӝ" glyph-name="uni04DC" horiz-adv-x="1648"/>
<glyph d="M895 500h-91v-500h-120v500h-89l-409 -500h-145l-3 5l456 555l-410 522h145l364 -475h91v475h120v-475h93l364 475h147l-412 -522l457 -555l-3 -5h-146zM1062 1299h-173v157h173v-157zM593 1299h-174v157h174v-157z" unicode="ӝ" glyph-name="uni04DD" horiz-adv-x="1492"/>
<glyph d="M669 794q214 0 316.5 74.5t102.5 208.5t-106.5 216t-317.5 82q-171 0 -286 -84t-115 -216h-111l-2 6q-6 176 144 286t370 110q252 0 397.5 -105t145.5 -299q0 -109 -74.5 -196.5t-208.5 -130.5q151 -39 228.5 -128t77.5 -223q0 -195 -157 -305.5t-409 -110.5 q-220 0 -380 108t-155 311l2 6h112q0 -140 116.5 -232t304.5 -92q210 0 328 84t118 227q0 155 -111 227.5t-330 72.5h-184v103h184zM1009 1662h-173v157h173v-157zM540 1662h-174v157h174v-157z" unicode="Ӟ" glyph-name="uni04DE" horiz-adv-x="1352"/>
<glyph d="M561 604q153 0 226 50t73 142q0 88 -76.5 145t-226.5 57q-133 0 -222.5 -58.5t-89.5 -149.5h-110l-2 6q-6 134 117.5 218.5t306.5 84.5q196 0 310 -79.5t114 -225.5q0 -78 -54.5 -141.5t-151.5 -97.5q110 -30 167.5 -95.5t57.5 -162.5q0 -147 -123.5 -231t-319.5 -84 q-183 0 -315.5 83t-126.5 239l2 6h110q0 -97 92 -162.5t238 -65.5q151 0 236.5 58.5t85.5 154.5q0 106 -80 155.5t-238 49.5h-184v104h184zM877 1318h-173v157h173v-157zM408 1318h-174v157h174v-157z" unicode="ӟ" glyph-name="uni04DF" horiz-adv-x="1113"/>
<glyph d="M872 1349l-2 5h-725v102h869l2 -93l-446 -527q227 -2 346 -115.5t119 -325.5q0 -194 -128.5 -305t-333.5 -111q-187 0 -323 108t-131 311l2 6h113q0 -140 94 -232t245 -92q161 0 252 84t91 227q0 181 -89.5 265t-266.5 84h-121v102z" unicode="Ӡ" glyph-name="uni04E0" horiz-adv-x="1179"/>
<glyph d="M862 974l-2 5h-715v103h869l2 -93l-439 -529q218 -8 338 -122t120 -318q0 -192 -129 -303.5t-333 -111.5q-186 0 -322.5 108.5t-131.5 309.5l2 6h113q0 -138 94 -230t245 -92q161 0 252 84t91 225q0 180 -96.5 264.5t-275.5 84.5h-106v103z" unicode="ӡ" glyph-name="uni04E1" horiz-adv-x="1179"/>
<glyph d="M1141 1456h119v-1456h-119v1245l-6 1l-828 -1246h-120v1456h120v-1243l6 -1zM1064 1689h-670v97h670v-97z" unicode="Ӣ" glyph-name="uni04E2" horiz-adv-x="1444"/>
<glyph d="M862 1082h120v-1082h-120v883l-6 2l-578 -885h-120v1082h120v-882l6 -1zM900 1347h-670v97h670v-97z" unicode="ӣ" glyph-name="uni04E3"/>
<glyph d="M1141 1456h119v-1456h-119v1245l-6 1l-828 -1246h-120v1456h120v-1243l6 -1zM1057 1641h-173v157h173v-157zM588 1641h-174v157h174v-157z" unicode="Ӥ" glyph-name="uni04E4" horiz-adv-x="1444"/>
<glyph d="M862 1082h120v-1082h-120v883l-6 2l-578 -885h-120v1082h120v-882l6 -1zM893 1299h-173v157h173v-157zM424 1299h-174v157h174v-157z" unicode="ӥ" glyph-name="uni04E5"/>
<glyph d="M1254 609q0 -282 -154.5 -456t-414.5 -174q-256 0 -408.5 174t-152.5 456v237q0 281 152 456t408 175q260 0 415 -175t155 -456v-237zM1135 848q0 236 -119.5 380t-331.5 144q-208 0 -324 -144t-116 -380v-239q0 -238 116.5 -382t324.5 -144q213 0 331.5 143.5 t118.5 382.5v239zM1012 1662h-173v157h173v-157zM543 1662h-174v157h174v-157z" unicode="Ӧ" glyph-name="uni04E6" horiz-adv-x="1378"/>
<glyph d="M91 557q0 239 131 392t347 153q217 0 348 -153t131 -392v-33q0 -240 -130.5 -392.5t-346.5 -152.5q-218 0 -349 152.5t-131 392.5v33zM211 524q0 -188 95 -316t265 -128q167 0 262.5 128t95.5 316v33q0 185 -96 314t-264 129t-263 -129t-95 -314v-33zM908 1319h-173v157 h173v-157zM439 1319h-174v157h174v-157z" unicode="ӧ" glyph-name="uni04E7"/>
<glyph d="M1254 609q0 -282 -154.5 -456t-414.5 -174q-256 0 -408.5 174t-152.5 456v237q0 281 152 456t408 175q260 0 415 -175t155 -456v-237zM936 666q68 0 122 31.5t77 81.5v69q0 236 -119.5 380t-331.5 144q-208 0 -324 -144t-116 -380v-104q37 39 89 61.5t114 22.5 q115 0 256.5 -81t232.5 -81zM1135 642q-38 -36 -88.5 -55.5t-110.5 -19.5q-127 0 -261.5 81t-227.5 81q-76 0 -129.5 -35.5t-73.5 -89.5q0 -237 116.5 -379t324.5 -142q213 0 331.5 143.5t118.5 382.5v33z" unicode="Ө" glyph-name="uni04E8" horiz-adv-x="1379"/>
<glyph d="M91 557q0 239 131 392t347 153q217 0 348 -153t131 -392v-33q0 -240 -130.5 -392.5t-346.5 -152.5q-218 0 -349 152.5t-131 392.5v33zM752 510q60 0 111 30.5t63 77.5q-16 164 -110 273t-247 109q-166 0 -260 -124.5t-90 -298.5l3 -5q23 29 68.5 47t100.5 18 q85 0 189.5 -63.5t171.5 -63.5zM382 547q-60 0 -106.5 -25.5t-61.5 -66.5q17 -164 110 -269.5t247 -105.5q159 0 252.5 116t96.5 285l-4 5q-25 -31 -71.5 -48.5t-101.5 -17.5q-94 0 -193.5 63.5t-167.5 63.5z" unicode="ө" glyph-name="uni04E9" horiz-adv-x="1158"/>
<glyph d="M1254 609q0 -282 -154.5 -456t-414.5 -174q-256 0 -408.5 174t-152.5 456v237q0 281 152 456t408 175q260 0 415 -175t155 -456v-237zM936 666q68 0 122 31.5t77 81.5v69q0 236 -119.5 380t-331.5 144q-208 0 -324 -144t-116 -380v-104q37 39 89 61.5t114 22.5 q115 0 256.5 -81t232.5 -81zM1135 642q-38 -36 -88.5 -55.5t-110.5 -19.5q-127 0 -261.5 81t-227.5 81q-76 0 -129.5 -35.5t-73.5 -89.5q0 -237 116.5 -379t324.5 -142q213 0 331.5 143.5t118.5 382.5v33zM1040 1636h-173v157h173v-157zM571 1636h-174v157h174v-157z" unicode="Ӫ" glyph-name="uni04EA" horiz-adv-x="1379"/>
<glyph d="M91 557q0 239 131 392t347 153q217 0 348 -153t131 -392v-33q0 -240 -130.5 -392.5t-346.5 -152.5q-218 0 -349 152.5t-131 392.5v33zM752 510q60 0 111 30.5t63 77.5q-16 164 -110 273t-247 109q-166 0 -260 -124.5t-90 -298.5l3 -5q23 29 68.5 47t100.5 18 q85 0 189.5 -63.5t171.5 -63.5zM382 547q-60 0 -106.5 -25.5t-61.5 -66.5q17 -164 110 -269.5t247 -105.5q159 0 252.5 116t96.5 285l-4 5q-25 -31 -71.5 -48.5t-101.5 -17.5q-94 0 -193.5 63.5t-167.5 63.5zM885 1347h-173v157h173v-157zM416 1347h-174v157h174v-157z" unicode="ӫ" glyph-name="uni04EB" horiz-adv-x="1158"/>
<glyph d="M168 1001l-2 6q-5 213 139 342t379 129q242 0 391.5 -176.5t149.5 -454.5v-237q0 -279 -149.5 -454.5t-391.5 -175.5q-238 0 -380.5 124t-137.5 344l2 6h112q0 -177 107 -275t297 -98t306 147t116 380v97h-579v102h579v40q0 233 -116 381t-306 148t-297 -96.5 t-107 -278.5h-112zM1018 1663h-173v157h173v-157zM549 1663h-174v157h174v-157z" unicode="Ӭ" glyph-name="uni04EC" horiz-adv-x="1352"/>
<glyph d="M517 1000q-116 0 -203 -68t-87 -188h-108l-2 6q-5 149 116.5 250.5t283.5 101.5q212 0 337 -153t125 -387v-42q0 -235 -124.5 -388t-336.5 -153q-174 0 -290 104.5t-111 276.5l2 6h108q0 -132 83.5 -209t207.5 -77q160 0 246.5 118t89.5 293l-3 5h-482v101h482l2 5 q-5 170 -91.5 284t-244.5 114zM873 1319h-173v157h173v-157zM404 1319h-174v157h174v-157z" unicode="ӭ" glyph-name="uni04ED" horiz-adv-x="1095"/>
<glyph d="M593 660l64 -147h6l440 943h141l-583 -1208q-57 -118 -138.5 -193.5t-227.5 -75.5q-57 0 -118.5 13t-90.5 32l19 95q33 -16 85.5 -27.5t96.5 -11.5q93 0 154 53t105 142l53 107l-546 1074h138zM979 1689h-670v97h670v-97z" unicode="Ӯ" glyph-name="uni04EE" horiz-adv-x="1324"/>
<glyph d="M465 293l38 -129h6l327 918h134l-470 -1255q-42 -110 -109 -187t-196 -77q-21 0 -51 4.5t-44 9.5l14 100q12 -2 38.5 -4.5t38.5 -2.5q78 0 125 55.5t80 142.5l57 146l-418 1068h133zM847 1347h-670v97h670v-97z" unicode="ӯ" glyph-name="uni04EF" horiz-adv-x="1002"/>
<glyph d="M593 660l64 -147h6l440 943h141l-583 -1208q-57 -118 -138.5 -193.5t-227.5 -75.5q-57 0 -118.5 13t-90.5 32l19 95q33 -16 85.5 -27.5t96.5 -11.5q93 0 154 53t105 142l53 107l-546 1074h138zM972 1641h-173v157h173v-157zM503 1641h-174v157h174v-157z" unicode="Ӱ" glyph-name="uni04F0" horiz-adv-x="1324"/>
<glyph d="M465 293l38 -129h6l327 918h134l-470 -1255q-42 -110 -109 -187t-196 -77q-21 0 -51 4.5t-44 9.5l14 100q12 -2 38.5 -4.5t38.5 -2.5q78 0 125 55.5t80 142.5l57 146l-418 1068h133zM840 1299h-173v157h173v-157zM371 1299h-174v157h174v-157z" unicode="ӱ" glyph-name="uni04F1" horiz-adv-x="1002"/>
<glyph d="M593 660l64 -147h6l440 943h141l-583 -1208q-57 -118 -138.5 -193.5t-227.5 -75.5q-57 0 -118.5 13t-90.5 32l19 95q33 -16 85.5 -27.5t96.5 -11.5q93 0 154 53t105 142l53 107l-546 1074h138zM953 1867h145l2 -6l-296 -260h-113l-2 6zM658 1867h133l3 -6l-245 -260h-102 l-3 5z" unicode="Ӳ" glyph-name="uni04F2" horiz-adv-x="1324"/>
<glyph d="M465 293l38 -129h6l327 918h134l-470 -1255q-42 -110 -109 -187t-196 -77q-21 0 -51 4.5t-44 9.5l14 100q12 -2 38.5 -4.5t38.5 -2.5q78 0 125 55.5t80 142.5l57 146l-418 1068h133zM821 1524h145l2 -6l-296 -260h-113l-2 6zM526 1524h133l3 -6l-245 -260h-102l-3 5z" unicode="ӳ" glyph-name="uni04F3" horiz-adv-x="1002"/>
<glyph d="M1175 1456v-1456h-120v664q-101 -29 -196 -43.5t-203 -14.5q-240 0 -361.5 105t-121.5 342v403h120v-403q0 -186 89 -265.5t274 -79.5q102 0 200.5 14.5t198.5 43.5v690h120zM1014 1641h-173v157h173v-157zM545 1641h-174v157h174v-157z" unicode="Ӵ" glyph-name="uni04F4" horiz-adv-x="1358"/>
<glyph d="M967 0h-120v455q-69 -25 -141.5 -39.5t-140.5 -14.5q-210 0 -312 93.5t-102 313.5v274h120v-274q0 -170 69.5 -237t224.5 -67q71 1 145 15t137 37v526h120v-1082zM878 1299h-173v157h173v-157zM409 1299h-174v157h174v-157z" unicode="ӵ" glyph-name="uni04F5" horiz-adv-x="1126"/>
<glyph d="M1055 1354h-756v-1354h-120v1456h876v-102zM395 -355h-120v479h120v-479z" unicode="Ӷ" glyph-name="uni04F6" horiz-adv-x="1122"/>
<glyph d="M826 979h-548v-979h-120v1082h668v-103zM358 -355h-120v479h120v-479z" unicode="ӷ" glyph-name="uni04F7" horiz-adv-x="858"/>
<glyph d="M299 842h364q230 0 355.5 -115.5t125.5 -303.5q0 -189 -126.5 -306t-354.5 -117h-484v1456h120v-614zM299 740v-639h364q180 0 270 93t90 231q0 133 -90 224t-270 91h-364zM1535 0h-120v1456h120v-1456zM1201 1641h-173v157h173v-157zM732 1641h-174v157h174v-157z" unicode="Ӹ" glyph-name="uni04F8" horiz-adv-x="1694"/>
<glyph d="M308 649h309q187 0 291.5 -90t104.5 -233q0 -144 -104.5 -235t-291.5 -91h-429v1082h120v-433zM308 547v-446h309q139 0 207.5 63.5t68.5 159.5q0 92 -69 157.5t-207 65.5h-309zM1370 0h-120v1082h120v-1082zM1130 1299h-173v157h173v-157zM661 1299h-174v157h174v-157z " unicode="ӹ" glyph-name="uni04F9" horiz-adv-x="1546"/>
<glyph d="M1148 1354h-756v-1354h-120v1456h876v-102zM655 749h-612v102h612v-102zM561 135v-224q0 -167 -80 -257.5t-222 -90.5q-30 0 -56.5 5t-55.5 14l13 103q16 -5 47 -10t52 -5q87 0 135 62.5t48 178.5v224h119z" unicode="Ӻ" glyph-name="uni04FA" horiz-adv-x="1165"/>
<glyph d="M924 979h-548v-979h-120v1082h668v-103zM656 574h-612v102h612v-102zM545 135v-224q0 -167 -80 -257.5t-222 -90.5q-30 0 -56.5 5t-55.5 14l13 103q16 -5 47 -10t52 -5q87 0 135 62.5t48 178.5v224h119z" unicode="ӻ" glyph-name="uni04FB" horiz-adv-x="842"/>
<glyph d="M628 834l411 622h145l-484 -718l500 -738h-143l-427 642l-426 -642h-145l500 738l-485 718h145zM1238 135v-224q0 -167 -80 -257.5t-222 -90.5q-30 0 -56.5 5t-55.5 14l13 103q16 -5 47 -10t52 -5q87 0 135 62.5t48 178.5v224h119z" unicode="Ӽ" glyph-name="uni04FC" horiz-adv-x="1256"/>
<glyph d="M498 640l293 442h142l-367 -531l382 -551h-140l-308 461l-308 -461h-142l383 551l-367 531h141zM1009 135v-224q0 -167 -80 -257.5t-222 -90.5q-30 0 -56.5 5t-55.5 14l13 103q16 -5 47 -10t52 -5q87 0 135 62.5t48 178.5v224h119z" unicode="ӽ" glyph-name="uni04FD" horiz-adv-x="1002"/>
<glyph d="M936 696h-208l472 -696h-143l-427 642l-426 -642h-145l471 696h-206v102h194l-444 658h145l409 -622l411 622h145l-444 -658h196v-102z" unicode="Ӿ" glyph-name="uni04FE" horiz-adv-x="1256"/>
<glyph d="M804 504h-206l350 -504h-140l-308 461l-308 -461h-142l350 504h-208v102h203l-329 476h141l291 -442l293 442h142l-329 -476h200v-102z" unicode="ӿ" glyph-name="uni04FF" horiz-adv-x="1002"/>
<glyph d="M921 842v614h119v-1456h-484q-230 0 -355 117t-125 306q0 188 125 303.5t355 115.5h365zM921 101v639h-365q-180 0 -270 -91.5t-90 -223.5q0 -138 89.5 -231t270.5 -93h365z" unicode="Ԁ" glyph-name="uni0500" horiz-adv-x="1173"/>
<glyph d="M111 532q0 259 109.5 414.5t305.5 155.5q111 0 194.5 -47t138.5 -133v638h120v-1560h-98l-17 157q-55 -86 -140 -132t-200 -46q-194 0 -303.5 144.5t-109.5 387.5v21zM231 511q0 -196 78.5 -312t236.5 -116q116 0 193 51.5t120 142.5v513q-41 92 -116 150t-195 58 q-158 0 -237.5 -129.5t-79.5 -336.5v-21z" unicode="ԁ" glyph-name="uni0501"/>
<glyph d="M556 0q-230 0 -355 117t-125 306q0 188 125 303.5t355 115.5h365v614h119v-1357l124 1q122 1 188.5 80.5t70.5 220.5q1 81 -15 170t-46 174h115q32 -103 49.5 -185t15.5 -159q-4 -194 -112.5 -297.5t-265.5 -103.5h-608zM921 101v639h-365q-180 0 -270 -91.5t-90 -223.5 q0 -138 89.5 -231t270.5 -93h365z" unicode="Ԃ" glyph-name="uni0502" horiz-adv-x="1599"/>
<glyph d="M111 532q0 259 109.5 414.5t305.5 155.5q108 0 189.5 -44t136.5 -126v628h120v-1215q-1 -128 52 -196.5t147 -68.5q151 2 233.5 121t86.5 328q1 94 -16 194t-48 208l117 1q34 -127 51.5 -219.5t15.5 -183.5q-4 -268 -126.5 -409t-313.5 -141q-111 -2 -185.5 46.5 t-107.5 153.5q-54 -96 -143 -148t-211 -52q-194 0 -303.5 144.5t-109.5 387.5v21zM852 805q-42 86 -116 139.5t-188 53.5q-158 0 -237.5 -129.5t-79.5 -336.5v-21q0 -196 78.5 -312t236.5 -116q114 0 191 51t120 140q-3 14 -4 30t-1 41v460z" unicode="ԃ" glyph-name="uni0503" horiz-adv-x="1759"/>
<glyph d="M732 381q0 135 -73.5 215t-211.5 80h-191v102h168q181 0 270 74.5t89 224.5q0 131 -91 204t-282 73h-359v102h359q239 0 365.5 -97.5t126.5 -283.5q0 -127 -69 -219.5t-196 -133.5q115 -36 165 -123t50 -216v-79q-1 -100 51 -162t139 -62q144 2 227 130t87 319 q1 94 -16.5 194.5t-49.5 208.5h118q34 -130 52 -221t16 -182q-4 -251 -126 -400.5t-308 -149.5q-144 -3 -223.5 75.5t-86.5 249.5v77z" unicode="Ԅ" glyph-name="uni0504" horiz-adv-x="1617"/>
<glyph d="M712 213q-1 -68 30 -102t110 -34q128 2 197 91.5t73 250.5q2 77 -16 159t-54 160h123q34 -105 51 -176.5t16 -142.5q-4 -215 -115 -328.5t-275 -113.5q-128 -3 -191.5 52.5t-68.5 184.5v81q0 87 -64 134.5t-184 47.5h-211l-2 100h206q128 0 196.5 53t68.5 139 q0 93 -76 153.5t-212 60.5h-262l-6 99h268q193 0 301 -83t108 -227q0 -82 -49 -144t-141 -96q95 -28 137 -88t42 -148v-83v0z" unicode="ԅ" glyph-name="uni0505" horiz-adv-x="1318"/>
<glyph d="M201 659v101h165q198 0 288.5 79.5t90.5 215.5q0 144 -90.5 221.5t-273.5 77.5h-283v101h283q233 0 358 -102.5t125 -298.5q0 -116 -67 -207.5t-189 -133.5q135 -34 194.5 -122t59.5 -220v-137q0 -68 16.5 -122t53.5 -88v-25h-122q-37 37 -52.5 102.5t-15.5 134.5v133 q0 134 -86 212t-241 78h-214zM933 16l-106 -276h-82l69 279v167h119v-170z" unicode="Ԇ" glyph-name="uni0506" horiz-adv-x="1092"/>
<glyph d="M199 468l-1 101h223q150 0 217.5 51t67.5 151q0 101 -68 155.5t-217 54.5h-308l2 101h306q195 0 300 -80t105 -229q0 -89 -48 -153t-144 -97q101 -27 146 -92t45 -161v-98q0 -49 8.5 -89t31.5 -63v-20h-125q-23 24 -29 73t-6 100v96q0 93 -65.5 146t-185.5 53h-255z M917 -4l-106 -276h-82l69 279v167h119v-170z" unicode="ԇ" glyph-name="uni0507" horiz-adv-x="1026"/>
<glyph d="M1230 1456v-1111q-1 -128 52 -196.5t147 -68.5q151 2 233.5 121t86.5 328q0 94 -17 194t-48 208l118 1q34 -127 51.5 -219.5t15.5 -183.5q-4 -268 -127 -409t-313 -141q-149 -3 -230.5 85.5t-88.5 280.5v1009h-569v-586q0 -397 -98 -582.5t-324 -185.5h-53v101h41 q166 0 240 156t74 511v688h809z" unicode="Ԉ" glyph-name="uni0508" horiz-adv-x="1980"/>
<glyph d="M841 979h-411v-357q0 -315 -76 -468.5t-246 -153.5h-57l1 107l44 1q113 0 164 122.5t51 391.5v460h649v-737q-1 -128 49.5 -196.5t138.5 -68.5q133 2 205.5 103.5t76.5 279.5q1 89 -16 184.5t-49 196.5l117 1q34 -124 52 -210t16 -172q-4 -236 -116 -360t-286 -124 q-143 -3 -222 85.5t-85 280.5v634z" unicode="ԉ" glyph-name="uni0509" horiz-adv-x="1648"/>
<glyph d="M1188 1456v-1111q-1 -128 52.5 -196.5t147.5 -68.5q151 2 233.5 121t86.5 328q0 94 -17 194t-48 208l117 1q34 -124 52 -217.5t16 -185.5q-5 -268 -127.5 -409t-312.5 -141q-149 -3 -231 85.5t-88 280.5v324h-758v-669h-120v1456h120v-685h758v685h119z" unicode="Ԋ" glyph-name="uni050A" horiz-adv-x="1995"/>
<glyph d="M850 491h-580v-491h-120v1082h120v-491h580v491h119v-737q-1 -128 49.5 -196.5t138.5 -68.5q133 2 205.5 103.5t76.5 279.5q1 89 -16.5 183.5t-48.5 197.5l117 1q34 -124 52 -210t16 -172q-4 -236 -116 -360t-286 -124q-143 -3 -222 85.5t-85 280.5v146z" unicode="ԋ" glyph-name="uni050B" horiz-adv-x="1692"/>
<glyph d="M694 -21q-247 0 -402 174.5t-155 443.5v262q0 268 155 443t402 175q106 0 189 -19.5t147 -56.5l-40 -94q-67 33 -139 50.5t-157 17.5q-201 0 -319 -147.5t-118 -366.5v-264q0 -222 118 -369.5t319 -147.5q168 2 259 92.5t95 252.5q1 82 -12.5 171.5t-37.5 189.5h119 q27 -128 39.5 -204.5t11.5 -156.5q-4 -216 -139.5 -331t-334.5 -115z" unicode="Ԍ" glyph-name="uni050C" horiz-adv-x="1265"/>
<glyph d="M590 80q134 2 192.5 60t61.5 161q0 57 -6.5 118.5t-17.5 117.5h116q13 -68 20 -125.5t7 -110.5q-4 -158 -106 -240t-267 -82q-220 0 -346.5 157t-126.5 384v42q0 226 121.5 383t330.5 157q92 0 160 -16t111 -47l-34 -95q-46 27 -107 41.5t-130 14.5q-164 0 -248 -131 t-84 -307v-42q0 -177 91 -308.5t262 -131.5z" unicode="ԍ" glyph-name="uni050D" horiz-adv-x="1048"/>
<glyph d="M548 1354h-515v102h1152v-102h-516v-1009q-2 -128 51.5 -196.5t147.5 -68.5q151 2 233.5 121t86.5 328q0 94 -17 194.5t-49 207.5l118 1q34 -127 51.5 -219.5t15.5 -183.5q-4 -268 -126.5 -409t-312.5 -141q-149 -3 -231 85.5t-89 280.5v1009z" unicode="Ԏ" glyph-name="uni050E" horiz-adv-x="1448"/>
<glyph d="M454 981h-387v101h907v-101h-399v-636q-1 -128 52 -196.5t147 -68.5q133 2 205.5 96.5t76.5 260.5q0 82 -17 171.5t-48 182.5l117 1q35 -117 52 -196.5t16 -158.5q-4 -223 -116.5 -340.5t-285.5 -117.5q-148 -3 -230 85.5t-90 280.5v636z" unicode="ԏ" glyph-name="uni050F" horiz-adv-x="1307"/>
<glyph d="M146 395q0 134 77 223t228 128q-135 43 -209 130.5t-74 196.5q0 194 145.5 299t397.5 105q219 0 369.5 -110t145.5 -286l-2 -6h-111q0 132 -115.5 216t-286.5 84q-212 0 -317.5 -82t-105.5 -216t102 -208.5t317 -74.5h183v-103h-183q-220 0 -330.5 -72.5t-110.5 -227.5 q0 -143 117 -227t328 -84q187 0 304.5 92t117.5 232h111l2 -6q4 -203 -155.5 -311t-379.5 -108q-253 0 -409 110.5t-156 305.5z" unicode="Ԑ" glyph-name="uni0510" horiz-adv-x="1352"/>
<glyph d="M107 297q0 97 57 162.5t168 95.5q-98 34 -152 97.5t-54 141.5q0 146 113.5 225.5t310.5 79.5q181 0 305 -84.5t119 -218.5l-2 -6h-109q0 91 -90.5 149.5t-222.5 58.5q-151 0 -227 -57t-76 -145q0 -92 72.5 -143t226.5 -51h185v-100h-185q-159 0 -238.5 -50.5 t-79.5 -156.5q0 -96 85 -154.5t237 -58.5q146 0 238 65.5t92 162.5h110l2 -6q5 -156 -127.5 -239t-314.5 -83q-197 0 -320 84t-123 231z" unicode="ԑ" glyph-name="uni0511" horiz-adv-x="1113"/>
<glyph d="M1250 1456v-1456h-120v1354h-626l-19 -557q-14 -436 -99.5 -616.5t-303.5 -180.5h-41v101h37q149 0 211.5 148t75.5 548l23 659h862zM1369 135v-224q0 -167 -80 -257.5t-222 -90.5q-30 0 -56.5 5t-55.5 14l13 103q16 -5 47 -10t52 -5q87 0 135 62.5t48 178.5v224h119z " unicode="Ԓ" glyph-name="uni0512" horiz-adv-x="1433"/>
<glyph d="M982 1082v-1082h-120v979h-459v-375q0 -319 -74 -461.5t-250 -142.5h-44l2 107l38 1q110 0 159.5 110.5t49.5 385.5v478h698zM1100 135v-224q0 -167 -80 -257.5t-222 -90.5q-30 0 -56.5 5t-55.5 14l13 103q16 -5 47 -10t52 -5q87 0 135 62.5t48 178.5v224h119z" unicode="ԓ" glyph-name="uni0513" horiz-adv-x="1127"/>
<glyph d="M948 406h-639l-147 -406h-124l535 1456h113l531 -1456h-124zM347 513h562l-276 772h-6zM486 -223q0 57 43 95.5t103 38.5q58 0 100 -38.5t42 -95.5q0 -55 -41.5 -92.5t-100.5 -37.5q-61 0 -103.5 37.5t-42.5 92.5zM558 -223q0 -25 21.5 -43.5t52.5 -18.5q30 0 50.5 18 t20.5 44q0 29 -20.5 47t-50.5 18q-31 0 -52.5 -18t-21.5 -47z" unicode="Ḁ" glyph-name="uni1E00" horiz-adv-x="1256"/>
<glyph d="M843 0q-11 57 -16.5 98t-5.5 84q-56 -88 -157 -145.5t-232 -57.5q-159 0 -246.5 84.5t-87.5 229.5t127 235t330 90h266v134q0 116 -73.5 182t-207.5 66q-123 0 -198.5 -60t-75.5 -151h-111l-2 6q-6 122 104.5 214.5t288.5 92.5t286 -91t108 -261v-532q0 -57 6.5 -111 t21.5 -107h-125zM445 85q138 0 239 65.5t137 168.5v207h-267q-146 0 -241 -69.5t-95 -167.5q0 -92 60.5 -148t166.5 -56zM355 -223q0 57 43 95.5t103 38.5q58 0 100 -38.5t42 -95.5q0 -55 -41.5 -92.5t-100.5 -37.5q-61 0 -103.5 37.5t-42.5 92.5zM427 -223 q0 -25 21.5 -43.5t52.5 -18.5q30 0 50.5 18t20.5 44q0 29 -20.5 47t-50.5 18q-31 0 -52.5 -18t-21.5 -47z" unicode="ḁ" glyph-name="uni1E01" horiz-adv-x="1101"/>
<glyph d="M886 174h6l542 1282h146v-1456h-120v1223l-6 1l-522 -1224h-86l-534 1254l-6 -1v-1253h-120v1456h160zM1027 1863h147l3 -6l-249 -260h-107z" unicode="Ḿ" glyph-name="uni1E3E" horiz-adv-x="1766"/>
<glyph d="M260 1082l11 -178q52 94 138.5 146t205.5 52q124 0 207 -59.5t119 -181.5q49 113 139.5 177t218.5 64q173 0 267.5 -115t94.5 -356v-631h-120v633q0 200 -71 282.5t-196 82.5q-137 0 -212 -83.5t-95 -215.5q0 -11 0.5 -22t0.5 -28v-649h-121v633q0 196 -71.5 280.5 t-196.5 84.5q-126 0 -200.5 -63.5t-104.5 -171.5v-763h-120v1082h106zM1053 1541h147l3 -6l-249 -260h-107z" unicode="ḿ" glyph-name="uni1E3F" horiz-adv-x="1815"/>
<glyph d="M440 418l45 -235h6l51 235l304 1038h121l305 -1038l49 -236h6l48 236l257 1038h130l-373 -1456h-114l-329 1117l-36 157h-6l-34 -157l-333 -1117h-114l-373 1456h130zM975 1603h-117l-241 261l2 5h154z" unicode="Ẁ" glyph-name="Wgrave" horiz-adv-x="1813"/>
<glyph d="M391 351l42 -198h6l50 198l230 731h103l230 -731l50 -204h6l47 204l193 731h128l-315 -1082h-102l-245 740l-43 175h-6l-43 -175l-240 -740h-103l-314 1082h128zM843 1260h-117l-241 261l2 5h154z" unicode="ẁ" glyph-name="wgrave" horiz-adv-x="1550"/>
<glyph d="M440 418l45 -235h6l51 235l304 1038h121l305 -1038l49 -236h6l48 236l257 1038h130l-373 -1456h-114l-329 1117l-36 157h-6l-34 -157l-333 -1117h-114l-373 1456h130zM1042 1863h147l3 -6l-249 -260h-107z" unicode="Ẃ" glyph-name="Wacute" horiz-adv-x="1813"/>
<glyph d="M391 351l42 -198h6l50 198l230 731h103l230 -731l50 -204h6l47 204l193 731h128l-315 -1082h-102l-245 740l-43 175h-6l-43 -175l-240 -740h-103l-314 1082h128zM910 1520h147l3 -6l-249 -260h-107z" unicode="ẃ" glyph-name="wacute" horiz-adv-x="1550"/>
<glyph d="M440 418l45 -235h6l51 235l304 1038h121l305 -1038l49 -236h6l48 236l257 1038h130l-373 -1456h-114l-329 1117l-36 157h-6l-34 -157l-333 -1117h-114l-373 1456h130zM1231 1641h-173v157h173v-157zM762 1641h-174v157h174v-157z" unicode="Ẅ" glyph-name="Wdieresis" horiz-adv-x="1813"/>
<glyph d="M391 351l42 -198h6l50 198l230 731h103l230 -731l50 -204h6l47 204l193 731h128l-315 -1082h-102l-245 740l-43 175h-6l-43 -175l-240 -740h-103l-314 1082h128zM1099 1299h-173v157h173v-157zM630 1299h-174v157h174v-157z" unicode="ẅ" glyph-name="wdieresis" horiz-adv-x="1550"/>
<glyph d="M948 406h-639l-147 -406h-124l535 1456h113l531 -1456h-124zM347 513h562l-276 772h-6zM710 -315h-151v168h151v-168z" unicode="Ạ" glyph-name="uni1EA0" horiz-adv-x="1256"/>
<glyph d="M843 0q-11 57 -16.5 98t-5.5 84q-56 -88 -157 -145.5t-232 -57.5q-159 0 -246.5 84.5t-87.5 229.5t127 235t330 90h266v134q0 116 -73.5 182t-207.5 66q-123 0 -198.5 -60t-75.5 -151h-111l-2 6q-6 122 104.5 214.5t288.5 92.5t286 -91t108 -261v-532q0 -57 6.5 -111 t21.5 -107h-125zM445 85q138 0 239 65.5t137 168.5v207h-267q-146 0 -241 -69.5t-95 -167.5q0 -92 60.5 -148t166.5 -56zM579 -315h-151v168h151v-168z" unicode="ạ" glyph-name="uni1EA1" horiz-adv-x="1101"/>
</font>
</defs>
</svg>
